<?xml version="1.0" standalone="no"?>
<!DOCTYPE svg PUBLIC "-//W3C//DTD SVG 1.1//EN" "http://www.w3.org/Graphics/SVG/1.1/DTD/svg11.dtd" >
<svg xmlns="http://www.w3.org/2000/svg">
<metadata></metadata>
<defs>
<font id="calgary_script_otregular" horiz-adv-x="452" >
<font-face units-per-em="2048" ascent="1638" descent="-410" />
<missing-glyph horiz-adv-x="368" />
<glyph horiz-adv-x="0" />
<glyph horiz-adv-x="682" />
<glyph unicode=" "  horiz-adv-x="368" />
<glyph unicode="&#x09;" horiz-adv-x="368" />
<glyph unicode="&#xa0;" horiz-adv-x="368" />
<glyph unicode="!" horiz-adv-x="610" d="M80 106q0 54 44.5 130.5t90.5 76.5q53 0 125 -45t72 -94q0 -46 -15 -96.5t-50 -90.5t-81 -40q-64 0 -125 49t-61 110zM297 457q0 14 6 26q58 102 223 498.5t181 458.5q22 57 98 57q37 0 89 -21.5t95 -63.5t43 -87q0 -26 -14 -51q-51 -77 -184 -267.5t-220.5 -329 t-160.5 -282.5q-13 -30 -52 -30q-36 0 -70 29.5t-34 62.5z" />
<glyph unicode="&#x22;" horiz-adv-x="978" d="M547 848q0 14 2 22q15 85 30.5 246t24.5 195q22 57 98 57q38 0 78.5 -12t73.5 -40.5t33 -66.5q0 -23 -19 -59q-28 -50 -74.5 -135.5t-82 -150t-56.5 -99.5q-22 -37 -51 -37q-24 0 -40.5 22.5t-16.5 57.5zM825 858q0 16 6 31q134 389 142 422q22 57 98 57q59 0 129 -38 t70 -91q0 -31 -25 -59q-32 -38 -98 -102t-119 -125.5t-90 -129.5q-19 -37 -51 -37q-24 0 -43 21t-19 51z" />
<glyph unicode="#" horiz-adv-x="1185" d="M156 662q0 26 5.5 36t18.5 17h350q44 112 66 182h-262l-8 119q-1 11 25 17q41 9 277 9h1h1h1h1h1h1h1h1h1h1h1h1h1h1h9q105 293 129 373q16 53 43 53t52.5 -46.5t25.5 -86.5q0 1 -1.5 -2.5t-4 -11.5t-6.5 -19.5t-9.5 -28t-11 -35t-13 -41.5t-15 -46.5t-17 -52.5 t-18.5 -56h194l103 283q17 35 39 35q27 0 48 -48.5t21 -105.5q0 -24 -49 -166q53 2 125 2q28 0 50 -0.5t33 -1t13 -0.5q64 0 117 -42t53 -83q0 -27 -45 -36q-70 1 -397 8l-61 -168q8 2 24 2q65 0 135 -46t70 -85q0 -13 -13 -23t-32 -10h-244q-15 -42 -34 -94t-29 -79 t-20.5 -57.5t-15 -48.5t-5.5 -32q-5 -58 -72.5 -102t-114.5 -44q-13 0 -21.5 9.5t-8.5 21.5q0 8 2 12q26 77 66 171t62 153t25 98h-176q-22 -47 -37 -88.5t-23.5 -70.5t-11.5 -37q-31 -72 -82 -108t-98 -36q-33 0 -33 43q0 8 109 297q-233 0 -309 6q-6 61 -6 91zM702 719 q49 2 181 2l59 168q-53 2 -184 2q-6 -20 -26.5 -80.5t-29.5 -91.5z" />
<glyph unicode="$" horiz-adv-x="901" d="M16 369q0 26 16.5 56t41.5 30q13 0 30 -17q109 -119 203 -162l103 197q-38 76 -57.5 118.5t-41.5 117t-22 135.5q0 82 55.5 192.5t141 210t201.5 169t224 69.5q17 0 27 -2q35 70 123 237q13 35 45 35q30 0 59 -26.5t29 -51.5q0 -8 -2 -10q-69 -72 -166 -223 q21 -21 33 -58q47 -28 85 -95t38 -124q0 -37 -17 -67q-123 -220 -245 -379q-22 -25 -37 -25q-32 0 -72.5 54t-40.5 88q0 26 14 51q11 16 56 114.5t45 110.5q0 8 -8 8q-14 0 -50 -8q-163 -291 -260 -479q15 -31 59.5 -105t68.5 -132.5t24 -116.5q0 -111 -75 -166.5 t-189 -55.5q-75 0 -158 25q-5 -13 -23.5 -54.5t-25.5 -60.5q-6 -15 -33 -28t-49 -13q-25 0 -25 17q0 10 4 16l78 152q-93 42 -150 108.5t-57 147.5zM379 258q8 -2 24 -2q74 0 74 43q0 31 -31 98q-41 -79 -67 -139zM535 760q0 -27 4 -41l176 340q-76 -52 -128 -131t-52 -168z " />
<glyph unicode="%" horiz-adv-x="978" d="M88 18q0 31 23 64q105 142 382 571.5t359 583.5q8 13 8 27q0 16 -16 16q-9 0 -13 -2q-4 -1 -23.5 -7t-36 -8.5t-36.5 -2.5h-6q-39 -112 -114.5 -195.5t-151.5 -83.5q-36 0 -66 18q-78 26 -78 117q0 79 54.5 182.5t131 176.5t134.5 73q57 0 87 -46.5t30 -104.5v-11 q119 4 187.5 30t135.5 87q24 19 54 19q48 0 106.5 -43.5t58.5 -87.5q0 -25 -26 -35q-134 -120 -348.5 -384t-412 -550.5t-284.5 -464.5q-15 -45 -49 -45q-31 0 -60.5 34.5t-29.5 71.5zM420 1112q0 -53 26 -53t69 49t75.5 113.5t32.5 103.5q0 29 -25 29q-26 0 -68.5 -43 t-76 -101.5t-33.5 -97.5zM508 76q0 78 49 179t123.5 175t138.5 74q89 0 129 -148q-6 -47 -19.5 -103.5t-37.5 -118.5t-53.5 -112t-70 -83t-83.5 -33q-67 0 -121.5 56t-54.5 114zM621 49q0 -41 36 -41q26 0 66 51.5t69 117.5t29 106q0 34 -26 34h-2q-25 0 -66.5 -49 t-73.5 -114t-32 -105z" />
<glyph unicode="&#x26;" horiz-adv-x="1050" d="M8 182q0 114 59 242.5t187 264t305 237.5q1 103 14.5 185.5t48 159.5t90 128.5t144 82.5t205.5 31q85 0 180 -30q102 -34 102 -86q0 -25 -23.5 -59t-53 -64t-62 -71t-45.5 -75q-6 -15 -9.5 -31.5t-5 -24.5t-6 -13.5t-12.5 -5.5q-92 0 -137 42.5t-45 110.5q0 90 64 170 q-123 0 -182.5 -113.5t-59.5 -304.5q0 -151 35 -327t96 -342q43 46 86 106t80 118.5t41 64.5q9 12 16 12q8 0 16 -10t12 -20l3 -9q-99 -234 -217 -352q42 -104 90 -183q2 -4 2 -12q0 -36 -58.5 -66t-129.5 -30q-61 0 -110.5 28t-72.5 89q-218 -109 -374 -109 q-133 0 -203 72.5t-70 193.5zM297 309q0 -89 47 -142.5t141 -53.5q73 0 156 28q-6 76 -38 304.5t-40 355.5q-120 -97 -193 -236t-73 -256z" />
<glyph unicode="'" horiz-adv-x="610" d="M496 858q0 16 6 31q24 71 45 157.5t36.5 166t20.5 98.5q22 57 98 57q59 0 129 -38t70 -91q0 -32 -24 -59q-16 -19 -55 -63.5t-58.5 -68.5t-50 -63t-56 -78.5t-49.5 -83.5q-19 -37 -51 -37q-24 0 -42.5 21t-18.5 51z" />
<glyph unicode="(" horiz-adv-x="360" d="M68 -51q0 219 92 498.5t226.5 523t285 442t270.5 283.5q27 18 47 18q15 0 24 -11t9 -30q0 -28 -16 -55q-193 -214 -374 -528t-309 -649.5t-171 -616.5q-1 -13 -17.5 -24t-32.5 -11q-21 0 -24 23q-10 72 -10 137z" />
<glyph unicode=")" horiz-adv-x="360" d="M2 -160q0 29 16 56q193 214 374 528t309 649.5t171 616.5q1 13 17.5 23.5t32.5 10.5q21 0 24 -22q10 -72 10 -137q0 -219 -92 -498.5t-226.5 -523t-285 -442t-270.5 -283.5q-28 -19 -47 -19q-15 0 -24 11t-9 30z" />
<glyph unicode="*" horiz-adv-x="673" d="M279 1143q0 19 7 32t19 13l191 -51q-30 20 -48 57t-18 76q0 45 24 74.5t72 29.5l35 -213q13 66 51 117t82 51q43 0 84 -55l-160 -141q53 20 97 20q59 0 92 -31t33 -65q0 -15 -8 -25t-21 -10l-188 51q30 -18 48.5 -57t18.5 -78q0 -44 -23.5 -73t-70.5 -29l-33 213 q-36 -91 -64.5 -133t-60.5 -42q-37 0 -90 62l164 139q-65 -22 -119 -22q-59 0 -86.5 27.5t-27.5 62.5z" />
<glyph unicode="+" horiz-adv-x="688" d="M80 668q0 68 63 98q62 28 181 66t241 59q45 110 101 237q6 12 40.5 21.5t73.5 9.5q43 0 72 -12.5t29 -38.5q0 -14 -9 -29l-96 -180q57 -19 107.5 -73.5t50.5 -98.5q0 -59 -96 -59q-4 0 -187 6q-162 -302 -254 -565q-4 -9 -10.5 -27.5t-11 -30t-11 -24.5t-14 -19t-16.5 -6 q-13 0 -27 14q-2 2 -13 12.5t-17 16.5t-15.5 17t-15 19t-9.5 17.5t-4 16.5q0 8 15 106q4 18 4 66q0 145 -45 315l-72 -31q-28 0 -41.5 33t-13.5 64zM256 621q9 -22 22 -75.5t26.5 -79.5t37.5 -26q18 0 23 11q44 74 108 223q-114 -14 -217 -53z" />
<glyph unicode="," horiz-adv-x="516" d="M-35 -168q0 12 31 21q138 46 190 167q-20 -4 -30 -4q-36 0 -54 24.5t-18 63.5q0 69 41 139t90 70q98 0 144.5 -37.5t46.5 -99.5q0 -74 -54 -159.5t-139.5 -145t-167.5 -59.5q-80 0 -80 20z" />
<glyph unicode="-" horiz-adv-x="909" d="M256 352q0 47 51 87t90 40q130 0 237 7.5t165 14.5t69 7q29 0 29 -31q0 -53 -45.5 -106.5t-99.5 -53.5l-467 5q-14 2 -21.5 8t-7.5 22z" />
<glyph unicode="." horiz-adv-x="516" d="M80 106q0 54 44.5 130.5t90.5 76.5q53 0 125 -45t72 -94q0 -46 -15 -96.5t-50 -90.5t-81 -40q-64 0 -125 49t-61 110z" />
<glyph unicode="/" horiz-adv-x="387" d="M-172 -174q0 2 4 14q81 157 916 1759q14 37 51 37q36 0 73 -27.5t37 -52.5q0 -1 -1 -4t-1 -4q-107 -114 -309.5 -458.5t-380.5 -694t-260 -547.5q-6 -15 -38.5 -28t-59.5 -13q-31 0 -31 19z" />
<glyph unicode="0" horiz-adv-x="1036" d="M68 305q0 148 68 335t170.5 354t222.5 308.5t225 217.5q56 41 120 41q67 0 128 -40.5t92 -111.5q36 -11 55.5 -18t47.5 -19.5t43 -26t30 -34t21.5 -48.5t6.5 -63q0 -66 -38 -188t-100.5 -265.5t-150 -293.5t-180 -272t-197 -199.5t-194.5 -77.5q-50 0 -98 26 q-272 74 -272 375zM313 231q0 -63 21 -102t59 -39q69 0 157.5 89t168 223t148 279t109 268t40.5 179q0 33 -14 68t-46 35q-79 0 -193 -120.5t-212 -283t-168 -332.5t-70 -264z" />
<glyph unicode="1" horiz-adv-x="581" d="M-66 39q45 96 265.5 527t300.5 593q-39 0 -60.5 25t-21.5 57q0 23 11.5 41.5t33.5 22.5q71 16 121.5 71t56.5 82q10 37 46 54.5t77 17.5q40 0 98 -23.5t105 -64.5t47 -82q0 -24 -25 -53q-260 -356 -444.5 -669.5t-380.5 -696.5q-18 -39 -47 -39q-41 0 -112 48t-71 89z " />
<glyph unicode="2" horiz-adv-x="927" d="M-59 98q0 45 17.5 74t53.5 29q97 14 259.5 129t311.5 263t259 307t110 251q0 27 -34 27q-100 0 -250.5 -117.5t-216.5 -216.5q-9 -12 -20 -37.5t-21 -40t-23 -14.5q-36 0 -63 91t-27 165q0 30 6 39q55 81 137 163.5t177.5 154t203 116.5t199.5 45q107 0 199 -64t92 -149 q0 -30 -19 -70q0 -65 -36 -144.5t-88.5 -153.5t-135.5 -163t-153.5 -155.5t-168.5 -149.5t-153.5 -127.5t-132.5 -105.5h53q172 0 225.5 -14t53.5 -70q0 -27 31.5 -67t31.5 -64q0 -23 -45 -23q-136 8 -194 8q-135 0 -272.5 -17t-219.5 -52q-46 -17 -63 -17q-33 0 -58.5 54.5 t-25.5 115.5z" />
<glyph unicode="3" horiz-adv-x="999" d="M-41 141q0 33 14.5 53.5t42.5 20.5q7 0 17 -10q41 -47 112 -47q50 0 134 25.5t168 64.5t145 95.5t61 109.5q0 26 -35 44t-86 26t-88 11t-61 3q-66 0 -88.5 34.5t-22.5 122.5q3 29 20.5 47t63.5 35q85 32 224.5 108.5t210.5 153.5q114 124 114 166q0 33 -63 33 q-77 0 -163 -34t-151 -73q-20 -12 -54 -36t-57 -38t-38 -14q-33 13 -33 172q0 48 41 78q144 108 299.5 185t274.5 77q215 0 231 -274q31 -54 31 -104q0 -109 -98.5 -218t-215.5 -165q-73 -34 -100 -51.5t-27 -28.5q0 -7 4 -11q177 -137 177 -299q0 -96 -65.5 -186 t-167 -151.5t-223 -98.5t-233.5 -37q-168 0 -260 80q-25 22 -40 59t-15 72z" />
<glyph unicode="4" horiz-adv-x="950" d="M33 449q0 19 8.5 43.5t17.5 39.5l9 15q424 628 725 938q47 47 96 47q24 0 71.5 -22.5t73.5 -22.5q19 0 69.5 3t78.5 3q40 0 71 -6t59.5 -21.5t44 -47.5t15.5 -79q0 -3 -113 -177t-226 -366.5t-113 -240.5l24 2q26 -3 47 -42t21 -81q0 -35 -18.5 -60.5t-55.5 -29.5 l-141 -16q-154 -291 -195 -410q-7 -24 -29 -24q-45 2 -99 16.5t-54 36.5q0 19 7.5 49t24 74.5t28 74t36 88t31.5 76.5q-93 -7 -408 -39q-60 31 -83 82t-23 97zM340 563q0 -22 33 -22q21 0 103.5 1t86.5 1q27 2 40 7t17.5 8.5t13 22t15.5 31.5q16 29 87 200t87 206q8 16 8 26 q0 19 -16 19q-18 0 -45 -27q-33 -31 -197.5 -202.5t-214.5 -229.5l-2 -2q-16 -24 -16 -39z" />
<glyph unicode="5" horiz-adv-x="970" d="M-61 141q0 33 14.5 53.5t42.5 20.5q4 0 14.5 -9t23.5 -19.5t37.5 -19.5t53.5 -9q119 0 227 35t178 88t111 112t41 109q0 46 -36.5 74t-108.5 28q-39 0 -77 -8.5t-64.5 -20.5t-46.5 -24t-30 -21l-10 -8q-29 0 -71.5 48.5t-42.5 82.5q0 29 16 56q56 95 183.5 389.5 t127.5 331.5q-8 20 -8 43q0 22 9 40.5t28 18.5q55 -8 170 -8q123 0 242 12t176 35q45 0 81.5 -59.5t36.5 -125.5q0 -91 -71 -118q-150 -58 -328 -58q-20 0 -59 1t-58 1q-27 -34 -84 -158t-63 -132q-12 -15 -12 -35q0 -23 18 -23q67 13 109 13q139 0 210.5 -80t71.5 -207 q0 -85 -31 -176t-94.5 -177t-149.5 -154.5t-206.5 -110.5t-255.5 -42q-168 0 -260 80q-25 22 -40 59t-15 72z" />
<glyph unicode="6" horiz-adv-x="983" d="M88 291q0 116 44 261.5t117.5 287.5t173 278.5t205 240t219 167t210.5 63.5q60 0 121 -76.5t61 -158.5q0 -23 -33 -23q-91 0 -187.5 -48t-183 -130t-162.5 -181t-141 -212q105 92 203 92q109 0 179.5 -101t70.5 -235q0 -100 -41 -206.5t-107.5 -193t-160 -142.5 t-191.5 -56q-33 0 -67 8.5t-54.5 17.5t-56.5 27q-219 55 -219 320zM348 252q0 -94 62 -94q44 0 110.5 66.5t117 162t50.5 166.5q0 51 -31 81t-98 30q-23 0 -80 -5q-131 -259 -131 -407z" />
<glyph unicode="7" horiz-adv-x="790" d="M137 -53q0 76 21.5 167.5t53.5 176t82.5 184.5t94 176.5t103.5 170.5t96 147t86.5 125.5t60.5 87.5q4 6 4 16q0 19 -24 19q-48 0 -170 -34t-176 -34q-60 0 -60 61q0 45 31.5 112t70 115t58.5 48q59 0 283.5 20.5t248.5 20.5q40 0 73.5 -6t65 -19.5t50 -40t18.5 -63.5 q0 -49 -28 -109q8 -5 8 -16q0 -22 -36.5 -71t-98.5 -120t-139.5 -160t-163.5 -202.5t-165.5 -235t-151 -270t-114.5 -295.5q-7 -24 -28 -24q-46 2 -100 16.5t-54 36.5z" />
<glyph unicode="8" horiz-adv-x="1009" d="M92 264q0 62 33.5 127t97.5 129.5t132.5 120t162.5 121.5q-67 95 -101 144.5t-68 113t-34 94.5q0 82 55 158t140.5 129.5t186 94t193 60t161.5 19.5q50 0 92.5 -6.5t87.5 -24t71.5 -55t26.5 -92.5q0 -71 -41 -140q49 -93 49 -137q0 -57 -67 -108q-59 -41 -201.5 -135 t-216.5 -146q131 -164 131 -389q0 -185 -117.5 -314.5t-285.5 -129.5q-147 0 -287 106q-98 26 -149.5 101t-51.5 159zM385 205q0 -55 49 -55q46 0 112 43t116.5 111t50.5 128q0 36 -68 146q-260 -214 -260 -373zM618 1077q0 -53 23 -96.5t68 -91.5q65 43 99 66t86 59.5 t79 60t56 52.5t41.5 53t12.5 45q0 20 -19 31.5t-44 11.5q-26 0 -89.5 -15.5t-134.5 -40.5t-124.5 -62t-53.5 -73z" />
<glyph unicode="9" horiz-adv-x="993" d="M199 666q0 82 32 184t85.5 203.5t127.5 199t154.5 171.5t171 119.5t172.5 45.5q60 0 132 -26.5t126 -69.5q40 0 71 -6t60 -21.5t44.5 -47.5t15.5 -79q0 -3 -37.5 -63t-111.5 -183t-164 -282.5t-214 -399t-243 -493.5q-7 -24 -29 -24q-46 2 -100 16.5t-54 36.5 q0 39 31.5 125.5t79 197t57.5 136.5q14 28 78 184q-172 -148 -266 -148q-112 0 -165.5 60t-53.5 164zM416 635q0 -15 6.5 -24t17.5 -9q49 0 171 130t225.5 289t103.5 230q0 43 -41 43q-40 0 -120 -64t-161 -157.5t-141.5 -215.5t-60.5 -222z" />
<glyph unicode=":" horiz-adv-x="516" d="M80 106q0 54 44.5 130.5t90.5 76.5q53 0 125 -45t72 -94q0 -46 -15 -96.5t-50 -90.5t-81 -40q-64 0 -125 49t-61 110zM256 711q0 54 44.5 130.5t90.5 76.5q53 0 125 -45.5t72 -94.5q0 -46 -15 -96.5t-50 -90.5t-81 -40q-64 0 -125 49.5t-61 110.5z" />
<glyph unicode=";" horiz-adv-x="516" d="M-35 -168q0 12 31 21q138 46 190 167q-20 -4 -30 -4q-36 0 -54 24.5t-18 63.5q0 69 41 139t90 70q98 0 144.5 -37.5t46.5 -99.5q0 -74 -54 -159.5t-139.5 -145t-167.5 -59.5q-80 0 -80 20zM256 711q0 54 44.5 130.5t90.5 76.5q53 0 125 -45.5t72 -94.5q0 -46 -15 -96.5 t-50 -90.5t-81 -40q-64 0 -125 49.5t-61 110.5z" />
<glyph unicode="&#x3c;" horiz-adv-x="1173" d="M225 537q0 47 65 119.5t116 97.5q127 60 311 125t293 65q49 0 49 -59q0 -8 -4 -27.5t-4 -32.5q0 -19 14 -58.5t14 -53.5q0 -23 -28 -23q-92 0 -352 -54t-320 -87q142 -29 325.5 -89.5t276.5 -101.5q2 -10 2 -20q0 -23 -14 -23q-260 82 -711 177q-33 6 -33 45z" />
<glyph unicode="=" horiz-adv-x="688" d="M25 455q0 62 63 88q61 24 273 49.5t376 25.5q57 0 111.5 -45.5t54.5 -89.5q0 -57 -108 -57q-55 0 -104 -1t-85.5 -2t-85.5 -5t-73.5 -5.5t-82.5 -8.5t-81 -9.5t-99 -12l-108 -13.5q-26 0 -38.5 29.5t-12.5 56.5zM133 745q0 63 64 89q60 25 271 50t378 25 q57 0 111.5 -45.5t54.5 -87.5q0 -59 -109 -59q-62 0 -113 -1t-105 -4t-86 -5t-93.5 -9t-89 -10t-111 -13.5t-121.5 -15.5q-26 0 -38.5 29.5t-12.5 56.5z" />
<glyph unicode="&#x3e;" horiz-adv-x="1173" d="M-111 301q0 4 7.5 14t15.5 17l8 8q130 42 357 101.5t393 88.5q-33 33 -250.5 87.5t-310.5 54.5q-15 0 -15 16q0 12 9.5 41.5t9.5 36.5q0 13 -1 37t-1 35q0 37 12 56t47 19q77 0 214.5 -40t248.5 -86.5t145 -71.5q17 -21 33 -57t16 -72q0 -40 -22 -68q-2 -2 -10 -11.5 t-11 -12.5t-11 -9t-17 -8.5t-21 -3.5q-13 -3 -172 -33t-228.5 -44t-201.5 -43t-237 -56q-7 0 -7 4z" />
<glyph unicode="?" horiz-adv-x="800" d="M80 106q0 54 44.5 130.5t90.5 76.5q53 0 125 -45t72 -94q0 -46 -15 -96.5t-50 -90.5t-81 -40q-64 0 -125 49t-61 110zM258 461q0 47 34 105t87.5 116t119 120t131 123t119 117t87.5 111t34 98q0 25 -26 25q-43 0 -139.5 -45t-180.5 -111t-84 -114q0 -9 3 -29.5t3 -28.5 q0 -22 -23.5 -34.5t-47.5 -12.5q-26 0 -44.5 22.5t-26.5 57t-11.5 62t-3.5 49.5q0 97 63 196.5t156.5 171t201 117t195.5 45.5q124 0 184 -59.5t60 -163.5q0 -55 -10 -99q41 -69 41 -133q0 -58 -50.5 -125t-126 -125.5t-163.5 -122t-163.5 -116t-126 -105t-50.5 -90.5 q0 -15 17 -28t35 -19l17 -6q0 -48 -49.5 -80.5t-111.5 -32.5q-63 0 -106.5 36t-43.5 108z" />
<glyph unicode="@" horiz-adv-x="1382" d="M106 182q0 128 33.5 268.5t91 270.5t140 248.5t176 206t202.5 139t216 51.5q190 0 312 -126.5t122 -311.5q0 -119 -40 -262t-101.5 -268t-130.5 -231t-132 -168t-100 -62q-51 0 -88 45t-41 139l-48.5 -48.5t-55.5 -54.5t-48.5 -43.5t-50.5 -35.5t-39 -11q-63 0 -122.5 44 t-59.5 104q0 102 58 257.5t138.5 293t170 237t147.5 99.5q51 0 102.5 -48.5t51.5 -95.5q0 -32 -31 -63q61 -5 111.5 -43.5t50.5 -91.5q0 -35 -25 -70q-51 -68 -108 -162.5t-76 -148.5q-23 -65 -23 -95q0 -34 23 -34q38 0 92 69t101.5 170t81.5 229t34 234q0 91 -24.5 157.5 t-86 109t-157.5 42.5q-108 0 -221 -62t-207.5 -166t-170 -231.5t-118.5 -268t-43 -265.5q0 -123 69 -228.5t184 -166t245 -60.5q60 0 103.5 17.5t65 42t34.5 49t20 42t12 17.5q38 0 60 -25t22 -63q0 -73 -71.5 -133.5t-204.5 -60.5q-121 0 -239 49.5t-207.5 132.5 t-144.5 199t-55 241zM492 96q0 -26 20 -26q15 0 33 12q62 52 165 217t128 233q4 8 4 23q0 17 -10.5 29t-24.5 12q-33 0 -110 -101.5t-141 -224t-64 -174.5z" />
<glyph unicode="A" horiz-adv-x="1044" d="M-80 90q0 14 19 41q94 131 185 254.5t205 273.5t176.5 232t216 280t206.5 267q54 70 82.5 97.5t58.5 27.5q40 0 111 -56q18 -13 63 -22.5t84 -17t70.5 -36t32.5 -77.5q0 -14 -11 -25q-64 -67 -164.5 -292.5t-195.5 -523t-133 -529.5q-3 -18 -6 -28t-15 -19t-33 -9 q-47 0 -88 24t-41 64q2 24 10.5 93.5t18 144.5t10.5 80q0 13 -10.5 19.5t-40.5 6.5q-14 0 -146 -17.5t-159 -25.5q-35 -10 -90 -77t-128 -176t-85 -125q-2 -3 -7.5 -10.5t-9 -10.5t-10 -6.5t-14.5 -3.5q-52 0 -107 65t-55 117zM606 573q0 -17 31 -22q53 -8 186 -8l92 356 q0 23 -6 23q-15 0 -159 -164.5t-144 -184.5z" />
<glyph unicode="B" horiz-adv-x="1153" d="M-51 39q45 94 223 443t325.5 643.5t157.5 332.5q10 37 46 54.5t77 17.5q57 0 135 -43q110 47 211 47q213 0 293 -219q49 -55 49 -111t-44.5 -117.5t-108 -111.5t-147.5 -100.5t-146.5 -81t-122.5 -56.5l-2 -2q0 -8 6 -8q147 -14 219 -81.5t72 -166.5q0 -85 -51 -177.5 t-136.5 -169.5t-211 -127t-261.5 -50q-90 0 -171.5 27t-116.5 88q-46 -86 -66 -129q-18 -39 -47 -39q-41 0 -111.5 48t-70.5 89zM315 207q32 -25 88 -25q93 0 211 60.5t200.5 147t82.5 153.5q0 112 -233 112q-62 0 -86 17q-150 -253 -263 -465zM672 825q68 31 142.5 72 t158 96.5t137 118.5t53.5 117q0 23 -26.5 36t-71.5 13q-43 0 -96 -12q-162 -227 -297 -441z" />
<glyph unicode="C" horiz-adv-x="923" d="M29 141q0 116 50 271.5t130 310t183 307.5t206.5 269.5t203.5 189t171 72.5q74 0 118.5 -46.5t82.5 -140.5q10 -19 34.5 -49t40 -58.5t15.5 -62.5q0 -45 -29.5 -100.5t-76.5 -113.5t-97 -118t-100.5 -134.5t-77.5 -141.5q-11 -31 -35 -31q-26 0 -59 42t-55.5 96t-22.5 90 q5 41 36.5 98t66 100.5t62.5 79.5t29 41q0 10 -8 10q-35 0 -110.5 -73.5t-162 -189.5t-167.5 -245t-134 -256t-53 -206q0 -68 123 -68q136 0 295 59q22 11 43 11q22 0 43 -17.5t21 -38.5q0 -19 -25 -35q-313 -172 -489 -172q-252 0 -252 250z" />
<glyph unicode="D" horiz-adv-x="1101" d="M-61 10q115 175 235 418t204.5 452.5t138 356.5t65.5 193q10 37 46 54t77 17q21 0 58 -8t56 -8q79 0 195 33.5t145 33.5q138 0 205.5 -76.5t67.5 -209.5q0 -96 -33.5 -213.5t-96.5 -239.5t-148 -243t-194.5 -228t-229 -190t-258 -133t-275.5 -54l-29 -53q-18 -39 -47 -39 q-41 0 -111.5 48t-70.5 89zM285 125q106 27 212 97t192 162.5t161.5 202.5t126.5 218t80.5 207.5t29.5 173.5q0 98 -61 98q-65 0 -170 -102q-60 -87 -141.5 -231.5t-141.5 -260.5t-155 -304t-133 -261z" />
<glyph unicode="E" horiz-adv-x="843" d="M-2 127q0 42 29 92q267 483 410.5 809t148.5 442q0 28 49 35q64 12 266 18.5t313 6.5q44 0 76.5 -52t32.5 -112q0 -72 -47 -98q-30 0 -110 3t-103 3q-143 0 -170 -39q-44 -61 -145 -220t-101 -177q0 -33 37 -33q144 0 158 -2q26 -3 46.5 -42t20.5 -81q0 -35 -18 -60.5 t-55 -29.5q-96 -11 -185.5 -28.5t-131.5 -29.5l-42 -12q-25 -25 -82 -131t-57 -137q0 -25 51 -25q38 0 122 9.5t134 9.5q67 0 115.5 -51.5t48.5 -133.5q0 -51 -35 -51q-101 0 -249.5 -28.5t-235.5 -65.5q-18 -8 -70 -8q-37 0 -90.5 43t-92 95.5t-38.5 80.5z" />
<glyph unicode="F" horiz-adv-x="811" d="M0 59q0 25 14 60q25 58 252 536q-69 48 -69 142q0 30 28 30q17 0 119 -8q250 524 250 598q0 6 -4 26t-4 27q0 28 49 35q64 12 266 18.5t313 6.5q44 0 76.5 -52t32.5 -112q0 -72 -47 -98q-30 0 -110 3t-103 3q-103 0 -143 -31q-29 -36 -119 -181.5t-127 -223.5 q0 -33 37 -33q143 0 157 -2q26 -3 47 -42t21 -81q0 -35 -18.5 -60.5t-55.5 -29.5q-96 -11 -185.5 -28.5t-130.5 -29.5l-42 -12q-25 -25 -143.5 -254t-147.5 -309q-14 -41 -43 -41q-28 0 -99 57t-71 86z" />
<glyph unicode="G" horiz-adv-x="927" d="M51 272q0 117 40.5 261.5t108 285.5t160 275.5t192 236t208 163.5t203.5 62q89 0 110 -45q25 -51 70.5 -125t67.5 -122.5t22 -92.5q0 -46 -38.5 -118t-87 -137t-103 -144.5t-76.5 -130.5q-17 -41 -58 -41q-45 0 -91 43.5t-46 87.5q0 49 27 113.5t60 114.5t60 92.5 t27 52.5q0 20 -20 20q-41 0 -122 -70.5t-171.5 -183t-174 -237t-138 -248t-54.5 -201.5q0 -112 72 -112q43 0 98.5 38t94 89t38.5 86q0 23 -14.5 36.5t-35 20t-41.5 14.5t-35.5 28.5t-14.5 53.5q0 21 24 30.5t81 18.5q92 15 305 15q31 0 49 -2q49 -4 82 -55.5t33 -102.5 q0 -55 -39 -55q-45 0 -73.5 -6.5t-34.5 -13.5l-5 -7q-124 -160 -260.5 -248t-251.5 -88q-112 0 -180 88t-68 260z" />
<glyph unicode="H" horiz-adv-x="1093" d="M-43 10q45 95 223 444t326 643.5t158 332.5q10 37 45.5 54t76.5 17q40 0 98 -23.5t105 -64.5t47 -82q0 -25 -24 -53q-160 -182 -338 -492q-8 -11 -8 -22q0 -23 57 -23q175 0 219 70q68 105 121 201t131.5 249.5t116.5 225.5q9 17 16.5 27.5t23 20t35.5 9.5q32 0 52 -0.5 t59.5 -3t65.5 -8.5t53.5 -16t42 -27.5t14.5 -40.5t-31 -62q-183 -230 -354.5 -503t-286.5 -495.5t-204 -430.5q-12 -27 -35 -27q-28 0 -108.5 61t-80.5 93q0 17 9 35l190 379q6 12 6 22q0 19 -30 19q-36 0 -82.5 -11.5t-75.5 -22.5t-84 -34q-41 -55 -112 -179.5t-139 -251.5 t-69 -128q-18 -39 -47 -39q-41 0 -111.5 48t-70.5 89z" />
<glyph unicode="I" horiz-adv-x="651" d="M-129 -14q0 28 23 39q20 9 74 22.5t67 20.5q41 18 102 118q90 149 321.5 612.5t231.5 538.5q0 31 -106 31q-27 0 -27 25q0 29 33.5 57t87.5 29q94 2 237.5 9.5t247.5 14t111 6.5q31 0 31 -20q0 -25 -38.5 -59.5t-68.5 -34.5q-34 0 -66.5 -10t-46.5 -29 q-94 -102 -332 -545t-343 -672q-15 -26 -15 -37q0 -26 62 -26q16 0 52 2t38 2q33 0 33 -23q0 -27 -36.5 -63.5t-66.5 -36.5q-122 0 -342.5 -11.5t-224.5 -11.5q-39 0 -39 52z" />
<glyph unicode="J" horiz-adv-x="780" d="M25 84q0 87 38.5 202.5t108.5 268.5t88 201q11 32 68 32q54 0 107.5 -28.5t53.5 -63.5q0 -19 -18 -37q-47 -58 -142.5 -268.5t-95.5 -277.5q0 -29 17 -29q18 0 50.5 36.5t87 125.5t118.5 219q91 185 224.5 503t187.5 505q10 37 45.5 54t76.5 17q40 0 98 -23.5t105 -64.5 t47 -82q0 -25 -24 -53q-71 -106 -231.5 -395t-328 -576t-284.5 -436q-37 -47 -117 -47q-52 0 -115.5 26.5t-114 79t-50.5 111.5z" />
<glyph unicode="K" horiz-adv-x="921" d="M-70 39q45 95 223 443.5t326 643t158 332.5q10 37 46 54.5t77 17.5q40 0 98 -23.5t105 -64.5t47 -82q0 -24 -25 -53q-144 -166 -280 -404q-7 -10 -7 -14q0 -12 19 -12q33 0 173.5 128t268.5 259t187 198q49 49 90 49q81 0 154 -40t73 -99q0 -43 -55 -90 q-61 -43 -209.5 -145.5t-249.5 -174.5t-217 -158.5t-179.5 -148.5t-68.5 -94q-4 -28 -4 -45q0 -127 73.5 -283.5t139.5 -183.5q39 -14 39 -26q0 -33 -74.5 -63t-124.5 -30q-44 0 -80 18t-60 44t-43 70t-29.5 82.5t-18.5 95.5t-11 94t-6 92q-2 18 -18 18q-27 0 -70 -70.5 t-114.5 -210t-122.5 -222.5q-18 -39 -47 -39q-41 0 -112 48t-71 89z" />
<glyph unicode="L" horiz-adv-x="724" d="M-8 109q0 50 20 94q43 86 228.5 448.5t287 567.5t109.5 239q10 37 46 54.5t77 17.5q40 0 98 -23.5t105 -64.5t47 -82q0 -24 -25 -53q-169 -228 -412 -608t-243 -447q0 -21 41 -21q24 0 124 -3t107 -3q39 0 71 -75t32 -117q0 -23 -17 -23q-105 0 -289 -27t-286 -81 q-42 0 -81.5 65.5t-39.5 141.5z" />
<glyph unicode="M" horiz-adv-x="1286" d="M-66 39q111 223 300 593t293 578.5t114 247.5q10 37 46 54.5t77 17.5q80 0 158.5 -49.5t78.5 -120.5q0 -26 -12 -53l-182 -613q83 98 292.5 410t291.5 440q18 33 51 33q96 0 175 -72t79 -125q0 -11 -1.5 -18t-4 -12.5t-13 -24.5t-20.5 -39q-249 -483 -356 -741.5 t-193 -579.5q0 -24 -13 -37.5t-27 -15.5l-13 -2q-43 0 -114 59.5t-71 100.5q1 15 47 143t139 380t144 392q-80 -127 -195 -324.5t-199.5 -345t-98.5 -168.5q-14 -22 -39 -22q-49 0 -109.5 77.5t-60.5 123.5l159 534q-151 -239 -293.5 -507t-203.5 -412q-17 -39 -47 -39 q-41 0 -110 48t-69 89z" />
<glyph unicode="N" horiz-adv-x="1005" d="M-70 39q45 95 223 443.5t326 643t158 332.5q10 37 46 54.5t77 17.5q40 0 98 -23.5t105 -64.5t47 -82q0 -13 -11.5 -30t-13.5 -23q-15 -47 -46 -140.5t-39.5 -119t-30 -92.5t-26.5 -86.5t-19.5 -73t-20 -80.5l-16.5 -81t-19 -102.5t-20 -117.5q73 161 251.5 597t239.5 562 q10 37 46 54.5t77 17.5q40 0 98 -23.5t105 -64.5t47 -82q0 -25 -25 -54q-481 -604 -801 -1374q-27 -67 -73 -67q-31 0 -67.5 27t-86.5 77q-33 31 -33 102q0 100 41 389q-4 11 -16 11q-27 0 -90.5 -105.5t-158 -283t-142.5 -256.5q-18 -39 -47 -39q-41 0 -112 48t-71 89z" />
<glyph unicode="O" horiz-adv-x="933" d="M2 305q0 94 38.5 227t101 271t147 275t172 243.5t180.5 173t168 66.5q67 0 127.5 -40.5t91.5 -111.5q44 -13 66.5 -21.5t54 -25.5t46.5 -36.5t26.5 -51.5t11.5 -74q0 -66 -38 -188t-100.5 -265.5t-150 -293.5t-180 -272t-197 -199.5t-194.5 -77.5q-51 0 -99 26 q-272 74 -272 375zM248 231q0 -63 21 -102t59 -39q69 0 157.5 89t167.5 223t147.5 279t109 268t40.5 179q0 13 -2.5 28.5t-8.5 33.5t-18.5 29.5t-29.5 11.5q-79 0 -193 -120.5t-212 -283t-168 -332.5t-70 -264z" />
<glyph unicode="P" horiz-adv-x="1019" d="M-20 39q47 99 222 445t323 641.5t161 332.5q25 82 94 82q20 0 60.5 -8t58.5 -8q30 0 112.5 21.5t129.5 21.5q80 0 142.5 -35t119.5 -111q125 -116 125 -233q0 -74 -51.5 -151t-129 -140.5t-189 -134t-211 -124t-216 -118.5t-184.5 -110q-12 -9 -19 -9q-14 0 -24.5 18.5 t-11.5 18.5q-20 0 -31 -20q-29 -43 -114 -216.5t-138 -260.5q-18 -39 -47 -39q-41 0 -111.5 48t-70.5 89zM645 713q0 -17 8 -17q7 0 9 2q5 4 74 52t107.5 76t111.5 83t119 95.5t95.5 88t74 86.5t24.5 68q0 37 -78 37q-119 0 -240 -72q-74 -103 -189.5 -284t-115.5 -215z" />
<glyph unicode="Q" horiz-adv-x="933" d="M2 305q0 149 67 337t169 355.5t222.5 309.5t227.5 213q56 41 121 41q67 0 127.5 -40.5t91.5 -111.5q44 -13 66.5 -21.5t54 -25.5t46.5 -36.5t26.5 -51.5t11.5 -74q0 -106 -85 -326.5t-231 -465.5t-292 -379q18 -126 18 -179q0 -55 -35 -55q-22 0 -44.5 20.5t-22.5 39.5 q0 39 -17 98q-81 -49 -151 -49q-51 0 -99 26q-272 74 -272 375zM248 231q0 -63 21 -102t59 -39q56 0 125 60q-49 102 -84 149q-4 4 -11 4q-3 0 -8.5 -1t-7.5 -1q-8 0 -8 6q0 33 55 105.5t86 89.5q4 2 10 2q22 0 42.5 -38.5t27.5 -68.5l25 -106q136 189 253 461t117 376 q0 13 -2.5 28.5t-8.5 33.5t-18.5 29.5t-29.5 11.5q-79 0 -193 -120.5t-212 -283t-168 -332.5t-70 -264z" />
<glyph unicode="R" horiz-adv-x="1058" d="M-55 39q47 99 222 445t323 641.5t161 332.5q25 82 94 82q20 0 60.5 -8t58.5 -8q30 0 112.5 21.5t129.5 21.5q80 0 142.5 -35t119.5 -111q77 -67 102 -125t25 -139q0 -68 -54 -137t-143 -131t-180.5 -115.5t-191 -112.5t-150.5 -100q-37 -37 -37 -76q0 -76 62.5 -229 t126.5 -180q39 -14 39 -27q0 -24 -56.5 -55t-83.5 -31q-64 0 -124 46.5t-104 120.5t-75 148.5t-51 147.5q-3 12 -16 12q-20 0 -31 -20q-29 -43 -114 -216.5t-138 -260.5q-18 -39 -47 -39q-41 0 -111.5 48t-70.5 89zM610 713q0 -17 8 -17q7 0 9 2q519 372 598 521q8 13 8 28 q0 37 -78 37q-119 0 -240 -72q-74 -103 -189.5 -284t-115.5 -215z" />
<glyph unicode="S" horiz-adv-x="886" d="M0 270q0 30 19 63.5t47 33.5q16 0 32 -19q182 -203 332 -203q82 0 82 50q0 36 -32.5 117.5t-72 165.5t-72 191.5t-32.5 190.5q0 69 39 163t108.5 189t155 176.5t189.5 133t200 51.5q134 0 164 -111q52 -30 94.5 -103.5t42.5 -137.5q0 -40 -18 -76q-13 -22 -58.5 -92 t-128 -188t-153.5 -210q-20 -26 -41 -26q-35 0 -80 59t-45 98q0 27 16 56q10 17 82.5 145.5t90.5 157.5q6 9 6 16q0 8 -11 8q-60 0 -150.5 -64t-160.5 -161t-70 -176q0 -54 32.5 -130t71 -142.5t71 -156t32.5 -167.5q0 -122 -82.5 -183t-210.5 -61q-112 0 -224 42.5 t-188.5 123t-76.5 176.5z" />
<glyph unicode="T" horiz-adv-x="489" d="M4 47q0 24 14 59q40 93 248 532.5t283 606.5q-63 -2 -143 -2q-44 0 -114.5 64t-70.5 106q0 6 4 14q24 42 318.5 72.5t646.5 30.5q46 0 80.5 -50.5t34.5 -107.5q0 -62 -45 -88q-30 -3 -125 -4.5t-159 -9t-81 -27.5q-96 -116 -223.5 -351.5t-269 -521.5t-214.5 -413 q-21 -41 -43 -41q-28 0 -84.5 50.5t-56.5 80.5z" />
<glyph unicode="U" horiz-adv-x="940" d="M55 201q0 134 50 298t114 294q55 113 144 288.5t131.5 262t46.5 106.5q10 37 46 54.5t77 17.5q40 0 97.5 -23.5t104.5 -64.5t47 -82q0 -26 -24 -54q-258 -342 -391 -565q-96 -161 -153.5 -308.5t-57.5 -227.5q0 -99 39 -99q41 0 90 41.5t99 115t88 137t83.5 147.5 t58.5 106q77 131 233.5 473t217.5 457q9 17 16.5 27.5t23.5 20t36 9.5q35 0 71.5 -4t82 -14t74 -34.5t28.5 -59.5q0 -28 -31 -62q-45 -51 -159 -226.5t-242.5 -393.5t-226 -437t-97.5 -325q0 -21 4 -46t8 -40l4 -15q-7 0 -19.5 1t-43.5 8.5t-55.5 19.5t-45 36.5t-22.5 57.5 q-58 -69 -152.5 -116.5t-181.5 -47.5q-96 0 -154.5 64t-58.5 203z" />
<glyph unicode="V" horiz-adv-x="753" d="M-2 147q0 23 2 35q19 140 69 304t102 295t110 309.5t88 334.5q10 37 46 54.5t77 17.5q67 0 145 -45.5t78 -105.5q0 -25 -25 -54q-45 -61 -95.5 -158.5t-102.5 -225t-84.5 -211t-78 -210.5t-46.5 -129q-2 -6 -2 -12q0 -14 12 -14q14 0 29 12q104 134 405.5 611t380.5 587 q24 51 100 51q72 0 148 -57.5t76 -130.5q0 -33 -33 -59q-121 -107 -241.5 -242t-212.5 -258t-187 -265.5t-156.5 -245t-131 -218.5t-101.5 -166q-53 -82 -93 -82q-22 0 -44 20.5t-52 63.5q-77 6 -129.5 57.5t-52.5 136.5z" />
<glyph unicode="W" horiz-adv-x="1214" d="M4 117q0 70 56.5 230.5t129.5 329.5t159 387.5t130 369.5q11 37 47.5 54t77.5 17q67 0 145 -45.5t78 -105.5q0 -26 -24 -54q-112 -151 -292.5 -483t-227.5 -459q-2 -6 -2 -12q0 -14 12 -14q14 0 29 12q102 133 311 473.5t291 454.5q31 39 71 39q56 0 107 -58.5t51 -109.5 q0 -33 -31 -58q-64 -94 -119 -204t-81 -177.5t-57.5 -160.5t-35.5 -103q-2 -6 -2 -12q0 -14 13 -14t28 12q104 134 406 611t381 587q24 51 100 51q69 0 126.5 -53.5t57.5 -128.5q0 -34 -32 -59q-121 -107 -238.5 -242t-206 -260t-177 -265.5t-148.5 -248t-123 -219 t-99 -166.5q-11 -14 -44.5 -23.5t-73.5 -9.5q-78 0 -136.5 33t-58.5 102q20 194 111 488q-89 -120 -226 -359t-184 -313q-42 -62 -98 -62q-70 0 -135.5 76.5t-65.5 151.5z" />
<glyph unicode="X" horiz-adv-x="954" d="M0 61q0 16 4 30.5t8 20.5l4 7q147 179 482 524q-13 191 -13 424q0 228 11 346q3 32 54 49t124 17q82 0 149.5 -19t67.5 -47q0 -7 -17 -45q-66 -149 -92 -430q248 254 615 621q13 8 41 8q52 0 103.5 -35t51.5 -76q0 -25 -22 -47q-253 -253 -807 -854v-47q0 -388 119 -451 q24 -12 24 -30q0 -33 -72 -70t-108 -37q-130 0 -195 383l-81 -96q-63 -73 -121.5 -161t-88 -123.5t-61.5 -35.5q-53 0 -108.5 42.5t-67.5 97.5q-4 12 -4 34z" />
<glyph unicode="Y" horiz-adv-x="598" d="M-10 84q0 19 8 35q12 22 147 235.5t142 237.5v47q0 54 -4 151.5t-8 177.5t-12.5 231t-12.5 220q11 74 98 74q73 0 143 -49.5t70 -112.5l-20 -108q-5 -33 -18 -107q-20 -122 -25 -151q14 0 35 21.5t35 43.5l14 21q55 83 131 210t125 226q9 17 16.5 27.5t23 20t35.5 9.5 q30 0 76.5 -10t95.5 -27.5t84 -48t35 -65.5q0 -25 -30 -62q-135 -154 -257 -308.5t-204.5 -269.5t-168.5 -247.5t-131 -207.5t-110.5 -188t-89.5 -153q-12 -27 -35 -27q-28 0 -108 60.5t-80 93.5z" />
<glyph unicode="Z" horiz-adv-x="829" d="M-59 121q0 24 39 69q147 178 376 427.5t363.5 399t134.5 173.5q0 1 -1 3t-1 3q-11 25 -86 25q-60 0 -176 -23.5t-129 -23.5q-51 0 -51 36q0 34 62 132t97 104q11 2 130 23.5t225 36t182 14.5q71 0 114 -37t44 -117q0 -11 27.5 -66t27.5 -86q0 -35 -66 -98 q-26 -25 -244 -231t-404.5 -384.5t-213.5 -209.5q-37 -42 -37 -62t41 -20q24 0 124.5 -3t107.5 -3q39 0 70.5 -75.5t31.5 -117.5q0 -22 -16 -22q-295 0 -547 -80q-36 0 -49 16q-28 26 -89 88.5t-75 79.5q-12 12 -12 29z" />
<glyph unicode="[" horiz-adv-x="546" d="M-82 -53q0 65 70 180q50 83 353 667t372 722q21 42 40.5 62.5t63.5 34t119 13.5q74 0 120.5 -0.5t59 -1.5t21 -1.5t14.5 -0.5q35 0 35 -25t-29 -59.5t-57 -34.5h-48t-52.5 -0.5t-44 -2.5t-38 -6.5t-20.5 -12.5q-64 -70 -231 -382t-304.5 -591.5t-205.5 -427.5 q-15 -26 -15 -37q0 -27 62 -27q16 0 104 2t90 2q33 0 33 -22q0 -27 -36 -63.5t-66 -36.5q-122 0 -232 -5.5t-114 -5.5q-64 0 -64 60z" />
<glyph unicode="\" horiz-adv-x="485" d="M213 -242q24 204 43.5 588.5t19.5 726.5q0 474 -38 633q3 15 25.5 24t51.5 9q37 0 61.5 -16.5t24.5 -51.5q-9 -201 -27.5 -646t-34 -789t-26.5 -547q0 -23 -18 -23q-22 0 -52 32.5t-30 59.5z" />
<glyph unicode="]" horiz-adv-x="360" d="M-186 -84q0 25 29 59.5t57 34.5q15 0 48 0.5t52.5 1t43.5 2.5t38 6.5t20 12.5q64 70 231.5 381.5t305.5 592t205 427.5q14 24 14 36q0 27 -61 27q-16 0 -104.5 -2t-90.5 -2q-33 0 -33 23q0 27 36.5 63.5t66.5 36.5q122 0 232 5t114 5q63 0 63 -59q0 -68 -69 -181 q-50 -83 -353.5 -667.5t-371.5 -720.5q-21 -42 -41 -63t-64 -34.5t-119 -13.5q-74 0 -120.5 0.5t-59 1.5t-21 1.5t-14.5 0.5q-34 0 -34 25z" />
<glyph unicode="_" horiz-adv-x="1220" d="M-31 -117q0 35 58 49q83 20 362.5 35t534.5 15q73 0 154 -38.5t81 -72.5q0 -43 -141 -43h-225q-192 0 -322.5 -4.5t-386.5 -22.5q-49 4 -82 29t-33 53z" />
<glyph unicode="`" d="M373 1139q0 48 36.5 80t100.5 32q26 0 47 -32.5t36 -74.5t52 -88t90 -67q29 -12 29 -22q0 -19 -78 -19q-149 0 -231 59t-82 132z" />
<glyph unicode="a" horiz-adv-x="794" d="M-27 76q0 102 58 257.5t138.5 293t170 237t147.5 99.5q14 0 35 -9q41 -16 80 -55t39 -80q0 -32 -31 -63q61 -5 111.5 -43.5t50.5 -91.5q0 -37 -24 -70q-52 -69 -109 -163t-76 -148q-22 -62 -22 -95q0 -34 22 -34q21 0 49 28q9 8 34 36.5t71.5 83t75.5 87.5 q45 52 157.5 190.5t139.5 176.5q9 12 16 12q8 0 16 -9.5t12 -19.5l3 -10q-89 -143 -293 -418q-59 -81 -91 -123t-80.5 -99t-84 -83t-62.5 -26q-51 0 -88 45t-41 139q-14 -14 -48.5 -49t-54.5 -54t-48.5 -43t-50.5 -35.5t-39 -11.5q-63 0 -123 44t-60 104zM123 96 q0 -26 20 -26q15 0 33 12q62 52 165 217t128 233q4 8 4 23q0 17 -10.5 29t-24.5 12q-33 0 -110 -101.5t-141 -224t-64 -174.5z" />
<glyph unicode="b" horiz-adv-x="692" d="M16 186q0 81 80 267t178 367t196 364t120 241t98 58q48 0 105 -48t57 -98q0 -28 -14 -49q-17 -25 -102.5 -152.5t-144 -216.5t-146 -232t-142.5 -247t-96 -210.5t-41 -170.5q0 -30 24 -30q36 0 113 110t154 256q-9 43 -9 94q0 124 46.5 250.5t89.5 126.5q74 0 126 -49 t52 -104q0 -28 -40.5 -115t-103.5 -192h5q100 0 192 106q24 28 64.5 73.5t69.5 79t40 48.5q9 12 17 12t15.5 -9.5t10.5 -19.5l4 -10q-67 -107 -157 -235q-60 -85 -138 -128.5t-153 -43.5q-24 0 -45 6q-102 -155 -202 -257t-171 -102q-73 0 -112.5 65t-39.5 195z" />
<glyph unicode="c" horiz-adv-x="702" d="M0 182q0 85 46.5 200t117 222t152 201t151.5 147q29 23 65 23q78 0 131.5 -43.5t53.5 -116.5q0 -29 25.5 -62t25.5 -48q0 -16 -14 -33q-42 -49 -112.5 -161t-90.5 -187q-6 -19 -27 -19q-32 0 -76.5 40t-44.5 69q0 9 11.5 34t11.5 29q0 19 -16 19q-33 0 -86.5 -82.5 t-93.5 -180t-40 -141.5q0 -53 70 -53q174 0 440 307q45 52 157.5 190.5t139.5 176.5q9 12 17 12t15.5 -9.5t10.5 -19.5l4 -10q-80 -129 -292 -418q-273 -374 -486 -374q-36 0 -81.5 21.5t-87 58t-69.5 92.5t-28 116z" />
<glyph unicode="d" horiz-adv-x="804" d="M-20 76q0 113 54 256t130.5 264t151.5 215.5t126 134.5q33 17 52 17q41 0 81.5 -32t69.5 -75q126 268 250 569q22 58 98 58q48 0 105 -48t57 -98q0 -28 -14 -49q-107 -142 -249 -392t-243.5 -469.5t-101.5 -281.5q0 -34 22 -34q21 0 49 28q9 8 34 36.5t71.5 83t75.5 87.5 q45 52 157.5 190.5t139.5 176.5q9 12 16 12q8 0 16 -9.5t12 -19.5l3 -10q-89 -143 -293 -418q-59 -81 -91 -123t-80.5 -99t-84 -83t-62.5 -26q-51 0 -88 45t-41 139q-14 -14 -48.5 -49t-54.5 -54t-48.5 -43t-50.5 -35.5t-39 -11.5q-63 0 -122.5 44t-59.5 104zM129 96 q0 -26 21 -26q14 0 32 12q48 39 135 167.5t154 248.5l47 96q4 12 4 18q0 17 -10.5 30t-24.5 13q-32 0 -120 -116.5t-163 -253.5t-75 -189z" />
<glyph unicode="e" horiz-adv-x="704" d="M10 184q0 112 49.5 248.5t123.5 249.5t167 189.5t174 76.5q30 0 52.5 -27.5t45 -66.5t46.5 -55q7 -5 34 -18.5t41.5 -24t28.5 -37t14 -62.5q0 -45 -112.5 -141.5t-244.5 -183t-230 -137.5q-6 -43 -6 -84q0 -72 65 -72q174 0 440 307q45 52 157.5 190.5t139.5 176.5 q9 12 17 12t15.5 -9.5t10.5 -19.5l4 -10q-80 -129 -292 -418q-110 -150 -241.5 -253t-225.5 -103q-30 0 -75.5 21t-90 56t-76 87.5t-31.5 107.5zM233 313q89 60 156 117.5t108 106.5t63 82t40 69q-12 4 -20 4q-104 -25 -200 -133t-147 -246z" />
<glyph unicode="f" horiz-adv-x="569" d="M-242 -387q0 121 113.5 387.5t250 519t283 520t181.5 344.5q25 58 98 58q48 0 105 -48t57 -98q0 -26 -15 -49q-20 -30 -97 -129t-147.5 -191t-129 -188.5t-58.5 -140.5q0 -22 17 -31.5t37.5 -11.5t37.5 -19t17 -51q0 -48 -16.5 -101.5t-16.5 -57.5q0 -25 14 -25 q17 0 29 7.5t43 37.5q42 42 150 177.5t147 189.5q9 12 16 12q8 0 16 -9.5t12 -19.5l3 -10q-138 -220 -293 -418q-76 -97 -121.5 -131.5t-95.5 -34.5q-35 -118 -160.5 -340.5t-199.5 -308.5q-39 -47 -72 -47t-91.5 44.5t-90.5 82.5q-23 26 -23 80zM-53 -365q0 -16 12 -16 q36 0 113.5 115t140.5 250t63 188q-5 5 -13 15t-21 43t-13 69q-72 -102 -177 -329t-105 -335z" />
<glyph unicode="g" horiz-adv-x="706" d="M-252 -387q0 73 51.5 131.5t124.5 58.5q4 0 4 -4q-14 -35 -14 -78q0 -60 25 -103.5t63 -43.5q58 0 109 107q94 196 170 376q-90 -75 -179 -75q-55 0 -90 28t-35 66q0 102 54 258.5t128.5 296t160 240t143.5 100.5q59 0 117.5 -46.5t58.5 -103.5q0 -34 -25 -65 q61 -5 110.5 -43t49.5 -92q0 -36 -22 -70q-193 -296 -447 -850q-49 -111 -133.5 -190.5t-173.5 -79.5q-126 0 -188 52.5t-62 129.5zM143 137q0 -7 11.5 -13.5t31.5 -6.5q62 0 152 76q34 83 85.5 213.5t68.5 171.5q6 27 6 43q0 24 -15 24q-40 0 -123 -98t-150 -222t-67 -188z " />
<glyph unicode="h" horiz-adv-x="763" d="M-72 51q0 14 6 29q391 734 639 1345q22 58 99 58q48 0 105 -48t57 -98q0 -27 -15 -49q-66 -87 -207.5 -323.5t-197.5 -339.5q-19 -36 -19 -50t13 -14t32 19l11 10q43 46 62.5 67t52.5 54t54 50t35 23q63 -5 112.5 -35.5t49.5 -78.5q0 -33 -24 -66q-79 -103 -163.5 -234.5 t-84.5 -170.5q0 -35 22 -35q20 0 49 29q58 52 146 153q45 52 157.5 190.5t139.5 176.5q9 12 16 12q8 0 15.5 -9.5t11.5 -19.5l4 -10q-89 -143 -293 -418q-52 -73 -108 -137.5t-123.5 -119t-112.5 -54.5q-86 0 -86 197q0 28 16.5 90t32.5 110l17 47q-13 0 -60.5 -44 t-79.5 -89q-31 -40 -90.5 -144t-83.5 -169q-11 -27 -20.5 -36t-30.5 -9q-33 0 -94.5 44t-61.5 97z" />
<glyph unicode="i" d="M27 197q0 59 35.5 160t100.5 249t85 201q22 57 98 57q49 0 101.5 -43.5t52.5 -93.5q0 -27 -15 -49q-108 -161 -196 -326t-88 -198t18 -33q5 0 14 6q29 20 91.5 79.5t124.5 139.5q44 51 156 190t140 177q9 12 17 12t16 -9.5t12 -19.5l3 -10q-68 -109 -293 -418 q-164 -223 -258 -303q-25 -22 -56 -22q-60 0 -109.5 88t-49.5 166zM377 1053q0 57 53.5 123.5t110.5 66.5q64 0 112.5 -50t48.5 -95q0 -43 -45 -109.5t-84 -66.5q-56 0 -126 43t-70 88z" />
<glyph unicode="j" horiz-adv-x="428" d="M-543 -465q0 33 14 55.5t33 22.5q4 0 16.5 -21t35 -42t49.5 -21q25 0 35 10q73 68 206.5 319.5t251.5 525t168 435.5q8 21 25 31.5t30 12t37 1.5q52 0 105 -43.5t53 -93.5q0 -28 -14 -49q-17 -19 -119 -210t-156 -298q-286 -576 -354 -698q-29 -53 -68 -81t-75 -28 q-37 0 -81 10t-88.5 29t-74 54t-29.5 79zM371 1038q0 58 53.5 124.5t110.5 66.5q64 0 112.5 -50.5t48.5 -95.5q0 -43 -45 -109.5t-84 -66.5q-56 0 -126 43t-70 88z" />
<glyph unicode="k" horiz-adv-x="743" d="M-82 51q0 14 6 29q391 734 639 1345q22 58 99 58q48 0 104.5 -48t56.5 -98q0 -28 -14 -49q-44 -75 -180 -290t-213 -363q87 104 162 182q31 34 73.5 53t83.5 19q62 0 104 -39t42 -109q0 -54 -96.5 -144t-219 -168.5t-223.5 -125.5q19 -162 109 -162q94 0 286 205 q42 45 153.5 183.5t143.5 183.5q9 12 17 12t15.5 -9.5t11.5 -19.5l3 -10q-117 -188 -293 -418q-117 -157 -198 -243q-66 -72 -131 -72q-40 0 -77.5 26t-66.5 69.5t-50 89t-36 93.5q-53 -126 -104 -276q-11 -27 -20.5 -36t-30.5 -9q-33 0 -94.5 44t-61.5 97zM336 395 q108 62 231 175.5t123 156.5q0 16 -24 16q-20 0 -102 -76t-155 -155t-73 -88v-29z" />
<glyph unicode="l" horiz-adv-x="456" d="M16 186q0 81 80 267t178 367t196 364t120 241t98 58q48 0 105 -48t57 -98q0 -28 -14 -49q-472 -714 -627 -1091q-8 -24 -8 -43q0 -33 18 -33q5 0 14 6q29 20 91.5 79.5t124.5 139.5q44 51 156 190t140 177q9 12 17 12t16 -9.5t12 -19.5l3 -10q-68 -109 -293 -418 q-164 -223 -258 -303q-27 -24 -60 -24q-62 0 -114 84t-52 161z" />
<glyph unicode="m" horiz-adv-x="1187" d="M-16 78q0 55 49.5 197t118.5 290t151.5 262.5t138.5 114.5q42 0 92 -39.5t50 -83.5q0 -38 -41 -71q-43 -36 -147.5 -173.5t-104.5 -162.5q0 -6 4 -6q18 0 92.5 75.5t166 172t134.5 128.5q20 13 33 13q38 0 68 -50t30 -102q0 -32 -10 -47q-49 -88 -49 -94t6 -6q12 0 31 8 q60 74 89.5 110t79.5 93.5t81.5 87t50.5 36.5q61 -5 111.5 -43.5t50.5 -91.5q0 -34 -25 -69q-16 -21 -80 -100t-108 -139.5t-56 -94.5q-22 -62 -22 -94q0 -35 22 -35q20 0 49 29q58 52 146 153q45 52 157.5 190.5t139.5 176.5q9 12 16 12q8 0 15.5 -9.5t11.5 -19.5l4 -10 q-89 -143 -293 -418q-89 -144 -173.5 -214t-150.5 -70q-58 0 -92.5 50t-34.5 134q0 101 50 215l-2 2q-4 0 -16 -10.5t-33 -38.5t-46 -68.5t-58.5 -108t-66.5 -149.5q-11 -33 -61 -33q-48 0 -92.5 29t-44.5 68q0 58 33 142t65 139l33 55q-6 6 -17 6q-40 0 -120.5 -98 t-147 -208t-84.5 -161q-14 -41 -49 -41q-41 0 -93 53.5t-52 116.5z" />
<glyph unicode="n" horiz-adv-x="860" d="M-39 80q0 55 53.5 196.5t126.5 289.5t159 262t142 114q42 0 92 -39.5t50 -83.5q0 -38 -41 -71q-43 -36 -147.5 -173.5t-104.5 -162.5q0 -6 4 -6q18 0 103.5 93t181 194t131.5 116q61 -5 111 -43.5t50 -91.5q0 -37 -24 -70q-51 -68 -108 -162.5t-76 -148.5 q-23 -65 -23 -94q0 -35 23 -35q10 0 23 6.5t28.5 20.5t29.5 27t32.5 33.5t29.5 33.5t28.5 34l22.5 27q45 52 157.5 190.5t139.5 176.5q9 12 16 12q8 0 15.5 -9.5t11.5 -19.5l4 -10q-89 -143 -293 -418q-78 -107 -176 -194.5t-166 -87.5q-100 0 -100 211q0 58 9.5 104 t19.5 63l10 17q-21 0 -69 -38t-87 -87q-54 -65 -101 -150t-71 -157q-14 -41 -49 -41q-43 0 -105.5 54.5t-62.5 117.5z" />
<glyph unicode="o" horiz-adv-x="671" d="M-35 133q0 109 51 257t122.5 272.5t153 212.5t138.5 88q21 0 41 -16.5t45 -42t45 -38.5q74 0 126 -49t52 -104q0 -28 -40.5 -115.5t-102.5 -191.5h4q101 0 193 106q24 28 64.5 73.5t69.5 79t40 48.5q9 12 16 12q8 0 15.5 -9.5t11.5 -19.5l4 -10q-59 -94 -158 -235 q-60 -85 -138 -128.5t-153 -43.5q-31 0 -45 4q-104 -156 -203 -256.5t-170 -100.5q-182 0 -182 207zM109 66q0 -27 20 -27q40 0 123.5 107t144.5 229q-16 37 -16 78q0 72 39 149h-6q-33 0 -85 -51.5t-100.5 -127.5t-84 -174.5t-35.5 -182.5z" />
<glyph unicode="p" horiz-adv-x="724" d="M-309 -451q0 14 6 29q389 731 639 1346q22 57 98 57q46 0 88.5 -44.5t42.5 -96.5q0 -11 -4 -23q106 25 148 25q106 0 106 -109q0 -64 -32 -161.5t-87.5 -199.5t-121 -192.5t-141.5 -148.5t-140 -58q-82 0 -137 93q-106 -220 -260 -613q-9 -26 -19 -35.5t-31 -9.5 q-33 0 -94 44t-61 97zM201 160q34 -37 73 -37q33 0 101.5 89t125 203t56.5 175q0 49 -41 49q-22 0 -57 -6q-165 -285 -258 -473z" />
<glyph unicode="q" horiz-adv-x="720" d="M-12 152q0 109 58 256.5t136 269t158 207.5t123 86q45 0 94 -30.5t70 -74.5q0 1 26 64q22 57 99 57q48 0 98.5 -45t50.5 -96q0 -28 -14 -49q-253 -385 -412 -719q-31 -64 -31 -96q0 -13 7 -13q18 0 53 17.5t39 17.5q12 0 12 -18q0 -9 -2 -13q-20 -30 -107 -147 t-144.5 -209t-84.5 -170q-6 -18 -17 -28.5t-18 -11.5l-8 -1q-47 8 -91 28.5t-44 49.5q0 4 4 16q121 270 246 561q-84 -63 -162 -63q-62 0 -100.5 41.5t-38.5 112.5zM145 150q0 -44 41 -44q30 0 73 21t81 53q58 135 149 355l19 49q4 20 4 26q0 19 -9.5 27t-19.5 8 q-23 0 -79 -55t-113.5 -130.5t-101.5 -163.5t-44 -146z" />
<glyph unicode="r" horiz-adv-x="638" d="M98 449q0 19 25 51q12 14 52.5 67t57.5 74q-135 44 -135 141q0 83 97 156t225 74q69 0 69 -78q0 -27 -8.5 -59.5t-17 -53t-10.5 -20.5q20 -15 75.5 -33.5t93 -41t37.5 -56.5q0 -27 -26 -66q-6 -8 -44 -56.5t-61 -79.5t-60.5 -85t-59.5 -94t-39 -85t-17 -77q0 -35 23 -35 q20 0 49 29q20 18 89 90t124 135q45 52 157.5 190.5t139.5 176.5q9 12 16 12q8 0 16 -9.5t12 -19.5l3 -10q-89 -143 -293 -418q-39 -54 -90 -112.5t-112 -119t-124 -99.5t-108 -39q-96 0 -96 125q0 109 61.5 275.5t138.5 319.5q-34 3 -59 9q-60 -96 -139 -201q-11 -2 -21 -2 q-41 0 -41 25z" />
<glyph unicode="s" horiz-adv-x="602" d="M-45 121q0 16 5.5 27.5t14.5 11.5q6 0 21.5 -16.5t32.5 -36t44 -36t54 -16.5q46 0 67 34.5t21 80.5q0 49 -15.5 234t-15.5 241q0 83 52.5 162.5t134 127.5t164.5 48q122 0 192 -109q30 -15 48 -40.5t18 -53.5q0 -30 -25 -61q-37 -43 -87 -129t-71 -162q-6 -18 -26 -18 q-32 0 -76.5 39.5t-44.5 68.5q0 8 24.5 65t24.5 79q0 20 -18 20q-34 0 -71.5 -59.5t-37.5 -108.5q0 -78 9 -225.5t9 -220.5q0 -82 -36 -120t-97 -38q-84 0 -180.5 58t-128.5 122q-6 12 -6 31z" />
<glyph unicode="t" horiz-adv-x="491" d="M12 141q0 142 252 619q-86 29 -114.5 72.5t-28.5 103.5q0 31 29 31q14 0 91 -7t128 -8q144 261 180 351q22 57 98 57q48 0 105 -48t57 -98q0 -28 -14 -49q-22 -34 -48 -72t-60 -86.5t-52 -74.5q9 -7 28 -19.5t30 -21t24 -20t19.5 -22.5t6.5 -22q0 -27 -28 -30l-191 -23 q-251 -368 -336 -577q-10 -29 -10 -58q0 -33 23 -33q17 0 59 25q37 22 103.5 80.5t125.5 134.5q45 52 157.5 190.5t139.5 176.5q9 12 17 12t15.5 -9.5t11.5 -19.5l4 -10q-68 -109 -293 -418q-53 -72 -137.5 -165t-141.5 -138q-24 -18 -53 -18q-66 0 -131.5 63t-65.5 131z " />
<glyph unicode="u" horiz-adv-x="821" d="M14 141q0 67 16.5 150.5t46 171t53.5 151.5t56 140t37 90q10 25 51.5 38t94.5 13q60 0 102.5 -16.5t42.5 -47.5q0 -30 -38 -93.5t-92 -139t-107.5 -155t-91.5 -159.5t-38 -134q0 -70 37 -70q39 0 107.5 72t132.5 178q37 126 107 281t110 204q9 -1 23 -2.5t50.5 -9 t64 -18.5t50.5 -32t23 -48q0 -22 -23 -60q-93 -137 -173.5 -293.5t-80.5 -210.5q0 -20 15 -20q5 0 14 6q29 20 91 79.5t124 139.5q45 52 157.5 190.5t139.5 176.5q9 12 17 12t15.5 -9.5t11.5 -19.5l3 -10q-68 -109 -293 -418q-164 -223 -258 -303q-25 -22 -55 -22 q-52 0 -97.5 67t-58.5 144q-72 -87 -148 -142t-134 -55q-105 0 -105 184z" />
<glyph unicode="v" horiz-adv-x="692" d="M2 72q0 46 19.5 150t55 232t79 245t99 196.5t107.5 79.5q43 0 101.5 -39.5t58.5 -83.5q0 -10 -57 -97t-125 -194t-125 -243.5t-57 -233.5q0 -6 4 -6q32 0 127 102.5t164 235.5v28q0 88 38.5 187t103.5 169t132 70q57 0 57 -61q0 -115 -182 -397q12 -4 39 -4q85 0 172 104 q24 28 64.5 73.5t69.5 79t40 48.5q9 12 17 12t15.5 -9.5t10.5 -19.5l4 -10q-67 -107 -157 -235q-60 -85 -138 -128.5t-153 -43.5q-38 0 -66 14q-108 -148 -205.5 -249t-138.5 -101q-28 0 -66 12t-73 43.5t-35 73.5z" />
<glyph unicode="w" horiz-adv-x="1040" d="M-41 82q0 58 38 202t94 299t131.5 273.5t139.5 118.5q43 0 101.5 -39.5t58.5 -83.5q0 -13 -63 -97.5t-126 -187.5t-63 -161q0 -7 4 -7q14 0 65 64.5t106.5 143.5t115 151t88.5 84q107 -10 107 -74q0 -33 -33 -80q-58 -86 -88.5 -175t-30.5 -157q0 -45 13.5 -71.5 t39.5 -26.5q59 0 138 117q-21 56 -21 125q0 85 27.5 169.5t79 142.5t112.5 58q86 0 86 -108q0 -67 -34 -161.5t-91 -188.5q12 -4 35 -4q85 0 172 104q24 28 64.5 73.5t69.5 79t40 48.5q9 12 17 12t15.5 -9.5t10.5 -19.5l4 -10q-67 -107 -157 -235q-60 -85 -138 -128.5 t-153 -43.5q-32 0 -62 10q-225 -301 -340 -301q-122 0 -122 352q-85 -70 -157.5 -174.5t-105.5 -200.5q-14 -41 -49 -41q-41 0 -90 47.5t-49 110.5z" />
<glyph unicode="x" horiz-adv-x="708" d="M-96 -195q15 262 289 629q-39 207 -39 334q0 59 53 100t112 41q37 0 60.5 -18.5t23.5 -56.5q0 -12 -1 -59.5t-1 -80.5q136 161 203 248q11 14 25 14q59 0 98 -63t39 -127q0 -46 -49 -72q-47 -30 -133 -107.5t-176 -176.5q15 -283 84 -283q29 20 91 79.5t124 139.5 q45 52 157.5 190.5t139.5 176.5q9 12 16 12q8 0 16 -9.5t12 -19.5l3 -10q-68 -109 -293 -418q-164 -223 -258 -303q-21 -18 -49 -18q-122 0 -207 274q-216 -277 -250 -461q-1 -10 -9 -16t-18 -6q-22 0 -42.5 19.5t-20.5 47.5z" />
<glyph unicode="y" horiz-adv-x="747" d="M-12 45q0 67 20 160t55 196t63.5 179t65.5 165t41 99q10 25 50.5 38t93.5 13q59 0 102 -17t43 -47q0 -39 -58 -135.5t-146.5 -226t-120.5 -184.5q-54 -92 -54 -135q0 -35 31 -35q50 0 140.5 83.5t160.5 211.5q80 186 219 520q22 57 99 57q48 0 98.5 -45t50.5 -96 q0 -28 -14 -49q-86 -131 -150 -236.5t-158.5 -278t-186 -384.5t-175.5 -451q-6 -18 -17 -28.5t-19 -11.5l-7 -1q-39 7 -87 46t-48 75q0 6 4 18q98 197 246 533q-69 -63 -138.5 -101t-119.5 -38q-84 0 -84 106z" />
<glyph unicode="z" horiz-adv-x="692" d="M-111 -266q0 33 67 126.5t160 184t154 107.5q18 6 33 6q21 0 21 -11q0 -3 -9 -16q-10 -12 -42 -49t-51 -60t-50 -61t-50.5 -66.5t-39.5 -61t-29.5 -59.5t-9.5 -48q0 -17 10 -17q49 0 131 95.5t144.5 215.5t62.5 185q0 31 -67 31q-20 0 -51 -3.5t-35 -3.5q-31 0 -68 38.5 t-37 74.5q0 22 37 57q20 18 94.5 67.5t128 94t53.5 70.5q0 16 -22 16q-40 0 -115.5 -22.5t-109.5 -22.5q-56 0 -56 51q0 44 38 117t78.5 125.5t51.5 52.5q2 0 2 -6q0 -45 74 -45q66 0 163 18.5t138 18.5q60 0 85.5 -48t25.5 -118q0 -29 -11 -92q-4 -20 -104 -79t-206 -124 t-122 -96q65 10 101 10q174 0 174 -141q0 -87 -66 -214t-156.5 -236t-190.5 -187t-163 -78t-114.5 67.5t-51.5 135.5z" />
<glyph unicode="{" horiz-adv-x="380" d="M-23 -23q0 77 49 205t108 238.5t108 210.5t49 127q0 17 -9.5 24t-19.5 16t-10 31t96 56q88 33 299 440q40 77 85 134.5t84 89t80 51t69 25t55 5.5q4 0 11.5 -0.5t26 -2.5t33 -6t26 -13t11.5 -21q0 -14 -17 -26.5t-35 -18.5l-17 -6q-54 -14 -171.5 -165t-208.5 -295 l-91 -144q-22 -37 -68.5 -75t-82.5 -57l-36 -20q9 -21 9 -47q0 -65 -44.5 -190.5t-98 -241.5t-98 -231.5t-44.5 -163.5q0 -43 29 -92q16 -26 16 -39q0 -11 -11 -19t-30 -8q-12 0 -36 15.5t-50.5 42t-46 73t-19.5 98.5z" />
<glyph unicode="|" d="M168 -295q33 262 132.5 1017.5t125.5 954.5q0 29 20 43.5t50 14.5q36 0 67 -16t31 -36q-93 -213 -195 -890.5t-116 -1032.5q-2 -20 -37 -47.5t-60 -27.5q-18 0 -18 20z" />
<glyph unicode="}" horiz-adv-x="430" d="M-268 -209q0 14 17 26.5t35 18.5l17 6q34 9 104 92.5t146 196.5t147.5 225t117.5 190l46 77q22 37 68.5 75t82.5 57l36 19q-8 19 -8 47q0 69 30.5 168t66.5 181t66.5 168.5t30.5 134.5q0 45 -28 92q-17 27 -17 39q0 11 11 18.5t30 7.5q12 0 36 -15.5t50.5 -42t46 -73 t19.5 -98.5q0 -77 -35 -177.5t-77 -178t-77 -149.5t-35 -99q0 -17 9.5 -24.5t19.5 -16.5t10 -31q0 -21 -96 -55q-30 -12 -144 -188.5t-245 -428.5q-40 -77 -85 -134.5t-84 -89t-80 -51t-69 -25t-55 -5.5q-4 0 -11.5 0.5t-26 2.5t-33 6t-26 13t-11.5 21z" />
<glyph unicode="&#xa1;" horiz-adv-x="935" d="M137 -463q0 24 15 51q51 77 184 267.5t220.5 329t160.5 282.5q13 31 51 31q36 0 70 -29.5t34 -62.5q0 -15 -6 -27q-58 -101 -222.5 -498t-180.5 -459q-22 -57 -98 -57q-37 0 -89.5 21.5t-95.5 63.5t-43 87zM758 688q0 46 15 96.5t49.5 90.5t80.5 40q64 0 125.5 -49 t61.5 -110q0 -53 -45 -130t-91 -77q-53 0 -124.5 45t-71.5 94z" />
<glyph unicode="&#xa2;" horiz-adv-x="550" d="M260 424q0 6 6 18l133 258q-88 62 -88 158q0 56 59 177.5t142.5 225t140.5 103.5q33 0 60 -12q29 54 80 161q19 41 51 41q21 0 38 -17t17 -38q0 -13 -26 -52t-65.5 -92t-43.5 -59q6 -15 6 -34q0 -18 16.5 -40t16.5 -32q0 -11 -10 -21q-27 -31 -71.5 -102.5t-57.5 -118.5 q-3 -12 -17 -12q-20 0 -48 25.5t-28 44.5q0 4 6.5 20.5t6.5 20.5q0 10 -11 10q-20 0 -54.5 -52.5t-60.5 -115t-26 -90.5q0 -33 57 -33q41 0 94.5 15.5t82.5 35.5q12 10 20 10q4 0 4 -4q0 -14 -31 -49.5t-82.5 -68.5t-95.5 -33q-16 0 -26 2q-40 -85 -101 -225q-6 -15 -30 -27 t-43 -12q-21 0 -21 14z" />
<glyph unicode="&#xa3;" horiz-adv-x="702" d="M-8 109q0 50 20 94l185 366q-177 24 -177 70q0 31 29 31q16 0 83 -6.5t110 -8.5l26 52q-202 24 -202 73q0 31 28 31q15 0 91.5 -6.5t127.5 -7.5q309 605 324 661q10 37 46 54.5t77 17.5q40 0 98 -23.5t105 -64.5t47 -82q0 -24 -25 -53q-124 -164 -356 -519q28 0 68 -1 l40 -1q29 -3 51.5 -17.5t22.5 -31.5q0 -29 -70 -37q-51 -6 -174 -10l-28 -43q139 0 153 -2q28 -3 51 -18.5t23 -30.5q0 -27 -70 -35q-71 -10 -215 -10q-151 -249 -151 -299q0 -21 41 -21q24 0 124 -3t107 -3q39 0 71 -75t32 -117q0 -23 -17 -23q-105 0 -289 -27t-286 -81 q-42 0 -81.5 65.5t-39.5 141.5z" />
<glyph unicode="&#xa5;" horiz-adv-x="878" d="M72 639q0 31 28 31q14 0 107.5 -7.5t154.5 -7.5l13 45q-114 10 -186 30.5t-72 49.5q0 31 28 31q13 0 104.5 -7t151.5 -7q66 279 66 651q13 47 80 47q50 0 118 -25t68 -63q0 -70 -77 -294t-95 -296q309 411 502 678q13 33 63 33q46 0 94 -36.5t48 -84.5q0 -22 -21 -37 q-343 -403 -481 -584h22q29 -3 51.5 -17.5t22.5 -31.5q0 -29 -69 -37q-29 -4 -99 -8q-5 -6 -10.5 -14t-12 -17t-9.5 -14q22 0 52 -1l29 -1q28 -3 51 -18.5t23 -30.5q0 -27 -69 -35q-44 -6 -150 -10q-55 -87 -87.5 -160.5t-79 -203.5t-87.5 -230q-17 -41 -43 -41 q-30 0 -108 51.5t-78 79.5q0 31 14 59q136 262 203 453q-115 10 -187.5 30.5t-72.5 49.5z" />
<glyph unicode="&#xa7;" horiz-adv-x="903" d="M41 184q0 16 5.5 27.5t14.5 11.5q7 0 29 -26t55.5 -52t67.5 -26q46 0 67 34t21 80q0 49 -15.5 234.5t-15.5 241.5q0 115 93.5 213.5t211.5 119.5q-2 33 -2 88q0 83 52.5 162.5t134 127.5t164.5 48q122 0 192 -108q30 -15 48 -40.5t18 -53.5q0 -31 -25 -62 q-37 -43 -87 -129t-71 -162q-6 -18 -26 -18q-32 0 -76.5 40t-44.5 69q0 8 24.5 64.5t24.5 78.5q0 20 -18 20q-34 0 -71.5 -59.5t-37.5 -108.5q0 -78 9.5 -225.5t9.5 -220.5q0 -82 -36.5 -120t-97.5 -38q-93 0 -196 68q1 -71 13.5 -188t12.5 -144q0 -82 -36 -120t-97 -38 q-84 0 -180.5 58.5t-128.5 122.5q-6 12 -6 30zM465 555q20 -14 51 -14q46 0 67 34t21 80q0 43 -6 111q-119 -21 -133 -211z" />
<glyph unicode="&#xa8;" d="M172 1110q0 53 47 112.5t100 59.5q57 0 101.5 -45.5t44.5 -85.5t-41 -100t-76 -60q-51 0 -113.5 39t-62.5 80zM489 1059q0 51 48.5 111.5t99.5 60.5q58 0 101.5 -45.5t43.5 -85.5t-39.5 -100t-74.5 -60q-51 0 -115 39.5t-64 79.5z" />
<glyph unicode="&#xa9;" horiz-adv-x="1441" d="M147 182q0 128 33.5 268.5t91 270.5t140 248.5t176 206t202.5 139t216 51.5q113 0 197 -32.5t134 -92t74.5 -136t24.5 -169.5q0 -128 -42.5 -274.5t-118 -280.5t-169.5 -244.5t-206.5 -176.5t-219.5 -66q-36 0 -81.5 21.5t-87 58t-69.5 92.5t-28 116q0 85 46.5 200 t117 222t152 201t151.5 147q29 23 65 23q78 0 131 -43.5t53 -116.5q0 -29 26 -62t26 -48t-15 -33q-42 -48 -112 -160.5t-90 -187.5q-6 -19 -27 -19q-32 0 -76.5 40t-44.5 69q0 9 11.5 34t11.5 29q0 19 -17 19q-33 0 -86.5 -82.5t-93 -180t-39.5 -141.5q0 -53 70 -53 q104 0 202 48t171.5 128t130 178.5t85.5 204t29 201.5q0 144 -69.5 233.5t-208.5 89.5q-108 0 -221 -62t-207.5 -166t-170 -231.5t-118.5 -268t-43 -265.5q0 -123 69 -228.5t184 -166t245 -60.5q60 0 103.5 17.5t65 42t34.5 49t20 42t12 17.5q38 0 60 -25t22 -63 q0 -73 -71.5 -133.5t-204.5 -60.5q-121 0 -239 49.5t-207.5 132.5t-144.5 199t-55 241z" />
<glyph unicode="&#xaa;" horiz-adv-x="659" d="M72 492q0 18 2.5 28t6 17t17.5 12.5t26 9.5t43 12t58 17q144 33 314 33q53 0 125 -7q75 -8 75 -61q0 -26 -20 -47t-45 -21h-2q-72 -1 -287.5 -12.5t-284.5 -11.5q-28 0 -28 31zM205 770q0 86 61 223t140.5 240.5t128.5 103.5q32 0 65 -31.5t33 -60.5q0 -20 -19 -39 q38 -5 70.5 -30.5t32.5 -57.5q0 -23 -17 -43q-133 -179 -133 -262q0 -20 15 -20q17 0 32 18q13 10 115 133q5 0 11.5 -0.5t18 -7t11.5 -18.5t-8 -25q-47 -64 -77 -102.5t-67 -73.5t-59 -35q-33 0 -56 29t-26 90q-9 -9 -31 -32t-35 -35.5t-31.5 -28.5t-32.5 -23.5t-25 -7.5 q-40 0 -78.5 28.5t-38.5 67.5zM301 782q0 -16 12 -16q11 0 23 6q39 33 105 140.5t81 148.5q4 12 4 14q0 10 -7.5 18.5t-16.5 8.5q-21 0 -70 -65t-90 -143.5t-41 -111.5z" />
<glyph unicode="&#xad;" horiz-adv-x="909" d="M256 352q0 47 51 87t90 40q130 0 237 7.5t165 14.5t69 7q29 0 29 -31q0 -53 -45.5 -106.5t-99.5 -53.5l-467 5q-14 2 -21.5 8t-7.5 22z" />
<glyph unicode="&#xae;" horiz-adv-x="1441" d="M147 182q0 128 33.5 268.5t91 270.5t140 248.5t176 206t202.5 139t216 51.5q113 0 197.5 -33t134 -93t73 -136.5t23.5 -171.5q0 -105 -28.5 -226t-76 -234t-112.5 -218.5t-135 -183.5t-146.5 -125t-144.5 -47q-97 0 -97 125q0 109 63 279t140 316q-47 5 -92 25 q-108 -374 -318 -649q-25 -25 -43 -25q-11 0 -18.5 8.5t-9.5 16.5l-2 8q93 130 181.5 319.5t137.5 366.5q-51 48 -51 117q0 83 74 145t200 62q70 0 70 -78q0 -27 -8.5 -60t-17.5 -53t-11 -20q20 -15 76 -33.5t93.5 -41t37.5 -56.5q0 -26 -27 -66q-5 -7 -44 -56.5t-61 -79.5 t-60 -85t-59.5 -94.5t-38.5 -84.5t-17 -77q0 -35 22 -35q84 0 174 112.5t148.5 278t58.5 312.5q0 96 -26 166.5t-90 115.5t-162 45q-108 0 -221 -62t-207.5 -166t-170 -231.5t-118.5 -268t-43 -265.5q0 -123 69 -228.5t184 -166t245 -60.5q60 0 103.5 17.5t65 42t34.5 49 t20 42t12 17.5q38 0 60 -25t22 -63q0 -73 -71.5 -133.5t-204.5 -60.5q-121 0 -239 49.5t-207.5 132.5t-144.5 199t-55 241z" />
<glyph unicode="&#xaf;" horiz-adv-x="798" d="M358 1069q0 29 16 58t40 36q33 12 130 21.5t201 9.5q77 0 142 -6q40 -3 75 -41t35 -74q0 -51 -84 -51q-103 10 -204 10q-71 0 -318 -14q-33 6 -33 51z" />
<glyph unicode="&#xb0;" horiz-adv-x="528" d="M373 1126q0 97 79.5 183t192.5 86q77 0 113.5 -37.5t36.5 -97.5q0 -96 -74.5 -190.5t-163.5 -94.5q-93 0 -138.5 42.5t-45.5 108.5zM498 1155q0 -59 75 -59q30 0 61.5 40.5t31.5 77.5q0 52 -60 52q-41 0 -74.5 -36.5t-33.5 -74.5z" />
<glyph unicode="&#xb2;" horiz-adv-x="1212" d="M211 492q0 18 2.5 28t6 17t17.5 12.5t26.5 9.5t43.5 12t58 17q282 33 503 33q74 0 146 -7q76 -8 76 -61q0 -26 -20.5 -47t-45.5 -21h-2q-67 -1 -389 -12.5t-393 -11.5q-29 0 -29 31zM268 760q0 48 55 181.5t130.5 252.5t121.5 119q11 0 23 -6q25 -9 46.5 -28.5 t21.5 -43.5q0 -25 -27 -47q-27 -24 -93.5 -111.5t-66.5 -103.5l2 -4q13 0 125.5 123t141.5 135q39 -3 71.5 -27.5t32.5 -58.5q0 -19 -16 -45q-32 -42 -69 -103t-50 -96q-12 -37 -12 -61q0 -21 12 -21q14 0 33 19q25 21 92 98q16 16 37 43q49 106 121.5 204.5t119.5 135.5 q18 10 33 10q29 0 61 -27.5t43 -58.5q149 248 193 356q14 35 63 35q31 0 67 -30.5t36 -61.5q0 -23 -10 -33q-96 -125 -229.5 -338t-176.5 -305q-12 -27 -12 -61q0 -21 12 -21q10 0 20 5t21.5 17.5t18 19.5t19.5 25t15 21q6 9 11 9q8 0 15 -15t10 -30l3 -15 q-108 -147 -155 -147q-33 0 -56.5 28t-27.5 88q-9 -9 -31 -30.5t-35 -34t-31 -28t-32 -22.5t-25 -7q-40 0 -78.5 27.5t-38.5 66.5q0 30 6 67q-109 -125 -174 -125q-63 0 -63 134q0 38 6 67.5t12 40.5l6 10q-13 0 -43.5 -23.5t-56.5 -54.5q-72 -87 -108 -196q-8 -27 -31 -27 q-29 0 -69 35t-40 74zM918 770q0 -7 4.5 -11.5t9.5 -4.5q28 7 86.5 83.5t105.5 158.5t47 106q0 10 -7.5 18t-16.5 8q-20 0 -76 -74t-104.5 -162t-48.5 -122z" />
<glyph unicode="&#xb3;" horiz-adv-x="1056" d="M133 492q0 18 2.5 28t6 17t17.5 12.5t26.5 9.5t43.5 12t58 17q283 33 504 33q73 0 145 -7q76 -8 76 -61q0 -26 -20.5 -47t-45.5 -21h-2q-67 -1 -389 -12.5t-393 -11.5q-29 0 -29 31zM190 760q0 47 63 184t146.5 260t130.5 123q30 0 46 -27.5t16 -60.5q0 -3 -1 -9t-1 -9 q-80 -80 -146 -215q33 41 69 81.5t58.5 63t55.5 54.5t41 40q17 17 45 17q29 0 57.5 -18t28.5 -32q0 -4 -22.5 -17.5t-45 -40.5t-22.5 -64q0 -29 14 -64q-61 -31 -98 -31q-32 0 -45 19.5t-13 44.5l4 31q-33 -9 -88 -78.5t-116 -204.5q-25 -76 -37 -131q-5 -27 -31 -27 q-28 0 -68.5 35.5t-40.5 75.5zM651 758q0 73 35 164.5t84 169t97.5 138t80.5 85.5q18 10 33 10q29 0 61 -27.5t43 -58.5q149 248 193 356q14 35 63 35q31 0 67 -30.5t36 -61.5q0 -23 -10 -33q-46 -76 -165 -250.5t-186 -289t-67 -164.5q0 -21 12 -21q10 0 20 5t21.5 17.5 t18 19.5t19.5 25t15 21q6 9 11 9q8 0 15 -15t10 -30l3 -15q-108 -147 -155 -147q-33 0 -57 28t-27 88l-22 -22l-24.5 -24.5t-23 -22.5t-24 -21.5t-21.5 -16t-21.5 -12t-17.5 -3.5q-40 0 -78.5 27.5t-38.5 66.5zM745 770q0 -7 5 -11.5t10 -4.5q17 0 75.5 70.5t111 156.5 t52.5 121q0 10 -7.5 18t-16.5 8q-20 0 -76 -74t-105 -162t-49 -122z" />
<glyph unicode="&#xb4;" d="M326 967q0 11 28 22q44 17 76 51t49.5 69t31.5 67.5t30.5 53.5t38.5 21q64 0 100.5 -32t36.5 -80q0 -73 -82.5 -132t-231.5 -59q-77 0 -77 19z" />
<glyph unicode="&#xb6;" horiz-adv-x="673" d="M-106 545q0 60 46 145t122 173.5t177.5 177t207 157t218 111.5t203.5 43q21 0 34 -19.5t13 -40.5q0 -10 -4.5 -19.5t-13 -21.5t-12.5 -20q-45 -80 -213 -360.5t-306 -529.5t-239 -472q54 9 83 21.5t48 43.5q137 276 430.5 797.5t323.5 577.5q17 29 62.5 49t90.5 20 q38 0 63 -17.5t25 -53.5q0 -25 -30 -62q-240 -303 -448.5 -648.5t-352.5 -653.5q75 -1 137 -47t62 -80q0 -19 -25 -19q-6 0 -18 1t-19 1q-70 0 -151 -24.5t-154.5 -49t-126.5 -24.5q-60 0 -114 38.5t-54 98.5q0 17 14 45q288 564 338 654q-140 -111 -243 -111 q-174 0 -174 119z" />
<glyph unicode="&#xb7;" horiz-adv-x="575" d="M197 354q0 58 53 124.5t110 66.5q64 0 113 -50.5t49 -95.5q0 -43 -45 -109.5t-84 -66.5q-56 0 -126 43t-70 88z" />
<glyph unicode="&#xb8;" horiz-adv-x="575" d="M-27 -393q0 38 30 70t72.5 55.5t85.5 46.5t73 55t30 70q0 3 -1 11.5t-1 12.5q0 15 8 15q19 0 38.5 -37t19.5 -82q0 -39 -21.5 -68.5t-52.5 -50t-62.5 -42.5t-56.5 -58.5t-29 -85.5q-3 -19 -26 -19q-33 0 -70 31t-37 76z" />
<glyph unicode="&#xb9;" horiz-adv-x="950" d="M211 492q0 18 2.5 28t6 17t17.5 12.5t26.5 9.5t43.5 12t58 17q150 33 368 33q146 0 146 -68q0 -26 -20.5 -47t-45.5 -21h-2q-72 -1 -287 -12.5t-284 -11.5q-29 0 -29 31zM258 795q0 9 4 16.5t10 7.5q4 0 18.5 -16.5t36.5 -33.5t44 -17q28 0 41.5 22t13.5 51q0 31 -10 149 t-10 154q0 82 71 150t154 68q79 0 123 -70q41 -18 41 -59q0 -23 -15 -41q-23 -25 -55.5 -80.5t-46.5 -104.5q-4 -14 -16 -14q-21 0 -49.5 26.5t-28.5 45.5q0 4 16 40t16 50t-12 14q-22 0 -45.5 -38.5t-23.5 -70.5q0 -50 6 -144t6 -140q0 -52 -24 -76.5t-62 -24.5 q-54 0 -115.5 37.5t-81.5 77.5q-6 9 -6 21zM737 807q0 91 160 395q-55 18 -73.5 46t-18.5 67q0 20 18 20q11 0 59.5 -4.5t80.5 -5.5q103 191 116 225q14 37 64 37q31 0 67.5 -31t36.5 -63q0 -16 -10 -31q-20 -30 -107 -147q8 -6 24 -16.5t25 -17t17 -16t8 -18.5 q0 -20 -18 -20l-137 -19q-96 -130 -151.5 -229.5t-55.5 -173.5q0 -21 14 -21t39 17q39 26 74 59q43 -13 43 -37q0 -10 -17 -30q-53 -59 -100 -99q-15 -12 -35 -12q-41 0 -82 41t-41 84z" />
<glyph unicode="&#xba;" horiz-adv-x="659" d="M123 492q0 25 21 44t61.5 31.5t84.5 21t107.5 13.5t111 7.5t112.5 4.5q73 -8 73 -61q0 -27 -19.5 -47.5t-45.5 -20.5q-71 0 -237 -12t-240 -12q-29 0 -29 31zM268 780q0 92 53.5 220t125 219.5t120.5 91.5q16 0 43.5 -27t40.5 -35q48 0 80.5 -31.5t32.5 -66.5 q0 -24 -41 -105t-98 -170t-125.5 -159t-114.5 -70q-117 0 -117 133zM360 737q0 -16 15 -16q25 0 75 63t91 143t41 122q0 32 -27 32q-28 0 -74 -53.5t-83.5 -137t-37.5 -153.5z" />
<glyph unicode="&#xbc;" horiz-adv-x="1026" d="M76 18q0 32 22 64q82 112 218.5 324t253 399t256 387t241.5 311q24 19 53 19q48 0 107 -43.5t59 -87.5q0 -25 -26 -35q-134 -120 -348.5 -384t-412 -550.5t-284.5 -464.5q-15 -45 -49 -45q-31 0 -60.5 34.5t-29.5 71.5zM262 819q22 49 133.5 266.5t149.5 294.5 q-20 0 -30.5 12.5t-10.5 28.5q0 11 6 20.5t16 10.5q35 8 60 36t28 42q10 35 62 35q35 0 94 -31.5t59 -60.5q0 -15 -12 -27q-164 -224 -266 -378t-174 -298q-10 -18 -25 -18q-21 0 -55.5 23.5t-34.5 43.5zM524 190q0 9 5 21.5t9 20.5l5 8q214 318 362 469q22 22 47 22 q12 0 43 -13t45 -13q8 0 31.5 1t38.5 1q111 0 111 -80q0 -1 -56.5 -88t-113 -183.5t-56.5 -119.5h13q12 -2 22 -21t10 -41q0 -40 -36 -45q-38 -6 -70 -6q-75 -144 -98 -207q-2 -12 -15 -12q-24 2 -56 11t-32 19q0 38 64 183q-91 -3 -219 -17q-30 17 -42 43t-12 47zM692 242 q0 -11 17 -11q10 0 51.5 1t44.5 1q13 1 19.5 3.5t8.5 4.5t6.5 11.5t8.5 15.5q12 24 51 116.5t39 98.5q0 11 -8 11t-23 -15q-143 -143 -205 -215q-10 -15 -10 -22z" />
<glyph unicode="&#xbd;" horiz-adv-x="1026" d="M76 18q0 32 22 64q82 112 218.5 324t253 399t256 387t241.5 311q24 19 53 19q48 0 107 -43.5t59 -87.5q0 -25 -26 -35q-134 -120 -348.5 -384t-412 -550.5t-284.5 -464.5q-15 -45 -49 -45q-31 0 -60.5 34.5t-29.5 71.5zM262 819q22 49 133.5 266.5t149.5 294.5 q-20 0 -30.5 12.5t-10.5 28.5q0 11 6 20.5t16 10.5q35 8 60 36t28 42q10 35 62 35q35 0 94 -31.5t59 -60.5q0 -15 -12 -27q-164 -224 -266 -378t-174 -298q-10 -18 -25 -18q-21 0 -55.5 23.5t-34.5 43.5zM471 12q0 49 35 49q65 10 179 100.5t203 202.5t89 173q0 14 -19 14 q-51 0 -125.5 -59t-107.5 -109q-4 -6 -9.5 -18t-10.5 -19.5t-11 -7.5q-18 0 -31.5 46t-13.5 83q0 16 2 18q59 85 175.5 162.5t207.5 77.5q54 0 100 -32t46 -75q0 -16 -9 -34q0 -33 -17.5 -72t-41.5 -74t-66.5 -79t-74 -74t-83 -73t-75.5 -61.5t-68 -52.5q85 -3 109.5 -14 t24.5 -43q0 -14 15 -34t15 -32q0 -10 -22 -10q-66 4 -96 4q-163 0 -246 -35q-19 -8 -33 -8q-17 0 -29 27.5t-12 58.5z" />
<glyph unicode="&#xbe;" horiz-adv-x="1026" d="M168 492q0 18 2.5 28t6 17t17.5 12.5t26.5 9.5t43.5 12t58 17q282 33 503 33q74 0 146 -7q76 -8 76 -61q0 -26 -20.5 -47t-45.5 -21h-2q-67 -1 -389 -12.5t-393 -11.5q-29 0 -29 31zM305 768q0 94 162 395q-55 18 -73.5 46.5t-18.5 66.5q0 20 18 20q10 0 58.5 -4.5 t80.5 -5.5q9 18 54.5 97t62.5 126q14 39 62 39q32 0 68 -30.5t36 -63.5q0 -19 -8 -31q-40 -60 -105 -149q7 -5 23.5 -16t25 -17.5t16 -16t7.5 -18.5q0 -18 -20 -18l-121 -17q-161 -235 -215 -368q-6 -21 -6 -37q0 -21 14 -21t39 17q23 14 65.5 51.5t79.5 85.5q40 43 170 207 q128 262 226 504q14 39 63 39q31 0 68 -31.5t37 -63.5q0 -15 -11 -30q-42 -57 -133 -209.5t-125 -214.5q-14 -24 -14 -33q0 -8 8 -8q13 0 23 10q110 123 137 131q39 -3 70.5 -22.5t31.5 -49.5q0 -22 -16 -43q-52 -70 -104 -152t-52 -108q0 -20 15 -20q12 0 30 18 q29 24 94 99q8 8 11 8q5 0 10 -6t7 -12l3 -7q-21 -46 -102 -135.5t-125 -89.5q-47 0 -47 119q0 17 10.5 56t20.5 69l10 30q-8 0 -37.5 -27.5t-50.5 -56.5q-23 -31 -60.5 -95t-50.5 -105q-8 -16 -15 -22.5t-18 -6.5q-23 0 -61.5 29t-38.5 63q0 11 2 17l66 122 q-43 -60 -100.5 -122.5t-96.5 -94.5q-15 -12 -35 -12q-41 0 -83 41t-42 84z" />
<glyph unicode="&#xbf;" horiz-adv-x="804" d="M-168 -254q0 58 50.5 125t126 125.5t163.5 122t163.5 116t126 105t50.5 90.5q0 15 -17.5 28t-34.5 19l-18 6q0 48 49.5 80.5t112.5 32.5t106.5 -35.5t43.5 -107.5q0 -47 -34 -105t-88 -116.5t-119 -120t-130.5 -122.5t-119.5 -117.5t-88 -111.5t-34 -98q0 -24 27 -24 q43 0 139.5 45t180 111t83.5 114q0 9 -3 29t-3 28q0 22 24 34.5t48 12.5q26 0 44.5 -22.5t26.5 -56.5t11.5 -61.5t3.5 -49.5q0 -78 -41 -159t-108.5 -146t-148 -117t-165 -80.5t-154.5 -28.5q-124 0 -183.5 59.5t-59.5 164.5q0 54 10 98q-41 69 -41 133zM600 739 q0 46 15 96.5t49.5 91t80.5 40.5q64 0 125.5 -49.5t61.5 -110.5q0 -54 -44.5 -130.5t-90.5 -76.5q-53 0 -125 45t-72 94z" />
<glyph unicode="&#xc0;" horiz-adv-x="1044" d="M-80 90q0 14 19 41q94 131 185 254.5t205 273.5t176.5 232t216 280t206.5 267q54 70 82.5 97.5t58.5 27.5q40 0 111 -56q18 -13 63 -22.5t84 -17t70.5 -36t32.5 -77.5q0 -14 -11 -25q-64 -67 -164.5 -292.5t-195.5 -523t-133 -529.5q-3 -18 -6 -28t-15 -19t-33 -9 q-47 0 -88 24t-41 64q2 24 10.5 93.5t18 144.5t10.5 80q0 13 -10.5 19.5t-40.5 6.5q-14 0 -146 -17.5t-159 -25.5q-35 -10 -90 -77t-128 -176t-85 -125q-2 -3 -7.5 -10.5t-9 -10.5t-10 -6.5t-14.5 -3.5q-52 0 -107 65t-55 117zM606 573q0 -17 31 -22q53 -8 186 -8l92 356 q0 23 -6 23q-15 0 -159 -164.5t-144 -184.5zM1028 1784q0 48 36.5 80t100.5 32q22 0 38.5 -21t30.5 -53.5t31.5 -67.5t49.5 -69t76 -51q28 -11 28 -22q0 -19 -78 -19q-149 0 -231 59t-82 132z" />
<glyph unicode="&#xc1;" horiz-adv-x="1044" d="M-80 90q0 14 19 41q94 131 185 254.5t205 273.5t176.5 232t216 280t206.5 267q54 70 82.5 97.5t58.5 27.5q40 0 111 -56q18 -13 63 -22.5t84 -17t70.5 -36t32.5 -77.5q0 -14 -11 -25q-64 -67 -164.5 -292.5t-195.5 -523t-133 -529.5q-3 -18 -6 -28t-15 -19t-33 -9 q-47 0 -88 24t-41 64q2 24 10.5 93.5t18 144.5t10.5 80q0 13 -10.5 19.5t-40.5 6.5q-14 0 -146 -17.5t-159 -25.5q-35 -10 -90 -77t-128 -176t-85 -125q-2 -3 -7.5 -10.5t-9 -10.5t-10 -6.5t-14.5 -3.5q-52 0 -107 65t-55 117zM606 573q0 -17 31 -22q53 -8 186 -8l92 356 q0 23 -6 23q-15 0 -159 -164.5t-144 -184.5zM1161 1620q0 10 29 22q53 21 90 67t52 88.5t36 75t47 32.5q64 0 100.5 -32.5t36.5 -80.5q0 -73 -82 -131.5t-231 -58.5q-78 0 -78 18z" />
<glyph unicode="&#xc2;" horiz-adv-x="1044" d="M-80 90q0 14 19 41q94 131 185 254.5t205 273.5t176.5 232t216 280t206.5 267q54 70 82.5 97.5t58.5 27.5q40 0 111 -56q18 -13 63 -22.5t84 -17t70.5 -36t32.5 -77.5q0 -14 -11 -25q-64 -67 -164.5 -292.5t-195.5 -523t-133 -529.5q-3 -18 -6 -28t-15 -19t-33 -9 q-47 0 -88 24t-41 64q2 24 10.5 93.5t18 144.5t10.5 80q0 13 -10.5 19.5t-40.5 6.5q-14 0 -146 -17.5t-159 -25.5q-35 -10 -90 -77t-128 -176t-85 -125q-2 -3 -7.5 -10.5t-9 -10.5t-10 -6.5t-14.5 -3.5q-52 0 -107 65t-55 117zM606 573q0 -17 31 -22q53 -8 186 -8l92 356 q0 23 -6 23q-15 0 -159 -164.5t-144 -184.5zM989 1686q0 14 33 20q39 9 72.5 27.5t63.5 49t44.5 48.5t40.5 53q32 43 78 43q41 0 73.5 -31.5t32.5 -68.5q15 -19 25.5 -60.5t32 -82.5t67.5 -72q13 -10 13 -19q0 -16 -28 -31.5t-50 -15.5q-21 0 -38 3t-32.5 13t-25.5 16.5 t-25 25.5t-21.5 27.5t-23.5 34l-23 34.5q-80 -58 -184 -58q-51 0 -88 14.5t-37 29.5z" />
<glyph unicode="&#xc3;" horiz-adv-x="1044" d="M-80 90q0 14 19 41q94 131 185 254.5t205 273.5t176.5 232t216 280t206.5 267q54 70 82.5 97.5t58.5 27.5q40 0 111 -56q18 -13 63 -22.5t84 -17t70.5 -36t32.5 -77.5q0 -14 -11 -25q-64 -67 -164.5 -292.5t-195.5 -523t-133 -529.5q-3 -18 -6 -28t-15 -19t-33 -9 q-47 0 -88 24t-41 64q2 24 10.5 93.5t18 144.5t10.5 80q0 13 -10.5 19.5t-40.5 6.5q-14 0 -146 -17.5t-159 -25.5q-35 -10 -90 -77t-128 -176t-85 -125q-2 -3 -7.5 -10.5t-9 -10.5t-10 -6.5t-14.5 -3.5q-52 0 -107 65t-55 117zM606 573q0 -17 31 -22q53 -8 186 -8l92 356 q0 23 -6 23q-15 0 -159 -164.5t-144 -184.5zM985 1743q0 35 62.5 81t138.5 46q35 0 67 -13.5t58 -33t55 -38.5t70.5 -32.5t91.5 -13.5q10 0 22.5 1t16.5 1q22 0 22 -21q0 -40 -62 -94.5t-138 -54.5q-35 0 -68 16t-61 38.5t-57.5 45.5t-69.5 39t-86 16q-7 0 -19 -1t-18 -1 q-25 0 -25 19z" />
<glyph unicode="&#xc4;" horiz-adv-x="1044" d="M-80 90q0 14 19 41q94 131 185 254.5t205 273.5t176.5 232t216 280t206.5 267q54 70 82.5 97.5t58.5 27.5q40 0 111 -56q18 -13 63 -22.5t84 -17t70.5 -36t32.5 -77.5q0 -14 -11 -25q-64 -67 -164.5 -292.5t-195.5 -523t-133 -529.5q-3 -18 -6 -28t-15 -19t-33 -9 q-47 0 -88 24t-41 64q2 24 10.5 93.5t18 144.5t10.5 80q0 13 -10.5 19.5t-40.5 6.5q-14 0 -146 -17.5t-159 -25.5q-35 -10 -90 -77t-128 -176t-85 -125q-2 -3 -7.5 -10.5t-9 -10.5t-10 -6.5t-14.5 -3.5q-52 0 -107 65t-55 117zM606 573q0 -17 31 -22q53 -8 186 -8l92 356 q0 23 -6 23q-15 0 -159 -164.5t-144 -184.5zM1001 1731q0 53 47.5 112.5t100.5 59.5q57 0 101 -45.5t44 -85.5t-40.5 -100t-75.5 -60q-51 0 -114 39t-63 80zM1319 1679q0 51 48 111.5t99 60.5q58 0 102 -45.5t44 -85.5t-40 -99.5t-75 -59.5q-51 0 -114.5 39t-63.5 79z" />
<glyph unicode="&#xc5;" horiz-adv-x="1044" d="M-80 90q0 14 19 41q94 131 185 254.5t205 273.5t176.5 232t216 280t206.5 267q54 70 82.5 97.5t58.5 27.5q40 0 111 -56q18 -13 63 -22.5t84 -17t70.5 -36t32.5 -77.5q0 -14 -11 -25q-64 -67 -164.5 -292.5t-195.5 -523t-133 -529.5q-3 -18 -6 -28t-15 -19t-33 -9 q-47 0 -88 24t-41 64q2 24 10.5 93.5t18 144.5t10.5 80q0 13 -10.5 19.5t-40.5 6.5q-14 0 -146 -17.5t-159 -25.5q-35 -10 -90 -77t-128 -176t-85 -125q-2 -3 -7.5 -10.5t-9 -10.5t-10 -6.5t-14.5 -3.5q-52 0 -107 65t-55 117zM606 573q0 -17 31 -22q53 -8 186 -8l92 356 q0 23 -6 23q-15 0 -159 -164.5t-144 -184.5zM1112 1690q0 60 54.5 129t113.5 69q66 0 117 -52t51 -97t-47.5 -114t-87.5 -69q-58 0 -129.5 44.5t-71.5 89.5zM1204 1708q0 -21 28.5 -39t53.5 -18q16 0 34.5 29t18.5 49q0 19 -20 40t-47 21q-24 0 -46 -28.5t-22 -53.5z" />
<glyph unicode="&#xc6;" horiz-adv-x="1480" d="M-80 90q0 14 19 41q94 131 185 254.5t205 273.5t176.5 232t216 280t206.5 267q54 70 82.5 97.5t58.5 27.5q40 0 111 -56q9 -7 47 -20q10 13 45 18q64 12 266 18.5t313 6.5q44 0 76.5 -52t32.5 -112q0 -72 -47 -98q-29 0 -109 3t-104 3q-143 0 -170 -39q-44 -61 -145 -220 t-101 -177q0 -33 37 -33q144 0 158 -2q26 -3 46.5 -42t20.5 -81q0 -35 -18 -60.5t-55 -29.5q-96 -11 -185.5 -28.5t-131.5 -29.5l-42 -12q-14 -14 -48.5 -71.5t-59.5 -110.5l-27 -100q11 -11 47 -11q38 0 117 9.5t129 9.5q31 0 49 -2q50 -4 87.5 -65t37.5 -118 q0 -51 -35 -51q-101 0 -249.5 -28.5t-235.5 -65.5q-18 -8 -70 -8q-37 0 -90.5 43t-92 95.5t-38.5 80.5q0 42 29 92q58 105 77 141h-10q-14 0 -146 -17.5t-159 -25.5q-35 -10 -90 -77t-128 -176t-85 -125q-2 -3 -7.5 -10.5t-9 -10.5t-10 -6.5t-14.5 -3.5q-52 0 -107 65 t-55 117zM606 573q0 -17 31 -22q53 -8 186 -8l203 424q0 22 -6 22q-16 0 -215 -198.5t-199 -217.5z" />
<glyph unicode="&#xc7;" horiz-adv-x="847" d="M-27 -393q0 37 28 68.5t69 54t83 45t73.5 52t35.5 64.5q-121 4 -177 70.5t-56 179.5q0 116 50 271.5t130 310t183 307.5t206.5 269.5t203.5 189t171 72.5q74 0 118.5 -46.5t82.5 -140.5q33 -41 48.5 -62.5t28.5 -51t13 -56.5q0 -45 -29.5 -100.5t-76.5 -113.5t-97 -118 t-100.5 -134.5t-77.5 -141.5q-11 -31 -35 -31q-26 0 -59 42t-55.5 96t-22.5 90q5 41 36.5 98t66 100.5t62.5 79.5t29 41q0 10 -8 10q-35 0 -110.5 -73.5t-162 -189.5t-167.5 -245t-134 -256t-53 -206q0 -68 123 -68q136 0 295 59q22 11 43 11q22 0 43 -17.5t21 -38.5 q0 -19 -25 -35q-285 -156 -457 -169q15 -34 15 -70q0 -39 -21.5 -68.5t-52.5 -50t-62.5 -42.5t-56.5 -58.5t-29 -85.5q-3 -19 -26 -19q-33 0 -70 31t-37 76z" />
<glyph unicode="&#xc8;" horiz-adv-x="843" d="M-2 127q0 42 29 92q267 483 410.5 809t148.5 442q0 28 49 35q64 12 266 18.5t313 6.5q44 0 76.5 -52t32.5 -112q0 -72 -47 -98q-30 0 -110 3t-103 3q-143 0 -170 -39q-44 -61 -145 -220t-101 -177q0 -33 37 -33q144 0 158 -2q26 -3 46.5 -42t20.5 -81q0 -35 -18 -60.5 t-55 -29.5q-96 -11 -185.5 -28.5t-131.5 -29.5l-42 -12q-25 -25 -82 -131t-57 -137q0 -25 51 -25q38 0 122 9.5t134 9.5q67 0 115.5 -51.5t48.5 -133.5q0 -51 -35 -51q-101 0 -249.5 -28.5t-235.5 -65.5q-18 -8 -70 -8q-37 0 -90.5 43t-92 95.5t-38.5 80.5zM782 1798 q0 48 37 80.5t101 32.5q26 0 47 -32.5t36 -74.5t52 -88t90 -67q29 -12 29 -23q0 -18 -78 -18q-149 0 -231.5 58.5t-82.5 131.5z" />
<glyph unicode="&#xc9;" horiz-adv-x="843" d="M-2 127q0 42 29 92q267 483 410.5 809t148.5 442q0 28 49 35q64 12 266 18.5t313 6.5q44 0 76.5 -52t32.5 -112q0 -72 -47 -98q-30 0 -110 3t-103 3q-143 0 -170 -39q-44 -61 -145 -220t-101 -177q0 -33 37 -33q144 0 158 -2q26 -3 46.5 -42t20.5 -81q0 -35 -18 -60.5 t-55 -29.5q-96 -11 -185.5 -28.5t-131.5 -29.5l-42 -12q-25 -25 -82 -131t-57 -137q0 -25 51 -25q38 0 122 9.5t134 9.5q67 0 115.5 -51.5t48.5 -133.5q0 -51 -35 -51q-101 0 -249.5 -28.5t-235.5 -65.5q-18 -8 -70 -8q-37 0 -90.5 43t-92 95.5t-38.5 80.5zM940 1624 q0 11 29 23q53 21 90 67t52 88t36 74.5t47 32.5q64 0 100.5 -32.5t36.5 -80.5q0 -73 -82 -131.5t-231 -58.5q-78 0 -78 18z" />
<glyph unicode="&#xca;" horiz-adv-x="843" d="M-2 127q0 42 29 92q267 483 410.5 809t148.5 442q0 28 49 35q64 12 266 18.5t313 6.5q44 0 76.5 -52t32.5 -112q0 -72 -47 -98q-30 0 -110 3t-103 3q-143 0 -170 -39q-44 -61 -145 -220t-101 -177q0 -33 37 -33q144 0 158 -2q26 -3 46.5 -42t20.5 -81q0 -35 -18 -60.5 t-55 -29.5q-96 -11 -185.5 -28.5t-131.5 -29.5l-42 -12q-25 -25 -82 -131t-57 -137q0 -25 51 -25q38 0 122 9.5t134 9.5q67 0 115.5 -51.5t48.5 -133.5q0 -51 -35 -51q-101 0 -249.5 -28.5t-235.5 -65.5q-18 -8 -70 -8q-37 0 -90.5 43t-92 95.5t-38.5 80.5zM688 1700 q0 14 33 20q39 9 72.5 27.5t63.5 49t44.5 48.5t40.5 53q33 44 78 44q41 0 73.5 -32t32.5 -69q15 -19 25.5 -60.5t32 -82.5t67.5 -72q13 -10 13 -18q0 -16 -28 -31.5t-50 -15.5q-21 0 -38 3t-33 13t-25.5 16t-24.5 25.5t-21 27t-23.5 34t-23.5 34.5q-78 -57 -184 -57 q-51 0 -88 14t-37 29z" />
<glyph unicode="&#xcb;" horiz-adv-x="843" d="M-2 127q0 42 29 92q267 483 410.5 809t148.5 442q0 28 49 35q64 12 266 18.5t313 6.5q44 0 76.5 -52t32.5 -112q0 -72 -47 -98q-30 0 -110 3t-103 3q-143 0 -170 -39q-44 -61 -145 -220t-101 -177q0 -33 37 -33q144 0 158 -2q26 -3 46.5 -42t20.5 -81q0 -35 -18 -60.5 t-55 -29.5q-96 -11 -185.5 -28.5t-131.5 -29.5l-42 -12q-25 -25 -82 -131t-57 -137q0 -25 51 -25q38 0 122 9.5t134 9.5q67 0 115.5 -51.5t48.5 -133.5q0 -51 -35 -51q-101 0 -249.5 -28.5t-235.5 -65.5q-18 -8 -70 -8q-37 0 -90.5 43t-92 95.5t-38.5 80.5zM737 1763 q0 53 47.5 112.5t100.5 59.5q57 0 101 -45.5t44 -85.5t-41 -99.5t-76 -59.5q-51 0 -113.5 38.5t-62.5 79.5zM1055 1712q0 51 48 111.5t99 60.5q58 0 102 -45.5t44 -85.5t-40 -100t-75 -60q-51 0 -114.5 39.5t-63.5 79.5z" />
<glyph unicode="&#xcc;" horiz-adv-x="651" d="M-129 -14q0 28 23 39q20 9 74 22.5t67 20.5q41 18 102 118q90 149 321.5 612.5t231.5 538.5q0 31 -106 31q-27 0 -27 25q0 29 33.5 57t87.5 29q94 2 237.5 9.5t247.5 14t111 6.5q31 0 31 -20q0 -25 -38.5 -59.5t-68.5 -34.5q-34 0 -66.5 -10t-46.5 -29 q-94 -102 -332 -545t-343 -672q-15 -26 -15 -37q0 -26 62 -26q16 0 52 2t38 2q33 0 33 -23q0 -27 -36.5 -63.5t-66.5 -36.5q-122 0 -342.5 -11.5t-224.5 -11.5q-39 0 -39 52zM743 1774q0 48 37 80t101 32q26 0 47 -32.5t36 -74.5t52 -88t90 -67q29 -12 29 -22q0 -19 -78 -19 q-149 0 -231.5 59t-82.5 132z" />
<glyph unicode="&#xcd;" horiz-adv-x="651" d="M-129 -14q0 28 23 39q20 9 74 22.5t67 20.5q41 18 102 118q90 149 321.5 612.5t231.5 538.5q0 31 -106 31q-27 0 -27 25q0 29 33.5 57t87.5 29q94 2 237.5 9.5t247.5 14t111 6.5q31 0 31 -20q0 -25 -38.5 -59.5t-68.5 -34.5q-34 0 -66.5 -10t-46.5 -29 q-94 -102 -332 -545t-343 -672q-15 -26 -15 -37q0 -26 62 -26q16 0 52 2t38 2q33 0 33 -23q0 -27 -36.5 -63.5t-66.5 -36.5q-122 0 -342.5 -11.5t-224.5 -11.5q-39 0 -39 52zM868 1591q0 11 29 23q53 21 90 67t52 88t36 74.5t47 32.5q64 0 101 -32.5t37 -80.5 q0 -73 -82.5 -131.5t-231.5 -58.5q-78 0 -78 18z" />
<glyph unicode="&#xce;" horiz-adv-x="651" d="M-129 -14q0 28 23 39q20 9 74 22.5t67 20.5q41 18 102 118q90 149 321.5 612.5t231.5 538.5q0 31 -106 31q-27 0 -27 25q0 29 33.5 57t87.5 29q94 2 237.5 9.5t247.5 14t111 6.5q31 0 31 -20q0 -25 -38.5 -59.5t-68.5 -34.5q-34 0 -66.5 -10t-46.5 -29 q-94 -102 -332 -545t-343 -672q-15 -26 -15 -37q0 -26 62 -26q16 0 52 2t38 2q33 0 33 -23q0 -27 -36.5 -63.5t-66.5 -36.5q-122 0 -342.5 -11.5t-224.5 -11.5q-39 0 -39 52zM719 1702q0 14 33 20q38 9 71.5 27.5t64 50t44.5 48.5t41 53q32 43 78 43q41 0 73.5 -32t32.5 -69 q15 -19 25.5 -60.5t32 -82.5t67.5 -72q12 -9 12 -18q0 -16 -27.5 -31.5t-49.5 -15.5q-21 0 -38 3t-33 13t-25.5 16t-24.5 25.5t-21 27t-23.5 34t-23.5 34.5q-78 -57 -184 -57q-51 0 -88 14t-37 29z" />
<glyph unicode="&#xcf;" horiz-adv-x="651" d="M-129 -14q0 28 23 39q20 9 74 22.5t67 20.5q41 18 102 118q90 149 321.5 612.5t231.5 538.5q0 31 -106 31q-27 0 -27 25q0 29 33.5 57t87.5 29q94 2 237.5 9.5t247.5 14t111 6.5q31 0 31 -20q0 -25 -38.5 -59.5t-68.5 -34.5q-34 0 -66.5 -10t-46.5 -29 q-94 -102 -332 -545t-343 -672q-15 -26 -15 -37q0 -26 62 -26q16 0 52 2t38 2q33 0 33 -23q0 -27 -36.5 -63.5t-66.5 -36.5q-122 0 -342.5 -11.5t-224.5 -11.5q-39 0 -39 52zM711 1729q0 53 47 112.5t100 59.5q57 0 101.5 -46t44.5 -86t-41 -99.5t-76 -59.5q-51 0 -113.5 39 t-62.5 80zM1028 1677q0 51 48.5 111.5t99.5 60.5q58 0 101.5 -45.5t43.5 -85.5t-40 -99.5t-75 -59.5q-51 0 -114.5 39t-63.5 79z" />
<glyph unicode="&#xd0;" horiz-adv-x="1101" d="M-61 10q149 227 299 553l-111 2q-29 4 -29 31q0 47 51.5 87t90.5 40h71q99 226 177 436t94 271q10 37 46 54t77 17q21 0 58 -8t56 -8q79 0 195 33.5t145 33.5q138 0 205.5 -76.5t67.5 -209.5q0 -96 -33.5 -213.5t-96.5 -239.5t-148 -243t-194.5 -228t-229 -190t-258 -133 t-275.5 -54l-29 -53q-18 -39 -47 -39q-41 0 -111.5 48t-70.5 89zM285 125q106 27 212 97t192 162.5t161.5 202.5t126.5 218t80.5 207.5t29.5 173.5q0 98 -61 98q-65 0 -170 -102q-92 -133 -256 -443q23 2 48.5 5.5t40 5.5t22.5 2q28 0 28 -31q0 -53 -45.5 -106.5 t-99.5 -53.5h-88q-217 -428 -221 -436z" />
<glyph unicode="&#xd1;" horiz-adv-x="1005" d="M-70 39q45 95 223 443.5t326 643t158 332.5q10 37 46 54.5t77 17.5q40 0 98 -23.5t105 -64.5t47 -82q0 -13 -11.5 -30t-13.5 -23q-15 -47 -46 -140.5t-39.5 -119t-30 -92.5t-26.5 -86.5t-19.5 -73t-20 -80.5l-16.5 -81t-19 -102.5t-20 -117.5q73 161 251.5 597t239.5 562 q10 37 46 54.5t77 17.5q40 0 98 -23.5t105 -64.5t47 -82q0 -25 -25 -54q-481 -604 -801 -1374q-27 -67 -73 -67q-31 0 -67.5 27t-86.5 77q-33 31 -33 102q0 100 41 389q-4 11 -16 11q-27 0 -90.5 -105.5t-158 -283t-142.5 -256.5q-18 -39 -47 -39q-41 0 -112 48t-71 89z M678 1761q0 35 62.5 81t138.5 46q35 0 67 -13.5t58 -33t55 -38.5t70.5 -32.5t91.5 -13.5q10 0 22.5 1t16.5 1q22 0 22 -20q0 -40 -62.5 -95t-138.5 -55q-35 0 -68 16t-61 39t-57.5 46t-69.5 39t-86 16q-7 0 -19 -1t-18 -1q-24 0 -24 18z" />
<glyph unicode="&#xd2;" horiz-adv-x="933" d="M2 305q0 94 38.5 227t101 271t147 275t172 243.5t180.5 173t168 66.5q67 0 127.5 -40.5t91.5 -111.5q44 -13 66.5 -21.5t54 -25.5t46.5 -36.5t26.5 -51.5t11.5 -74q0 -66 -38 -188t-100.5 -265.5t-150 -293.5t-180 -272t-197 -199.5t-194.5 -77.5q-51 0 -99 26 q-272 74 -272 375zM248 231q0 -63 21 -102t59 -39q69 0 157.5 89t167.5 223t147.5 279t109 268t40.5 179q0 13 -2.5 28.5t-8.5 33.5t-18.5 29.5t-29.5 11.5q-79 0 -193 -120.5t-212 -283t-168 -332.5t-70 -264zM827 1753q0 48 37 80.5t101 32.5q26 0 47 -32.5t36 -74.5 t52 -88t90 -67q29 -12 29 -23q0 -18 -78 -18q-149 0 -231.5 58.5t-82.5 131.5z" />
<glyph unicode="&#xd3;" horiz-adv-x="933" d="M2 305q0 94 38.5 227t101 271t147 275t172 243.5t180.5 173t168 66.5q67 0 127.5 -40.5t91.5 -111.5q44 -13 66.5 -21.5t54 -25.5t46.5 -36.5t26.5 -51.5t11.5 -74q0 -66 -38 -188t-100.5 -265.5t-150 -293.5t-180 -272t-197 -199.5t-194.5 -77.5q-51 0 -99 26 q-272 74 -272 375zM248 231q0 -63 21 -102t59 -39q69 0 157.5 89t167.5 223t147.5 279t109 268t40.5 179q0 13 -2.5 28.5t-8.5 33.5t-18.5 29.5t-29.5 11.5q-79 0 -193 -120.5t-212 -283t-168 -332.5t-70 -264zM874 1606q0 10 29 22q53 21 90 67t52 88t36 74.5t47 32.5 q64 0 101 -32t37 -80q0 -73 -82.5 -132t-231.5 -59q-78 0 -78 19z" />
<glyph unicode="&#xd4;" horiz-adv-x="933" d="M2 305q0 94 38.5 227t101 271t147 275t172 243.5t180.5 173t168 66.5q67 0 127.5 -40.5t91.5 -111.5q44 -13 66.5 -21.5t54 -25.5t46.5 -36.5t26.5 -51.5t11.5 -74q0 -66 -38 -188t-100.5 -265.5t-150 -293.5t-180 -272t-197 -199.5t-194.5 -77.5q-51 0 -99 26 q-272 74 -272 375zM248 231q0 -63 21 -102t59 -39q69 0 157.5 89t167.5 223t147.5 279t109 268t40.5 179q0 13 -2.5 28.5t-8.5 33.5t-18.5 29.5t-29.5 11.5q-79 0 -193 -120.5t-212 -283t-168 -332.5t-70 -264zM727 1651q0 14 33 20q39 9 72.5 27.5t63.5 49t44.5 48.5 t40.5 53q32 43 78 43q41 0 73.5 -31.5t32.5 -68.5q15 -19 25.5 -60.5t32 -82.5t67.5 -72q13 -10 13 -18q0 -16 -28 -32t-50 -16q-21 0 -38 3t-32.5 13t-25.5 16.5t-25 25.5t-21.5 27.5t-23.5 34l-23 34.5q-78 -57 -184 -57q-51 0 -88 14t-37 29z" />
<glyph unicode="&#xd5;" horiz-adv-x="933" d="M2 305q0 94 38.5 227t101 271t147 275t172 243.5t180.5 173t168 66.5q67 0 127.5 -40.5t91.5 -111.5q44 -13 66.5 -21.5t54 -25.5t46.5 -36.5t26.5 -51.5t11.5 -74q0 -66 -38 -188t-100.5 -265.5t-150 -293.5t-180 -272t-197 -199.5t-194.5 -77.5q-51 0 -99 26 q-272 74 -272 375zM248 231q0 -63 21 -102t59 -39q69 0 157.5 89t167.5 223t147.5 279t109 268t40.5 179q0 13 -2.5 28.5t-8.5 33.5t-18.5 29.5t-29.5 11.5q-79 0 -193 -120.5t-212 -283t-168 -332.5t-70 -264zM754 1690q0 35 62 81t138 46q35 0 67 -13.5t58 -32.5t55 -38.5 t70.5 -33t91.5 -13.5q10 0 22.5 1t16.5 1q23 0 23 -21q0 -40 -62.5 -94.5t-138.5 -54.5q-35 0 -68 16t-61 39t-57.5 45.5t-69.5 38.5t-86 16q-7 0 -19 -1t-18 -1q-24 0 -24 19z" />
<glyph unicode="&#xd6;" horiz-adv-x="933" d="M2 305q0 94 38.5 227t101 271t147 275t172 243.5t180.5 173t168 66.5q67 0 127.5 -40.5t91.5 -111.5q44 -13 66.5 -21.5t54 -25.5t46.5 -36.5t26.5 -51.5t11.5 -74q0 -66 -38 -188t-100.5 -265.5t-150 -293.5t-180 -272t-197 -199.5t-194.5 -77.5q-51 0 -99 26 q-272 74 -272 375zM248 231q0 -63 21 -102t59 -39q69 0 157.5 89t167.5 223t147.5 279t109 268t40.5 179q0 13 -2.5 28.5t-8.5 33.5t-18.5 29.5t-29.5 11.5q-79 0 -193 -120.5t-212 -283t-168 -332.5t-70 -264zM752 1710q0 53 47 112.5t100 59.5q57 0 101 -45.5t44 -85.5 t-40.5 -100t-75.5 -60q-51 0 -113.5 39t-62.5 80zM1069 1659q0 51 48.5 111.5t99.5 60.5q58 0 101.5 -45.5t43.5 -85.5t-40 -100t-75 -60q-51 0 -114.5 39.5t-63.5 79.5z" />
<glyph unicode="&#xd8;" horiz-adv-x="933" d="M2 305q0 94 38.5 227t101 271t147 275t172 243.5t180.5 173t168 66.5q52 0 100.5 -25t83.5 -70l70 133q13 35 45 35q30 0 59 -26.5t29 -51.5q0 -8 -2 -10q-46 -49 -119 -151q80 -27 119 -68t39 -127q0 -66 -38 -188t-100.5 -265.5t-150 -293.5t-180 -272t-197 -199.5 t-194.5 -77.5q-47 0 -90 22q-4 -9 -16 -37t-17 -41q-6 -15 -33 -28t-49 -13q-25 0 -25 17q0 10 4 16l58 115q-203 89 -203 350zM248 231q0 -91 37 -125l585 1123q-80 -15 -191.5 -139.5t-205 -282.5t-159.5 -321.5t-66 -254.5zM360 94q69 20 154 116.5t159.5 227 t138.5 268.5t101 253t37 169q0 21 -10 54q-139 -229 -298 -529.5t-282 -558.5z" />
<glyph unicode="&#xd9;" horiz-adv-x="940" d="M55 201q0 134 50 298t114 294q55 113 144 288.5t131.5 262t46.5 106.5q10 37 46 54.5t77 17.5q40 0 97.5 -23.5t104.5 -64.5t47 -82q0 -26 -24 -54q-258 -342 -391 -565q-96 -161 -153.5 -308.5t-57.5 -227.5q0 -99 39 -99q41 0 90 41.5t99 115t88 137t83.5 147.5 t58.5 106q77 131 233.5 473t217.5 457q9 17 16.5 27.5t23.5 20t36 9.5q35 0 71.5 -4t82 -14t74 -34.5t28.5 -59.5q0 -28 -31 -62q-45 -51 -159 -226.5t-242.5 -393.5t-226 -437t-97.5 -325q0 -21 4 -46t8 -40l4 -15q-7 0 -19.5 1t-43.5 8.5t-55.5 19.5t-45 36.5t-22.5 57.5 q-58 -69 -152.5 -116.5t-181.5 -47.5q-96 0 -154.5 64t-58.5 203zM711 1796q0 48 36.5 80.5t100.5 32.5q26 0 47 -32.5t36 -74.5t52 -88t90 -67q29 -12 29 -23q0 -18 -78 -18q-149 0 -231 58.5t-82 131.5z" />
<glyph unicode="&#xda;" horiz-adv-x="940" d="M55 201q0 134 50 298t114 294q55 113 144 288.5t131.5 262t46.5 106.5q10 37 46 54.5t77 17.5q40 0 97.5 -23.5t104.5 -64.5t47 -82q0 -26 -24 -54q-258 -342 -391 -565q-96 -161 -153.5 -308.5t-57.5 -227.5q0 -99 39 -99q41 0 90 41.5t99 115t88 137t83.5 147.5 t58.5 106q77 131 233.5 473t217.5 457q9 17 16.5 27.5t23.5 20t36 9.5q35 0 71.5 -4t82 -14t74 -34.5t28.5 -59.5q0 -28 -31 -62q-45 -51 -159 -226.5t-242.5 -393.5t-226 -437t-97.5 -325q0 -21 4 -46t8 -40l4 -15q-7 0 -19.5 1t-43.5 8.5t-55.5 19.5t-45 36.5t-22.5 57.5 q-58 -69 -152.5 -116.5t-181.5 -47.5q-96 0 -154.5 64t-58.5 203zM862 1624q0 11 29 23q53 21 90 67t52 88t36 74.5t47 32.5q64 0 100.5 -32.5t36.5 -80.5q0 -73 -82 -131.5t-231 -58.5q-78 0 -78 18z" />
<glyph unicode="&#xdb;" horiz-adv-x="940" d="M55 201q0 134 50 298t114 294q55 113 144 288.5t131.5 262t46.5 106.5q10 37 46 54.5t77 17.5q40 0 97.5 -23.5t104.5 -64.5t47 -82q0 -26 -24 -54q-258 -342 -391 -565q-96 -161 -153.5 -308.5t-57.5 -227.5q0 -99 39 -99q41 0 90 41.5t99 115t88 137t83.5 147.5 t58.5 106q77 131 233.5 473t217.5 457q9 17 16.5 27.5t23.5 20t36 9.5q35 0 71.5 -4t82 -14t74 -34.5t28.5 -59.5q0 -28 -31 -62q-45 -51 -159 -226.5t-242.5 -393.5t-226 -437t-97.5 -325q0 -21 4 -46t8 -40l4 -15q-7 0 -19.5 1t-43.5 8.5t-55.5 19.5t-45 36.5t-22.5 57.5 q-58 -69 -152.5 -116.5t-181.5 -47.5q-96 0 -154.5 64t-58.5 203zM588 1706q0 14 33 20q38 9 71.5 27.5t64 50t44.5 48.5t41 53q32 43 78 43q41 0 73.5 -32t32.5 -69q15 -19 25.5 -60.5t32 -82.5t67.5 -72q12 -9 12 -18q0 -16 -28 -31.5t-50 -15.5q-21 0 -38 3t-32.5 13 t-25.5 16.5t-24.5 25t-21 27t-23 33.5t-23.5 35q-78 -57 -184 -57q-51 0 -88 14t-37 29z" />
<glyph unicode="&#xdc;" horiz-adv-x="940" d="M55 201q0 134 50 298t114 294q55 113 144 288.5t131.5 262t46.5 106.5q10 37 46 54.5t77 17.5q40 0 97.5 -23.5t104.5 -64.5t47 -82q0 -26 -24 -54q-258 -342 -391 -565q-96 -161 -153.5 -308.5t-57.5 -227.5q0 -99 39 -99q41 0 90 41.5t99 115t88 137t83.5 147.5 t58.5 106q77 131 233.5 473t217.5 457q9 17 16.5 27.5t23.5 20t36 9.5q35 0 71.5 -4t82 -14t74 -34.5t28.5 -59.5q0 -28 -31 -62q-45 -51 -159 -226.5t-242.5 -393.5t-226 -437t-97.5 -325q0 -21 4 -46t8 -40l4 -15q-7 0 -19.5 1t-43.5 8.5t-55.5 19.5t-45 36.5t-22.5 57.5 q-58 -69 -152.5 -116.5t-181.5 -47.5q-96 0 -154.5 64t-58.5 203zM600 1772q0 53 47.5 112.5t100.5 59.5q57 0 101 -46t44 -86t-41 -99.5t-76 -59.5q-51 0 -113.5 39t-62.5 80zM918 1720q0 51 48 111.5t99 60.5q58 0 101.5 -45.5t43.5 -85.5t-39.5 -99.5t-74.5 -59.5 q-51 0 -114.5 39t-63.5 79z" />
<glyph unicode="&#xdd;" horiz-adv-x="598" d="M-10 84q0 19 8 35q12 22 147 235.5t142 237.5v47q0 54 -4 151.5t-8 177.5t-12.5 231t-12.5 220q11 74 98 74q73 0 143 -49.5t70 -112.5l-20 -108q-5 -33 -18 -107q-20 -122 -25 -151q14 0 35 21.5t35 43.5l14 21q55 83 131 210t125 226q9 17 16.5 27.5t23 20t35.5 9.5 q30 0 76.5 -10t95.5 -27.5t84 -48t35 -65.5q0 -25 -30 -62q-135 -154 -257 -308.5t-204.5 -269.5t-168.5 -247.5t-131 -207.5t-110.5 -188t-89.5 -153q-12 -27 -35 -27q-28 0 -108 60.5t-80 93.5zM584 1585q0 12 28 23q44 17 76 51t49.5 69t31.5 67.5t30.5 53.5t38.5 21 q64 0 100.5 -32.5t36.5 -80.5q0 -73 -82 -131.5t-231 -58.5q-78 0 -78 18z" />
<glyph unicode="&#xde;" horiz-adv-x="1114" d="M-35 84q0 19 8 35q311 610 361 692q51 84 101 172.5t81.5 149t90 172.5t95.5 182q18 34 48.5 46.5t87.5 12.5q39 0 75 -4.5t72 -14.5t58 -30.5t22 -48.5q0 -23 -31 -62q-111 -140 -239 -327q176 4 190 4q143 -13 213 -81t70 -171q0 -72 -33 -151.5t-95.5 -152.5 t-144 -131.5t-187.5 -94t-216 -35.5q-155 0 -240 63q-76 -148 -164 -352q-12 -27 -34 -27q-28 0 -108.5 61t-80.5 93zM440 475q67 -18 133 -18q78 0 154.5 31.5t131 79.5t88.5 106.5t34 111.5q0 71 -63.5 115.5t-194.5 44.5h-4q-146 -225 -279 -471z" />
<glyph unicode="&#xdf;" horiz-adv-x="749" d="M-242 -387q0 121 113.5 387.5t250 519t283 520t181.5 344.5q25 58 98 58q123 0 197 -90q96 -25 96 -133q0 -84 -57.5 -198t-157.5 -233q-4 -4 -20 -22t-24.5 -27.5t-20.5 -25t-19 -27.5t-10 -22q-2 -6 -2 -25q0 -21 8 -109t8 -135q0 -56 -6 -112.5t-23 -121t-43 -113.5 t-71.5 -81.5t-104.5 -32.5q-83 0 -158 87.5t-110 201.5q-219 -404 -219 -588q0 -6 -24 -29t-59.5 -45t-60.5 -22q-45 0 -45 74zM256 383q72 -205 113 -205q31 0 52 70.5t28.5 159.5t7.5 184q0 55 -4 113q-94 -144 -197 -322zM573 895q1 0 4.5 -1t4.5 -1q30 0 89.5 58 t106.5 128.5t47 104.5q0 22 -22 22q-12 0 -23 -14q-40 -49 -91.5 -123t-84 -124t-31.5 -50z" />
<glyph unicode="&#xe0;" horiz-adv-x="798" d="M-23 76q0 102 58.5 257.5t139 293t170 237t147.5 99.5q13 0 34 -9q41 -16 80 -55t39 -80q0 -32 -31 -63q61 -5 111.5 -43.5t50.5 -91.5q0 -37 -24 -70q-52 -69 -109 -163t-76 -148q-22 -62 -22 -95q0 -34 22 -34q21 0 49 28q9 8 34 36.5t71.5 83t75.5 87.5 q45 52 157.5 190.5t139.5 176.5q9 12 16 12q8 0 16 -9.5t12 -19.5l3 -10q-89 -143 -293 -418q-59 -81 -91 -123t-80.5 -99t-84 -83t-62.5 -26q-51 0 -88 45t-41 139q-14 -14 -48.5 -49t-54.5 -54t-48.5 -43t-50.5 -35.5t-39 -11.5q-63 0 -123 44t-60 104zM127 96 q0 -26 20 -26q15 0 33 12q62 52 165 217t128 233q4 8 4 23q0 17 -10.5 29t-24.5 12q-33 0 -110 -101.5t-141 -224t-64 -174.5zM434 1167q0 48 36.5 80.5t100.5 32.5q22 0 38.5 -21t30.5 -53.5t31.5 -67.5t49.5 -69t76 -51q28 -11 28 -23q0 -18 -77 -18q-149 0 -231.5 58.5 t-82.5 131.5z" />
<glyph unicode="&#xe1;" horiz-adv-x="798" d="M-23 76q0 102 58.5 257.5t139 293t170 237t147.5 99.5q13 0 34 -9q41 -16 80 -55t39 -80q0 -32 -31 -63q61 -5 111.5 -43.5t50.5 -91.5q0 -37 -24 -70q-52 -69 -109 -163t-76 -148q-22 -62 -22 -95q0 -34 22 -34q21 0 49 28q9 8 34 36.5t71.5 83t75.5 87.5 q45 52 157.5 190.5t139.5 176.5q9 12 16 12q8 0 16 -9.5t12 -19.5l3 -10q-89 -143 -293 -418q-59 -81 -91 -123t-80.5 -99t-84 -83t-62.5 -26q-51 0 -88 45t-41 139q-14 -14 -48.5 -49t-54.5 -54t-48.5 -43t-50.5 -35.5t-39 -11.5q-63 0 -123 44t-60 104zM127 96 q0 -26 20 -26q15 0 33 12q62 52 165 217t128 233q4 8 4 23q0 17 -10.5 29t-24.5 12q-33 0 -110 -101.5t-141 -224t-64 -174.5zM557 1016q0 10 29 22q53 21 90 67t52 88t36 74.5t47 32.5q64 0 100.5 -32t36.5 -80q0 -73 -82 -132t-231 -59q-78 0 -78 19z" />
<glyph unicode="&#xe2;" horiz-adv-x="798" d="M-23 76q0 102 58.5 257.5t139 293t170 237t147.5 99.5q13 0 34 -9q41 -16 80 -55t39 -80q0 -32 -31 -63q61 -5 111.5 -43.5t50.5 -91.5q0 -37 -24 -70q-52 -69 -109 -163t-76 -148q-22 -62 -22 -95q0 -34 22 -34q21 0 49 28q9 8 34 36.5t71.5 83t75.5 87.5 q45 52 157.5 190.5t139.5 176.5q9 12 16 12q8 0 16 -9.5t12 -19.5l3 -10q-89 -143 -293 -418q-59 -81 -91 -123t-80.5 -99t-84 -83t-62.5 -26q-51 0 -88 45t-41 139q-14 -14 -48.5 -49t-54.5 -54t-48.5 -43t-50.5 -35.5t-39 -11.5q-63 0 -123 44t-60 104zM127 96 q0 -26 20 -26q15 0 33 12q62 52 165 217t128 233q4 8 4 23q0 17 -10.5 29t-24.5 12q-33 0 -110 -101.5t-141 -224t-64 -174.5zM348 1057q0 14 33 20q39 9 72.5 27.5t63.5 49t44.5 48.5t40.5 53q32 43 78 43q41 0 73.5 -31.5t32.5 -68.5q15 -19 25.5 -60.5t32 -82.5t67.5 -72 q13 -10 13 -18q0 -16 -28 -31.5t-50 -15.5q-21 0 -38 3t-33 13t-25.5 16t-24.5 25.5t-21 27t-23.5 34t-23.5 34.5q-78 -57 -184 -57q-51 0 -88 14t-37 29z" />
<glyph unicode="&#xe3;" horiz-adv-x="798" d="M-23 76q0 102 58.5 257.5t139 293t170 237t147.5 99.5q13 0 34 -9q41 -16 80 -55t39 -80q0 -32 -31 -63q61 -5 111.5 -43.5t50.5 -91.5q0 -37 -24 -70q-52 -69 -109 -163t-76 -148q-22 -62 -22 -95q0 -34 22 -34q21 0 49 28q9 8 34 36.5t71.5 83t75.5 87.5 q45 52 157.5 190.5t139.5 176.5q9 12 16 12q8 0 16 -9.5t12 -19.5l3 -10q-89 -143 -293 -418q-59 -81 -91 -123t-80.5 -99t-84 -83t-62.5 -26q-51 0 -88 45t-41 139q-14 -14 -48.5 -49t-54.5 -54t-48.5 -43t-50.5 -35.5t-39 -11.5q-63 0 -123 44t-60 104zM127 96 q0 -26 20 -26q15 0 33 12q62 52 165 217t128 233q4 8 4 23q0 17 -10.5 29t-24.5 12q-33 0 -110 -101.5t-141 -224t-64 -174.5zM393 1098q0 35 62.5 81t138.5 46q35 0 67 -13.5t58 -32.5t55 -38.5t70.5 -33t91.5 -13.5q10 0 22.5 1t16.5 1q26 0 26 -21q0 -35 -56.5 -79 t-129.5 -44q-43 0 -87.5 20t-78.5 44.5t-86 44.5t-108 20q-7 0 -19 -1t-18 -1q-25 0 -25 19z" />
<glyph unicode="&#xe4;" horiz-adv-x="798" d="M-23 76q0 102 58.5 257.5t139 293t170 237t147.5 99.5q13 0 34 -9q41 -16 80 -55t39 -80q0 -32 -31 -63q61 -5 111.5 -43.5t50.5 -91.5q0 -37 -24 -70q-52 -69 -109 -163t-76 -148q-22 -62 -22 -95q0 -34 22 -34q21 0 49 28q9 8 34 36.5t71.5 83t75.5 87.5 q45 52 157.5 190.5t139.5 176.5q9 12 16 12q8 0 16 -9.5t12 -19.5l3 -10q-89 -143 -293 -418q-59 -81 -91 -123t-80.5 -99t-84 -83t-62.5 -26q-51 0 -88 45t-41 139q-14 -14 -48.5 -49t-54.5 -54t-48.5 -43t-50.5 -35.5t-39 -11.5q-63 0 -123 44t-60 104zM127 96 q0 -26 20 -26q15 0 33 12q62 52 165 217t128 233q4 8 4 23q0 17 -10.5 29t-24.5 12q-33 0 -110 -101.5t-141 -224t-64 -174.5zM381 1110q0 53 47 112.5t100 59.5q57 0 101.5 -45.5t44.5 -85.5t-41 -100t-76 -60q-51 0 -113.5 39t-62.5 80zM698 1059q0 51 48.5 111.5 t99.5 60.5q58 0 101.5 -45.5t43.5 -85.5t-39.5 -100t-74.5 -60q-51 0 -115 39.5t-64 79.5z" />
<glyph unicode="&#xe5;" horiz-adv-x="798" d="M-23 76q0 102 58.5 257.5t139 293t170 237t147.5 99.5q13 0 34 -9q41 -16 80 -55t39 -80q0 -32 -31 -63q61 -5 111.5 -43.5t50.5 -91.5q0 -37 -24 -70q-52 -69 -109 -163t-76 -148q-22 -62 -22 -95q0 -34 22 -34q21 0 49 28q9 8 34 36.5t71.5 83t75.5 87.5 q45 52 157.5 190.5t139.5 176.5q9 12 16 12q8 0 16 -9.5t12 -19.5l3 -10q-89 -143 -293 -418q-59 -81 -91 -123t-80.5 -99t-84 -83t-62.5 -26q-51 0 -88 45t-41 139q-14 -14 -48.5 -49t-54.5 -54t-48.5 -43t-50.5 -35.5t-39 -11.5q-63 0 -123 44t-60 104zM127 96 q0 -26 20 -26q15 0 33 12q62 52 165 217t128 233q4 8 4 23q0 17 -10.5 29t-24.5 12q-33 0 -110 -101.5t-141 -224t-64 -174.5zM520 1069q0 60 54.5 129.5t113.5 69.5q66 0 117 -52.5t51 -97.5t-47.5 -113.5t-87.5 -68.5q-58 0 -129.5 44t-71.5 89zM612 1087q0 -21 28.5 -39 t53.5 -18q16 0 35 29t19 49q0 19 -20.5 40t-47.5 21q-24 0 -46 -28.5t-22 -53.5z" />
<glyph unicode="&#xe6;" horiz-adv-x="1087" d="M-23 76q0 102 58.5 257.5t139 293t170 237t147.5 99.5q13 0 34 -9q41 -16 80 -55t39 -80q0 -32 -31 -63q1 0 2 -1t2 -1q70 90 145.5 142t143.5 52q30 0 52.5 -27.5t45 -66.5t46.5 -55q7 -5 34 -18.5t41.5 -24t28.5 -37t14 -62.5q0 -45 -112.5 -141.5t-244.5 -183 t-230 -137.5q-7 -51 -7 -84q0 -72 66 -72q174 0 440 307q45 52 157.5 190.5t139.5 176.5q9 12 17 12t15.5 -9.5t11.5 -19.5l3 -10q-80 -129 -292 -418q-110 -150 -241.5 -253t-225.5 -103q-36 0 -88.5 26t-104 77t-70.5 108q-14 -14 -48.5 -49t-55 -54.5t-49 -44t-51 -36 t-39.5 -11.5q-63 0 -123 44t-60 104zM127 96q0 -26 20 -26q15 0 33 12q62 52 165 217t128 233q4 8 4 23q0 17 -10.5 29t-24.5 12q-33 0 -110 -101.5t-141 -224t-64 -174.5zM616 313q89 60 156 117.5t108 106.5t63 82t40 69q-6 4 -22 4q-54 0 -134.5 -74t-121.5 -133l-15 -22 q-51 -83 -74 -150z" />
<glyph unicode="&#xe7;" horiz-adv-x="702" d="M-94 -332q0 38 30 64t73 40t85.5 28t72.5 40t30 64v6q-78 33 -137.5 106.5t-59.5 165.5q0 85 46.5 200t117 222t152 201t151.5 147q29 23 65 23q78 0 131.5 -43.5t53.5 -116.5q0 -29 25.5 -62t25.5 -48q0 -16 -14 -33q-42 -49 -112.5 -161t-90.5 -187q-6 -19 -27 -19 q-32 0 -76.5 40t-44.5 69q0 9 11.5 34t11.5 29q0 19 -16 19q-33 0 -86.5 -82.5t-93.5 -180t-40 -141.5q0 -53 70 -53q174 0 440 307q45 52 157.5 190.5t139.5 176.5q9 12 17 12t15.5 -9.5t10.5 -19.5l4 -10q-80 -129 -292 -418q-273 -374 -486 -374q-3 0 -10 1t-10 1 q14 -35 14 -72q0 -33 -15.5 -55.5t-38.5 -32t-50.5 -21.5t-52 -24.5t-42.5 -40.5t-22 -70q-3 -18 -27 -18q-33 0 -69.5 30.5t-36.5 75.5z" />
<glyph unicode="&#xe8;" horiz-adv-x="704" d="M10 184q0 112 49.5 248.5t123.5 249.5t167 189.5t174 76.5q30 0 52.5 -27.5t45 -66.5t46.5 -55q7 -5 34 -18.5t41.5 -24t28.5 -37t14 -62.5q0 -45 -112.5 -141.5t-244.5 -183t-230 -137.5q-6 -43 -6 -84q0 -72 65 -72q174 0 440 307q45 52 157.5 190.5t139.5 176.5 q9 12 17 12t15.5 -9.5t10.5 -19.5l4 -10q-80 -129 -292 -418q-110 -150 -241.5 -253t-225.5 -103q-30 0 -75.5 21t-90 56t-76 87.5t-31.5 107.5zM233 313q89 60 156 117.5t108 106.5t63 82t40 69q-12 4 -20 4q-104 -25 -200 -133t-147 -246zM457 1151q0 48 36.5 80.5 t100.5 32.5q26 0 47 -32.5t36 -75t52 -88.5t90 -67q29 -12 29 -22q0 -18 -78 -18q-149 0 -231 58.5t-82 131.5z" />
<glyph unicode="&#xe9;" horiz-adv-x="704" d="M10 184q0 112 49.5 248.5t123.5 249.5t167 189.5t174 76.5q30 0 52.5 -27.5t45 -66.5t46.5 -55q7 -5 34 -18.5t41.5 -24t28.5 -37t14 -62.5q0 -45 -112.5 -141.5t-244.5 -183t-230 -137.5q-6 -43 -6 -84q0 -72 65 -72q174 0 440 307q45 52 157.5 190.5t139.5 176.5 q9 12 17 12t15.5 -9.5t10.5 -19.5l4 -10q-80 -129 -292 -418q-110 -150 -241.5 -253t-225.5 -103q-30 0 -75.5 21t-90 56t-76 87.5t-31.5 107.5zM233 313q89 60 156 117.5t108 106.5t63 82t40 69q-12 4 -20 4q-104 -25 -200 -133t-147 -246zM618 1018q0 10 29 22 q53 21 90 67t52 88.5t36 75t47 32.5q64 0 101 -32.5t37 -80.5q0 -73 -82.5 -132t-231.5 -59q-78 0 -78 19z" />
<glyph unicode="&#xea;" horiz-adv-x="704" d="M10 184q0 112 49.5 248.5t123.5 249.5t167 189.5t174 76.5q30 0 52.5 -27.5t45 -66.5t46.5 -55q7 -5 34 -18.5t41.5 -24t28.5 -37t14 -62.5q0 -45 -112.5 -141.5t-244.5 -183t-230 -137.5q-6 -43 -6 -84q0 -72 65 -72q174 0 440 307q45 52 157.5 190.5t139.5 176.5 q9 12 17 12t15.5 -9.5t10.5 -19.5l4 -10q-80 -129 -292 -418q-110 -150 -241.5 -253t-225.5 -103q-30 0 -75.5 21t-90 56t-76 87.5t-31.5 107.5zM233 313q89 60 156 117.5t108 106.5t63 82t40 69q-12 4 -20 4q-104 -25 -200 -133t-147 -246zM344 1057q0 14 33 20 q39 9 72.5 27.5t63.5 49t44.5 48.5t40.5 53q32 43 78 43q41 0 73.5 -31.5t32.5 -68.5q15 -19 25.5 -60.5t32 -82.5t67.5 -72q13 -10 13 -18q0 -16 -28 -31.5t-50 -15.5q-21 0 -38 3t-33 13t-25.5 16t-24.5 25.5t-21 27t-23.5 34t-23.5 34.5q-78 -57 -184 -57q-51 0 -88 14 t-37 29z" />
<glyph unicode="&#xeb;" horiz-adv-x="704" d="M10 184q0 112 49.5 248.5t123.5 249.5t167 189.5t174 76.5q30 0 52.5 -27.5t45 -66.5t46.5 -55q7 -5 34 -18.5t41.5 -24t28.5 -37t14 -62.5q0 -45 -112.5 -141.5t-244.5 -183t-230 -137.5q-6 -43 -6 -84q0 -72 65 -72q174 0 440 307q45 52 157.5 190.5t139.5 176.5 q9 12 17 12t15.5 -9.5t10.5 -19.5l4 -10q-80 -129 -292 -418q-110 -150 -241.5 -253t-225.5 -103q-30 0 -75.5 21t-90 56t-76 87.5t-31.5 107.5zM233 313q89 60 156 117.5t108 106.5t63 82t40 69q-12 4 -20 4q-104 -25 -200 -133t-147 -246zM373 1124q0 53 47 112.5 t100 59.5q57 0 101.5 -45.5t44.5 -85.5t-41 -99.5t-76 -59.5q-51 0 -113.5 38.5t-62.5 79.5zM690 1073q0 51 48.5 111.5t99.5 60.5q58 0 101.5 -45.5t43.5 -85.5t-40 -100t-75 -60q-51 0 -114.5 39.5t-63.5 79.5z" />
<glyph unicode="&#xec;" d="M27 197q0 59 35.5 160t100.5 249t85 201q22 57 98 57q49 0 101.5 -43.5t52.5 -93.5q0 -27 -15 -49q-108 -161 -196 -326t-88 -198t18 -33q5 0 14 6q29 20 91.5 79.5t124.5 139.5q44 51 156 190t140 177q9 12 17 12t16 -9.5t12 -19.5l3 -10q-68 -109 -293 -418 q-164 -223 -258 -303q-25 -22 -56 -22q-60 0 -109.5 88t-49.5 166zM236 1118q0 48 36.5 80.5t100.5 32.5q26 0 47 -32.5t36 -74.5t52 -88t90 -67q29 -12 29 -23q0 -18 -78 -18q-149 0 -231 58.5t-82 131.5z" />
<glyph unicode="&#xed;" d="M27 197q0 59 35.5 160t100.5 249t85 201q22 57 98 57q49 0 101.5 -43.5t52.5 -93.5q0 -27 -15 -49q-108 -161 -196 -326t-88 -198t18 -33q5 0 14 6q29 20 91.5 79.5t124.5 139.5q44 51 156 190t140 177q9 12 17 12t16 -9.5t12 -19.5l3 -10q-68 -109 -293 -418 q-164 -223 -258 -303q-25 -22 -56 -22q-60 0 -109.5 88t-49.5 166zM326 967q0 11 28 22q44 17 76 51t49.5 69t31.5 67.5t30.5 53.5t38.5 21q64 0 100.5 -32t36.5 -80q0 -73 -82.5 -132t-231.5 -59q-77 0 -77 19z" />
<glyph unicode="&#xee;" d="M27 197q0 59 35.5 160t100.5 249t85 201q22 57 98 57q49 0 101.5 -43.5t52.5 -93.5q0 -27 -15 -49q-108 -161 -196 -326t-88 -198t18 -33q5 0 14 6q29 20 91.5 79.5t124.5 139.5q44 51 156 190t140 177q9 12 17 12t16 -9.5t12 -19.5l3 -10q-68 -109 -293 -418 q-164 -223 -258 -303q-25 -22 -56 -22q-60 0 -109.5 88t-49.5 166zM184 1057q0 14 33 20q39 9 72.5 27.5t63.5 49t44.5 48.5t40.5 53q32 43 78 43q41 0 74 -31.5t33 -68.5q15 -19 25.5 -60.5t32 -82.5t67.5 -72q12 -9 12 -18q0 -16 -28 -31.5t-50 -15.5q-21 0 -38 3 t-32.5 13t-25.5 16.5t-24.5 25t-21 27t-23 33.5t-23.5 35q-78 -57 -185 -57q-51 0 -88 14t-37 29z" />
<glyph unicode="&#xef;" d="M27 197q0 59 35.5 160t100.5 249t85 201q22 57 98 57q49 0 101.5 -43.5t52.5 -93.5q0 -27 -15 -49q-108 -161 -196 -326t-88 -198t18 -33q5 0 14 6q29 20 91.5 79.5t124.5 139.5q44 51 156 190t140 177q9 12 17 12t16 -9.5t12 -19.5l3 -10q-68 -109 -293 -418 q-164 -223 -258 -303q-25 -22 -56 -22q-60 0 -109.5 88t-49.5 166zM172 1110q0 53 47 112.5t100 59.5q57 0 101.5 -45.5t44.5 -85.5t-41 -100t-76 -60q-51 0 -113.5 39t-62.5 80zM489 1059q0 51 48.5 111.5t99.5 60.5q58 0 101.5 -45.5t43.5 -85.5t-39.5 -100t-74.5 -60 q-51 0 -115 39.5t-64 79.5z" />
<glyph unicode="&#xf0;" horiz-adv-x="655" d="M-35 133q0 109 51 257t122.5 272.5t153 212.5t138.5 88q35 0 88.5 -37.5t69.5 -91.5q10 82 10 135q0 56 -10 114q-84 -7 -197 -22q-24 4 -40.5 29.5t-16.5 52.5q0 38 28 49q36 16 168 33q-48 78 -176 190v21q0 17 2 33.5t7.5 36t18 31t30.5 11.5q27 0 53 -18 q159 -104 244 -291q35 2 102 2q37 0 78 -38.5t41 -72.5q0 -43 -72 -43h-100q16 -75 16 -137q0 -96 -41 -231.5t-110 -271.5t-149.5 -254.5t-168.5 -192.5t-158 -74q-182 0 -182 207zM109 66q0 -27 20 -27q39 0 118.5 99t143.5 224.5t64 190.5q0 49 -41 49q-33 0 -85 -51.5 t-100.5 -127.5t-84 -174.5t-35.5 -182.5z" />
<glyph unicode="&#xf1;" horiz-adv-x="860" d="M-39 80q0 55 53.5 196.5t126.5 289.5t159 262t142 114q42 0 92 -39.5t50 -83.5q0 -38 -41 -71q-43 -36 -147.5 -173.5t-104.5 -162.5q0 -6 4 -6q18 0 103.5 93t181 194t131.5 116q61 -5 111 -43.5t50 -91.5q0 -37 -24 -70q-51 -68 -108 -162.5t-76 -148.5 q-23 -65 -23 -94q0 -35 23 -35q10 0 23 6.5t28.5 20.5t29.5 27t32.5 33.5t29.5 33.5t28.5 34l22.5 27q45 52 157.5 190.5t139.5 176.5q9 12 16 12q8 0 15.5 -9.5t11.5 -19.5l4 -10q-89 -143 -293 -418q-78 -107 -176 -194.5t-166 -87.5q-100 0 -100 211q0 58 9.5 104 t19.5 63l10 17q-21 0 -69 -38t-87 -87q-54 -65 -100.5 -150t-71.5 -157q-14 -41 -49 -41q-43 0 -105.5 54.5t-62.5 117.5zM367 1098q0 35 62 81t138 46q35 0 67 -13.5t58 -32.5t55 -38.5t70.5 -33t91.5 -13.5q10 0 22.5 1t16.5 1q27 0 27 -21q0 -35 -57 -79t-130 -44 q-43 0 -87.5 20t-78.5 44.5t-86 44.5t-108 20q-7 0 -19 -1t-18 -1q-24 0 -24 19z" />
<glyph unicode="&#xf2;" horiz-adv-x="671" d="M-35 133q0 109 51 257t122.5 272.5t153 212.5t138.5 88q21 0 41 -16.5t45 -42t45 -38.5q74 0 126 -49t52 -104q0 -28 -40.5 -115.5t-102.5 -191.5h4q101 0 193 106q24 28 64.5 73.5t69.5 79t40 48.5q9 12 16 12q8 0 15.5 -9.5t11.5 -19.5l4 -10q-59 -94 -158 -235 q-60 -85 -138 -128.5t-153 -43.5q-31 0 -45 4q-104 -156 -203 -256.5t-170 -100.5q-182 0 -182 207zM109 66q0 -27 20 -27q40 0 123.5 107t144.5 229q-16 37 -16 78q0 72 39 149h-6q-33 0 -85 -51.5t-100.5 -127.5t-84 -174.5t-35.5 -182.5zM391 1169q0 48 36.5 80.5 t100.5 32.5q22 0 38.5 -21t30.5 -53.5t31.5 -67.5t49.5 -69t76 -51q28 -11 28 -23q0 -18 -77 -18q-149 0 -231.5 58.5t-82.5 131.5z" />
<glyph unicode="&#xf3;" horiz-adv-x="671" d="M-35 133q0 109 51 257t122.5 272.5t153 212.5t138.5 88q21 0 41 -16.5t45 -42t45 -38.5q74 0 126 -49t52 -104q0 -28 -40.5 -115.5t-102.5 -191.5h4q101 0 193 106q24 28 64.5 73.5t69.5 79t40 48.5q9 12 16 12q8 0 15.5 -9.5t11.5 -19.5l4 -10q-59 -94 -158 -235 q-60 -85 -138 -128.5t-153 -43.5q-31 0 -45 4q-104 -156 -203 -256.5t-170 -100.5q-182 0 -182 207zM109 66q0 -27 20 -27q40 0 123.5 107t144.5 229q-16 37 -16 78q0 72 39 149h-6q-33 0 -85 -51.5t-100.5 -127.5t-84 -174.5t-35.5 -182.5zM557 1006q0 10 29 22 q53 21 90 67t52 88t36 74.5t47 32.5q64 0 100.5 -32t36.5 -80q0 -73 -82 -132t-231 -59q-78 0 -78 19z" />
<glyph unicode="&#xf4;" horiz-adv-x="671" d="M-35 133q0 109 51 257t122.5 272.5t153 212.5t138.5 88q21 0 41 -16.5t45 -42t45 -38.5q74 0 126 -49t52 -104q0 -28 -40.5 -115.5t-102.5 -191.5h4q101 0 193 106q24 28 64.5 73.5t69.5 79t40 48.5q9 12 16 12q8 0 15.5 -9.5t11.5 -19.5l4 -10q-59 -94 -158 -235 q-60 -85 -138 -128.5t-153 -43.5q-31 0 -45 4q-104 -156 -203 -256.5t-170 -100.5q-182 0 -182 207zM109 66q0 -27 20 -27q40 0 123.5 107t144.5 229q-16 37 -16 78q0 72 39 149h-6q-33 0 -85 -51.5t-100.5 -127.5t-84 -174.5t-35.5 -182.5zM309 1057q0 14 33 20 q39 9 72.5 27.5t63.5 49t44.5 48.5t40.5 53q32 43 78 43q41 0 74 -31.5t33 -68.5q15 -19 25.5 -60.5t31.5 -82.5t67 -72q13 -10 13 -18q0 -16 -28 -31.5t-50 -15.5q-21 0 -38 3t-33 13t-25.5 16t-24.5 25.5t-21 27t-23.5 34t-23.5 34.5q-78 -57 -184 -57q-51 0 -88 14 t-37 29z" />
<glyph unicode="&#xf5;" horiz-adv-x="671" d="M-35 133q0 109 51 257t122.5 272.5t153 212.5t138.5 88q21 0 41 -16.5t45 -42t45 -38.5q74 0 126 -49t52 -104q0 -28 -40.5 -115.5t-102.5 -191.5h4q101 0 193 106q24 28 64.5 73.5t69.5 79t40 48.5q9 12 16 12q8 0 15.5 -9.5t11.5 -19.5l4 -10q-59 -94 -158 -235 q-60 -85 -138 -128.5t-153 -43.5q-31 0 -45 4q-104 -156 -203 -256.5t-170 -100.5q-182 0 -182 207zM109 66q0 -27 20 -27q40 0 123.5 107t144.5 229q-16 37 -16 78q0 72 39 149h-6q-33 0 -85 -51.5t-100.5 -127.5t-84 -174.5t-35.5 -182.5zM326 1102q0 35 62 81t138 46 q35 0 67 -13.5t58 -32.5t55 -38.5t70.5 -33t91.5 -13.5q10 0 22.5 1t16.5 1q27 0 27 -21q0 -35 -56.5 -79t-129.5 -44q-43 0 -88 20t-78.5 44.5t-86 44.5t-108.5 20q-7 0 -19 -1t-18 -1q-24 0 -24 19z" />
<glyph unicode="&#xf6;" horiz-adv-x="671" d="M-35 133q0 109 51 257t122.5 272.5t153 212.5t138.5 88q21 0 41 -16.5t45 -42t45 -38.5q74 0 126 -49t52 -104q0 -28 -40.5 -115.5t-102.5 -191.5h4q101 0 193 106q24 28 64.5 73.5t69.5 79t40 48.5q9 12 16 12q8 0 15.5 -9.5t11.5 -19.5l4 -10q-59 -94 -158 -235 q-60 -85 -138 -128.5t-153 -43.5q-31 0 -45 4q-104 -156 -203 -256.5t-170 -100.5q-182 0 -182 207zM109 66q0 -27 20 -27q40 0 123.5 107t144.5 229q-16 37 -16 78q0 72 39 149h-6q-33 0 -85 -51.5t-100.5 -127.5t-84 -174.5t-35.5 -182.5zM326 1110q0 53 47 112.5 t100 59.5q57 0 101 -45.5t44 -85.5t-40.5 -100t-75.5 -60q-51 0 -113.5 39t-62.5 80zM643 1059q0 51 48.5 111.5t99.5 60.5q58 0 101.5 -45.5t43.5 -85.5t-40 -100t-75 -60q-51 0 -114.5 39.5t-63.5 79.5z" />
<glyph unicode="&#xf8;" horiz-adv-x="671" d="M-43 -176q0 10 4 16l64 125q-60 51 -60 168q0 109 51 257t122.5 272.5t153 212.5t138.5 88q12 0 25.5 -7t21.5 -14.5t24.5 -24.5t24.5 -24l70 135q13 35 45 35q30 0 59 -26.5t29 -51.5q0 -8 -2 -10q-45 -48 -102 -121q50 -18 82 -59.5t32 -81.5q0 -28 -40.5 -115.5 t-102.5 -191.5h4q101 0 193 106q24 28 64.5 73.5t69.5 79t40 48.5q9 12 16 12q8 0 15.5 -9.5t11.5 -19.5l4 -10q-59 -94 -158 -235q-60 -85 -138 -128.5t-153 -43.5q-31 0 -45 4q-104 -156 -203 -256.5t-170 -100.5q-21 0 -49 4l-35 -82q-6 -15 -32.5 -28t-48.5 -13 q-25 0 -25 17zM113 129l241 446q-73 -59 -147.5 -189.5t-93.5 -256.5zM150 45q46 26 120 125t127 205q-16 37 -16 78q0 24 2 36q-112 -193 -233 -444z" />
<glyph unicode="&#xf9;" horiz-adv-x="821" d="M14 141q0 67 16.5 150.5t46 171t53.5 151.5t56 140t37 90q10 25 51.5 38t94.5 13q60 0 102.5 -16.5t42.5 -47.5q0 -30 -38 -93.5t-92 -139t-107.5 -155t-91.5 -159.5t-38 -134q0 -70 37 -70q39 0 107.5 72t132.5 178q37 126 107 281t110 204q9 -1 23 -2.5t50.5 -9 t64 -18.5t50.5 -32t23 -48q0 -22 -23 -60q-93 -137 -173.5 -293.5t-80.5 -210.5q0 -20 15 -20q5 0 14 6q29 20 91 79.5t124 139.5q45 52 157.5 190.5t139.5 176.5q9 12 17 12t15.5 -9.5t11.5 -19.5l3 -10q-68 -109 -293 -418q-164 -223 -258 -303q-25 -22 -55 -22 q-52 0 -97.5 67t-58.5 144q-72 -87 -148 -142t-134 -55q-105 0 -105 184zM385 1139q0 48 36.5 80t100.5 32q22 0 38.5 -21t30.5 -53.5t31.5 -67.5t49.5 -69t76 -51q28 -11 28 -22q0 -19 -78 -19q-149 0 -231 59t-82 132z" />
<glyph unicode="&#xfa;" horiz-adv-x="821" d="M14 141q0 67 16.5 150.5t46 171t53.5 151.5t56 140t37 90q10 25 51.5 38t94.5 13q60 0 102.5 -16.5t42.5 -47.5q0 -30 -38 -93.5t-92 -139t-107.5 -155t-91.5 -159.5t-38 -134q0 -70 37 -70q39 0 107.5 72t132.5 178q37 126 107 281t110 204q9 -1 23 -2.5t50.5 -9 t64 -18.5t50.5 -32t23 -48q0 -22 -23 -60q-93 -137 -173.5 -293.5t-80.5 -210.5q0 -20 15 -20q5 0 14 6q29 20 91 79.5t124 139.5q45 52 157.5 190.5t139.5 176.5q9 12 17 12t15.5 -9.5t11.5 -19.5l3 -10q-68 -109 -293 -418q-164 -223 -258 -303q-25 -22 -55 -22 q-52 0 -97.5 67t-58.5 144q-72 -87 -148 -142t-134 -55q-105 0 -105 184zM508 967q0 10 29 22q53 21 90 67t52 88t36 74.5t47 32.5q64 0 100.5 -32t36.5 -80q0 -73 -82 -132t-231 -59q-78 0 -78 19z" />
<glyph unicode="&#xfb;" horiz-adv-x="821" d="M14 141q0 67 16.5 150.5t46 171t53.5 151.5t56 140t37 90q10 25 51.5 38t94.5 13q60 0 102.5 -16.5t42.5 -47.5q0 -30 -38 -93.5t-92 -139t-107.5 -155t-91.5 -159.5t-38 -134q0 -70 37 -70q39 0 107.5 72t132.5 178q37 126 107 281t110 204q9 -1 23 -2.5t50.5 -9 t64 -18.5t50.5 -32t23 -48q0 -22 -23 -60q-93 -137 -173.5 -293.5t-80.5 -210.5q0 -20 15 -20q5 0 14 6q29 20 91 79.5t124 139.5q45 52 157.5 190.5t139.5 176.5q9 12 17 12t15.5 -9.5t11.5 -19.5l3 -10q-68 -109 -293 -418q-164 -223 -258 -303q-25 -22 -55 -22 q-52 0 -97.5 67t-58.5 144q-72 -87 -148 -142t-134 -55q-105 0 -105 184zM336 1057q0 14 33 20q39 9 72.5 27.5t63.5 49t44.5 48.5t40.5 53q32 43 78 43q41 0 73.5 -31.5t32.5 -68.5q15 -19 25.5 -60.5t32 -82.5t67.5 -72q12 -9 12 -18q0 -16 -27.5 -31.5t-49.5 -15.5 q-21 0 -38 3t-33 13t-25.5 16t-24.5 25.5t-21 27t-23.5 34t-23.5 34.5q-78 -57 -184 -57q-51 0 -88 14t-37 29z" />
<glyph unicode="&#xfc;" horiz-adv-x="821" d="M14 141q0 67 16.5 150.5t46 171t53.5 151.5t56 140t37 90q10 25 51.5 38t94.5 13q60 0 102.5 -16.5t42.5 -47.5q0 -30 -38 -93.5t-92 -139t-107.5 -155t-91.5 -159.5t-38 -134q0 -70 37 -70q39 0 107.5 72t132.5 178q37 126 107 281t110 204q9 -1 23 -2.5t50.5 -9 t64 -18.5t50.5 -32t23 -48q0 -22 -23 -60q-93 -137 -173.5 -293.5t-80.5 -210.5q0 -20 15 -20q5 0 14 6q29 20 91 79.5t124 139.5q45 52 157.5 190.5t139.5 176.5q9 12 17 12t15.5 -9.5t11.5 -19.5l3 -10q-68 -109 -293 -418q-164 -223 -258 -303q-25 -22 -55 -22 q-52 0 -97.5 67t-58.5 144q-72 -87 -148 -142t-134 -55q-105 0 -105 184zM299 1110q0 53 47 112.5t100 59.5q57 0 101.5 -45.5t44.5 -85.5t-41 -100t-76 -60q-51 0 -113.5 39t-62.5 80zM616 1059q0 51 48.5 111.5t99.5 60.5q58 0 101.5 -45.5t43.5 -85.5t-39.5 -100 t-74.5 -60q-51 0 -115 39.5t-64 79.5z" />
<glyph unicode="&#xfd;" horiz-adv-x="747" d="M-12 45q0 67 20 160t55 196t63.5 179t65.5 165t41 99q10 25 50.5 38t93.5 13q59 0 102 -17t43 -47q0 -39 -58 -135.5t-146.5 -226t-120.5 -184.5q-54 -92 -54 -135q0 -35 31 -35q50 0 140.5 83.5t160.5 211.5q80 186 219 520q22 57 99 57q48 0 98.5 -45t50.5 -96 q0 -28 -14 -49q-86 -131 -150 -236.5t-158.5 -278t-186 -384.5t-175.5 -451q-6 -18 -17 -28.5t-19 -11.5l-7 -1q-39 7 -87 46t-48 75q0 6 4 18q98 197 246 533q-69 -63 -138.5 -101t-119.5 -38q-84 0 -84 106zM432 1040q0 11 29 23q53 21 90 67t52 88t36 74.5t47 32.5 q64 0 100.5 -32.5t36.5 -80.5q0 -73 -82 -131.5t-231 -58.5q-78 0 -78 18z" />
<glyph unicode="&#xfe;" horiz-adv-x="692" d="M-309 -451q0 14 6 29q248 489 446 914q79 170 265.5 518t212.5 415q22 58 98 58q48 0 105 -48t57 -98q0 -27 -15 -49q-7 -11 -118.5 -175.5t-182.5 -276.5q0 -7 -4 -19q102 25 148 25q106 0 106 -109q0 -80 -50.5 -209t-125 -250.5t-170.5 -210t-176 -88.5q-81 0 -137 91 q-129 -278 -260 -613q-9 -26 -19 -35.5t-31 -9.5q-33 0 -94 44t-61 97zM201 160q34 -37 73 -37q33 0 101.5 89t125 203t56.5 175q0 49 -41 49q-22 0 -57 -6q-165 -285 -258 -473z" />
<glyph unicode="&#xff;" horiz-adv-x="747" d="M-12 45q0 67 20 160t55 196t63.5 179t65.5 165t41 99q10 25 50.5 38t93.5 13q59 0 102 -17t43 -47q0 -39 -58 -135.5t-146.5 -226t-120.5 -184.5q-54 -92 -54 -135q0 -35 31 -35q50 0 140.5 83.5t160.5 211.5q80 186 219 520q22 57 99 57q48 0 98.5 -45t50.5 -96 q0 -28 -14 -49q-86 -131 -150 -236.5t-158.5 -278t-186 -384.5t-175.5 -451q-6 -18 -17 -28.5t-19 -11.5l-7 -1q-39 7 -87 46t-48 75q0 6 4 18q98 197 246 533q-69 -63 -138.5 -101t-119.5 -38q-84 0 -84 106zM381 1212q0 53 47 112.5t100 59.5q57 0 101.5 -45.5t44.5 -85.5 t-41 -99.5t-76 -59.5q-51 0 -113.5 38.5t-62.5 79.5zM698 1161q0 51 48.5 111.5t99.5 60.5q58 0 101.5 -45.5t43.5 -85.5t-39.5 -100t-74.5 -60q-51 0 -115 39.5t-64 79.5z" />
<glyph unicode="&#x152;" horiz-adv-x="1380" d="M2 305q0 94 38.5 227t101 271t147 275t172 243.5t180.5 173t168 66.5q67 0 127.5 -40.5t91.5 -111.5q40 -11 80 -27q10 45 14 88q0 28 49 35q64 12 266.5 18.5t313.5 6.5q44 0 76.5 -52t32.5 -112q0 -72 -48 -98q-30 0 -110 3t-103 3q-142 0 -169 -39q-44 -61 -145 -220 t-101 -177q0 -33 37 -33q143 0 157 -2q26 -3 47 -42t21 -81q0 -35 -18.5 -60.5t-55.5 -29.5q-96 -11 -185.5 -28.5t-130.5 -29.5l-42 -12q-25 -25 -82.5 -131t-57.5 -137q0 -25 52 -25q38 0 122 9.5t134 9.5q67 0 115.5 -51.5t48.5 -133.5q0 -51 -35 -51q-101 0 -250 -28.5 t-236 -65.5q-18 -8 -69 -8q-30 0 -72.5 29t-81.5 71q-129 -104 -229 -104q-51 0 -99 26q-272 74 -272 375zM248 231q0 -63 21 -102t59 -39q69 0 157.5 89t167.5 223t147.5 279t109 268t40.5 179q0 13 -2.5 28.5t-8.5 33.5t-18.5 29.5t-29.5 11.5q-79 0 -193 -120.5 t-212 -283t-168 -332.5t-70 -264z" />
<glyph unicode="&#x153;" horiz-adv-x="1062" d="M-35 133q0 109 51 257t122.5 272.5t153 212.5t138.5 88q21 0 41 -16.5t45 -42t45 -38.5q59 0 105 -32q117 114 217 114q30 0 52 -27.5t44.5 -66.5t46.5 -55q8 -5 35 -18.5t41.5 -24t28.5 -37t14 -62.5q0 -58 -232 -239q-184 -144 -340 -154q-22 -83 -22 -153 q0 -72 65 -72q175 0 441 307q45 52 157.5 190.5t139.5 176.5q9 12 16 12q8 0 16 -9.5t12 -19.5l3 -10q-74 -119 -293 -418q-110 -150 -241.5 -253t-225.5 -103q-54 0 -137 56t-117 134q-148 -176 -240 -176q-182 0 -182 207zM109 66q0 -27 20 -27q38 0 115.5 96.5 t138.5 214.5q-14 28 -14 74q0 82 51 176q-1 0 -3 1t-3 1q-33 0 -85 -51.5t-100.5 -127.5t-84 -174.5t-35.5 -182.5zM625 391q159 51 311 271l18 28q-6 2 -16 2q-89 -21 -172 -104t-141 -197z" />
<glyph unicode="&#x178;" horiz-adv-x="598" d="M-10 84q0 19 8 35q12 22 147 235.5t142 237.5v47q0 54 -4 151.5t-8 177.5t-12.5 231t-12.5 220q11 74 98 74q73 0 143 -49.5t70 -112.5l-20 -108q-5 -33 -18 -107q-20 -122 -25 -151q14 0 35 21.5t35 43.5l14 21q55 83 131 210t125 226q9 17 16.5 27.5t23 20t35.5 9.5 q30 0 76.5 -10t95.5 -27.5t84 -48t35 -65.5q0 -25 -30 -62q-135 -154 -257 -308.5t-204.5 -269.5t-168.5 -247.5t-131 -207.5t-110.5 -188t-89.5 -153q-12 -27 -35 -27q-28 0 -108 60.5t-80 93.5zM502 1769q0 53 47 113t100 60q57 0 101.5 -46t44.5 -86t-41 -99.5t-76 -59.5 q-51 0 -113.5 38.5t-62.5 79.5zM819 1718q0 51 48.5 111.5t99.5 60.5q58 0 101.5 -45.5t43.5 -85.5t-40 -100t-75 -60q-51 0 -114.5 39.5t-63.5 79.5z" />
<glyph unicode="&#x2c6;" horiz-adv-x="798" d="M340 1057q0 14 33 20q39 9 72.5 27.5t63.5 49t44.5 48.5t40.5 53q32 43 78 43q41 0 73.5 -31.5t32.5 -68.5q15 -19 25.5 -60.5t32 -82.5t67.5 -72q12 -9 12 -18q0 -16 -27.5 -31.5t-49.5 -15.5q-21 0 -38 3t-33 13t-25.5 16t-24.5 25.5t-21 27t-23.5 34t-23.5 34.5 q-78 -57 -184 -57q-51 0 -88 14t-37 29z" />
<glyph unicode="&#x2dc;" horiz-adv-x="860" d="M367 1098q0 35 62 81t138 46q35 0 67 -13.5t58 -32.5t55 -38.5t70.5 -33t91.5 -13.5q10 0 22.5 1t16.5 1q27 0 27 -21q0 -35 -57 -79t-130 -44q-43 0 -87.5 20t-78.5 44.5t-86 44.5t-108 20q-7 0 -19 -1t-18 -1q-24 0 -24 19z" />
<glyph unicode="&#x2000;" horiz-adv-x="974" />
<glyph unicode="&#x2001;" horiz-adv-x="1948" />
<glyph unicode="&#x2002;" horiz-adv-x="974" />
<glyph unicode="&#x2003;" horiz-adv-x="1948" />
<glyph unicode="&#x2004;" horiz-adv-x="649" />
<glyph unicode="&#x2005;" horiz-adv-x="487" />
<glyph unicode="&#x2006;" horiz-adv-x="324" />
<glyph unicode="&#x2007;" horiz-adv-x="324" />
<glyph unicode="&#x2008;" horiz-adv-x="243" />
<glyph unicode="&#x2009;" horiz-adv-x="389" />
<glyph unicode="&#x200a;" horiz-adv-x="108" />
<glyph unicode="&#x2010;" horiz-adv-x="909" d="M256 352q0 47 51 87t90 40q130 0 237 7.5t165 14.5t69 7q29 0 29 -31q0 -53 -45.5 -106.5t-99.5 -53.5l-467 5q-14 2 -21.5 8t-7.5 22z" />
<glyph unicode="&#x2011;" horiz-adv-x="909" d="M256 352q0 47 51 87t90 40q130 0 237 7.5t165 14.5t69 7q29 0 29 -31q0 -53 -45.5 -106.5t-99.5 -53.5l-467 5q-14 2 -21.5 8t-7.5 22z" />
<glyph unicode="&#x2012;" horiz-adv-x="909" d="M256 352q0 47 51 87t90 40q130 0 237 7.5t165 14.5t69 7q29 0 29 -31q0 -53 -45.5 -106.5t-99.5 -53.5l-467 5q-14 2 -21.5 8t-7.5 22z" />
<glyph unicode="&#x2013;" horiz-adv-x="888" d="M264 393q0 37 29 49q42 20 181.5 35t266.5 15q37 0 78 -38.5t41 -72.5q0 -43 -72 -43h-112q-96 0 -161 -4.5t-193 -22.5q-24 4 -41 29.5t-17 52.5z" />
<glyph unicode="&#x2014;" horiz-adv-x="1482" d="M264 393q0 35 58 49q83 20 362.5 35t534.5 15q73 0 154 -38.5t81 -72.5q0 -43 -141 -43h-226q-192 0 -322 -4.5t-386 -22.5q-49 4 -82 29t-33 53z" />
<glyph unicode="&#x2018;" horiz-adv-x="481" d="M311 1110q0 55 35.5 121.5t89 121.5t122.5 92.5t130 37.5q34 0 57 -6t23 -15q0 -11 -31 -20q-138 -45 -190 -168q20 4 28 4q32 0 49 -21t17 -55q0 -73 -54 -155t-114 -82q-49 0 -105.5 47.5t-56.5 97.5z" />
<glyph unicode="&#x2019;" horiz-adv-x="481" d="M342 985q0 12 31 21q138 45 190 168q-25 -5 -28 -5q-32 0 -49 21t-17 55q0 73 54 155.5t114 82.5q48 0 105 -48t57 -98q0 -74 -58 -161.5t-147.5 -149t-171.5 -61.5q-80 0 -80 20z" />
<glyph unicode="&#x201a;" horiz-adv-x="516" d="M-35 -168q0 12 31 21q138 46 190 167q-20 -4 -30 -4q-36 0 -54 24.5t-18 63.5q0 69 41 139t90 70q98 0 144.5 -37.5t46.5 -99.5q0 -74 -54 -159.5t-139.5 -145t-167.5 -59.5q-80 0 -80 20z" />
<glyph unicode="&#x201c;" horiz-adv-x="849" d="M311 1110q0 55 35.5 121.5t89 121.5t122.5 92.5t130 37.5q34 0 57 -6t23 -15q0 -11 -31 -20q-138 -45 -190 -168q20 4 28 4q32 0 49 -21t17 -55q0 -73 -54 -155t-114 -82q-49 0 -105.5 47.5t-56.5 97.5zM680 1114q0 55 35.5 121.5t89 121.5t122.5 92.5t130 37.5 q34 0 57 -6t23 -15q0 -11 -31 -20q-139 -46 -191 -168q20 4 29 4q32 0 49 -21t17 -55q0 -73 -54 -155t-114 -82q-49 0 -105.5 47.5t-56.5 97.5z" />
<glyph unicode="&#x201d;" horiz-adv-x="849" d="M342 985q0 12 31 21q138 45 190 168q-25 -5 -28 -5q-32 0 -49 21t-17 55q0 73 54 155.5t114 82.5q48 0 105 -48t57 -98q0 -74 -58 -161.5t-147.5 -149t-171.5 -61.5q-80 0 -80 20zM711 989q0 12 30 21q139 46 191 168q-20 -4 -29 -4q-32 0 -48.5 20.5t-16.5 54.5 q0 73 54 155.5t114 82.5q48 0 104.5 -48t56.5 -98q0 -55 -35 -121t-88.5 -121.5t-122.5 -92.5t-130 -37q-80 0 -80 20z" />
<glyph unicode="&#x201e;" horiz-adv-x="901" d="M-35 -180q0 11 31 20q138 45 190 168q-20 -4 -28 -4q-32 0 -49 21t-17 55q0 73 54 155t114 82q49 0 105.5 -47.5t56.5 -97.5q0 -55 -35.5 -121.5t-89 -121.5t-122.5 -92.5t-130 -37.5q-34 0 -57 6t-23 15zM334 -176q0 11 31 20q138 45 190 168q-20 -4 -29 -4 q-32 0 -48.5 21t-16.5 55q0 74 54 156t114 82q48 0 105 -48t57 -98q0 -55 -35.5 -121.5t-89 -121.5t-122.5 -92.5t-130 -37.5q-34 0 -57 6t-23 15z" />
<glyph unicode="&#x2022;" horiz-adv-x="780" d="M350 451q0 88 60 138t139 50q67 0 113.5 -38t46.5 -109q0 -97 -58 -152t-135 -55q-68 0 -117 43.5t-49 122.5z" />
<glyph unicode="&#x2026;" horiz-adv-x="1540" d="M80 106q0 54 44.5 130.5t90.5 76.5q53 0 125 -45t72 -94q0 -46 -15 -96.5t-50 -90.5t-81 -40q-64 0 -125 49t-61 110zM602 106q0 54 44.5 130.5t90.5 76.5q53 0 125 -45t72 -94q0 -46 -15 -96.5t-50 -90.5t-81 -40q-64 0 -125 49t-61 110zM1104 106q0 54 44.5 130.5 t90.5 76.5q53 0 125 -45t72 -94q0 -46 -15 -96.5t-50 -90.5t-81 -40q-64 0 -125 49t-61 110z" />
<glyph unicode="&#x202f;" horiz-adv-x="389" />
<glyph unicode="&#x2039;" horiz-adv-x="1173" d="M225 324q0 46 67.5 107t125.5 89q89 42 340 108t366 66q50 0 50 -59q0 -52 -34 -105t-89 -53q-92 0 -352 -54t-320 -87q142 -29 325.5 -89.5t276.5 -101.5q2 -10 2 -20q0 -23 -14 -23q-260 82 -711 177q-33 6 -33 45z" />
<glyph unicode="&#x203a;" horiz-adv-x="1173" d="M166 106q0 4 8 14t16 18l7 7q133 43 358.5 102.5t390.5 88.5q-33 33 -250.5 87t-310.5 54q-45 0 -45 37q0 59 41 119.5t96 60.5q115 0 318.5 -66.5t259.5 -107.5q17 -21 33 -57t16 -72q0 -38 -23 -67q-3 -3 -10 -11.5t-10.5 -12t-11 -9t-16.5 -8.5t-21 -4 q-28 -5 -138.5 -26t-172.5 -33.5t-162.5 -33t-190.5 -41.5t-176 -43q-6 0 -6 4z" />
<glyph unicode="&#x205f;" horiz-adv-x="487" />
<glyph unicode="&#x20ac;" horiz-adv-x="929" d="M0 639q0 31 29 31q14 0 67.5 -5.5t87.5 -7.5l27 54q-166 24 -166 69q0 31 29 31q17 0 81 -5t103 -7q103 182 225.5 348t236 275.5t185.5 127.5q40 11 78 11q73 0 112.5 -45t78.5 -142q8 -13 33.5 -44.5t41 -61.5t15.5 -64q0 -46 -12 -86.5t-38.5 -79t-49.5 -65.5 t-65.5 -71.5t-66.5 -72.5q-16 -22 -41 -22q-42 0 -79.5 66.5t-37.5 121.5q0 23 9 35q15 20 18.5 34.5t3.5 47.5q0 10 -8 10q-40 0 -131.5 -95t-194.5 -239q132 0 146 -2q29 -3 51.5 -17.5t22.5 -31.5q0 -29 -70 -37q-71 -10 -215 -10q-5 -6 -21 -33q8 -10 29 -10 q144 0 158 -2q28 -3 50.5 -18.5t22.5 -30.5q0 -27 -69 -35q-92 -10 -207 -10h-49q-150 -265 -150 -399q0 -68 123 -68q136 0 295 59q22 11 43 11q22 0 43 -17.5t21 -38.5q0 -19 -25 -35q-313 -172 -489 -172q-252 0 -252 250q0 174 116 432q-145 24 -145 66z" />
<glyph unicode="&#x25fc;" horiz-adv-x="952" d="M0 0v952h952v-952h-952z" />
<glyph unicode="&#xfb01;" horiz-adv-x="1021" d="M-242 -387q0 121 113.5 387.5t250 519t283 520t181.5 344.5q25 58 98 58q48 0 105 -48t57 -98q0 -26 -15 -49q-20 -30 -97 -129t-147.5 -191t-129 -188.5t-58.5 -140.5q0 -22 17 -31.5t37.5 -11.5t37.5 -19t17 -51q0 -48 -16.5 -101.5t-16.5 -57.5q0 -25 14 -25 q17 0 29 7.5t43 37.5q33 33 121 139q21 52 68 162t67 160q22 57 98 57q49 0 101.5 -43.5t52.5 -93.5q0 -28 -14 -49q-108 -162 -196.5 -327t-88.5 -197q0 -33 18 -33q6 0 15 6q29 20 91 79.5t124 139.5q45 52 157.5 190.5t139.5 176.5q9 12 16 12q8 0 15.5 -9.5t11.5 -19.5 l4 -10q-68 -109 -293 -418q-164 -223 -258 -303q-25 -22 -55 -22q-60 0 -110 88t-50 166q0 25 6 59q-69 -89 -114 -121.5t-93 -32.5q-35 -118 -160.5 -340.5t-199.5 -308.5q-39 -47 -72 -47t-91.5 44.5t-90.5 82.5q-23 26 -23 80zM-53 -365q0 -16 12 -16q36 0 113.5 115 t140.5 250t63 188q-5 5 -13 15t-21 43t-13 69q-72 -102 -177 -329t-105 -335zM946 1053q0 57 53.5 123.5t110.5 66.5q64 0 113 -50t49 -95q0 -43 -45 -109.5t-84 -66.5q-57 0 -127 43t-70 88z" />
<glyph unicode="&#xfb02;" horiz-adv-x="1026" d="M-242 -387q0 121 113.5 387.5t250 519t283 520t181.5 344.5q25 58 98 58q48 0 105 -48t57 -98q0 -26 -15 -49q-20 -30 -97 -129t-147.5 -191t-129 -188.5t-58.5 -140.5q0 -22 17 -31.5t37.5 -11.5t37.5 -19t17 -51q0 -48 -16.5 -101.5t-16.5 -57.5q0 -25 14 -25 q17 0 29 7.5t43 37.5q30 30 115 133q81 184 270.5 535.5t212.5 410.5q22 58 98 58q48 0 105 -48t57 -98q0 -28 -14 -49q-472 -714 -627 -1091q-8 -24 -8 -43q0 -33 18 -33q6 0 15 6q29 20 91 79.5t124 139.5q45 52 157.5 190.5t139.5 176.5q9 12 16 12q8 0 15.5 -9.5 t11.5 -19.5l4 -10q-68 -109 -293 -418q-164 -223 -258 -303q-27 -24 -59 -24q-62 0 -114 84t-52 161q0 24 6 58q-65 -82 -107.5 -112t-89.5 -30q-35 -118 -160.5 -340.5t-199.5 -308.5q-39 -47 -72 -47t-91.5 44.5t-90.5 82.5q-23 26 -23 80zM-53 -365q0 -16 12 -16 q36 0 113.5 115t140.5 250t63 188q-5 5 -13 15t-21 43t-13 69q-72 -102 -177 -329t-105 -335z" />
</font>
</defs>
</svg>
