<?xml version="1.0" encoding="utf-8"?>
<!-- Generator: Adobe Illustrator 16.0.0, SVG Export Plug-In . SVG Version: 6.00 Build 0)  -->
<!DOCTYPE svg PUBLIC "-//W3C//DTD SVG 1.1//EN" "http://www.w3.org/Graphics/SVG/1.1/DTD/svg11.dtd">
<svg version="1.1" id="Layer_1" xmlns="http://www.w3.org/2000/svg" xmlns:xlink="http://www.w3.org/1999/xlink" x="0px" y="0px"
	 width="264.667px" height="210.668px" viewBox="0 0 264.667 210.668" enable-background="new 0 0 264.667 210.668"
	 xml:space="preserve">
<g>
	
		<rect x="55.641" y="33.494" transform="matrix(-0.7071 -0.7071 0.7071 -0.7071 100.914 168.0235)" fill="#58A052" width="59.234" height="59.233"/>
	
		<radialGradient id="SVGID_1_" cx="20.7671" cy="77.7842" r="44.9031" gradientTransform="matrix(0.9328 0 0 0.9328 65.8845 -9.4473)" gradientUnits="userSpaceOnUse">
		<stop  offset="0.5744" style="stop-color:#000000;stop-opacity:0"/>
		<stop  offset="0.7977" style="stop-color:#000000;stop-opacity:0.6512"/>
		<stop  offset="1" style="stop-color:#000000;stop-opacity:0.95"/>
	</radialGradient>
	<polygon opacity="0.1" fill="url(#SVGID_1_)" points="85.258,21.225 127.141,63.111 85.258,104.997 43.372,63.111 	"/>
	
		<rect x="139.283" y="33.493" transform="matrix(-0.7071 -0.7071 0.7071 -0.7071 243.7048 227.1683)" fill="#304196" width="59.236" height="59.235"/>
	
		<radialGradient id="SVGID_2_" cx="110.439" cy="77.7847" r="44.9028" gradientTransform="matrix(0.9328 0 0 0.9328 65.8845 -9.4473)" gradientUnits="userSpaceOnUse">
		<stop  offset="0.5744" style="stop-color:#000000;stop-opacity:0"/>
		<stop  offset="0.7977" style="stop-color:#000000;stop-opacity:0.6512"/>
		<stop  offset="1" style="stop-color:#000000;stop-opacity:0.95"/>
	</radialGradient>
	<polygon opacity="0.1" fill="url(#SVGID_2_)" points="168.901,21.225 210.787,63.111 168.901,104.997 127.017,63.111 	"/>
	
		<radialGradient id="SVGID_3_" cx="65.4375" cy="122.7876" r="44.9031" gradientTransform="matrix(0.9328 0 0 0.9328 65.8845 -9.4473)" gradientUnits="userSpaceOnUse">
		<stop  offset="0.5744" style="stop-color:#000000;stop-opacity:0"/>
		<stop  offset="0.7977" style="stop-color:#000000;stop-opacity:0.6512"/>
		<stop  offset="1" style="stop-color:#000000;stop-opacity:0.95"/>
	</radialGradient>
	<polygon opacity="0.1" fill="url(#SVGID_3_)" points="126.923,63.203 168.81,105.088 126.923,146.975 85.04,105.088 	"/>
	<polygon fill="#F9DD39" points="127.141,63.184 169.03,105.069 127.141,146.956 85.258,105.069 	"/>
	
		<radialGradient id="SVGID_4_" cx="65.6724" cy="122.7661" r="44.9033" gradientTransform="matrix(0.9328 0 0 0.9328 65.8845 -9.4473)" gradientUnits="userSpaceOnUse">
		<stop  offset="0.5744" style="stop-color:#000000;stop-opacity:0"/>
		<stop  offset="0.7977" style="stop-color:#000000;stop-opacity:0.6512"/>
		<stop  offset="1" style="stop-color:#000000;stop-opacity:0.95"/>
	</radialGradient>
	<polygon opacity="0.1" fill="url(#SVGID_4_)" points="127.141,63.184 169.03,105.069 127.141,146.956 85.258,105.069 	"/>
	<g>
		<path fill="#3E6D3E" d="M88.453,69.02c-1.207,0-3-3.404-3-4.972c0.361-2.641,4.212-6.582,4.254-6.985
			c0-0.133-0.042-0.223-0.176-0.223c-2.598,0-13.704,15.18-13.704,21.226c0,1.075,1.163,1.477,2.686,1.477
			c2.061,0,4.747-0.672,6.45-1.298c0.267-0.135,0.625-0.225,0.939-0.225c0.625,0,1.388,0.583,1.388,1.209
			c0,0.269-0.179,0.537-0.537,0.76c-2.419,1.343-6.986,3.762-10.703,3.762c-3.984,0-5.507-2.194-5.507-5.463
			c0-10.479,14.285-31.032,20.644-31.032c2.328,0,3.402,1.657,4.389,4.074c0.625,1.254,1.97,2.061,1.97,3.717
			c0,3.538-6.135,7.882-8.329,13.301C89.037,68.84,88.767,69.02,88.453,69.02z"/>
	</g>
	<g>
		<g>
			<path fill="#FFFFFF" d="M87.521,66.843c-1.209,0-3-3.404-3-4.97c0.358-2.642,4.209-6.583,4.254-6.987
				c0-0.135-0.044-0.223-0.179-0.223c-2.598,0-13.703,15.18-13.703,21.225c0,1.074,1.165,1.478,2.688,1.478
				c2.058,0,4.747-0.671,6.447-1.299c0.27-0.133,0.628-0.223,0.942-0.223c0.625,0,1.386,0.582,1.386,1.209
				c0,0.269-0.176,0.537-0.537,0.761c-2.417,1.344-6.984,3.762-10.701,3.762c-3.986,0-5.507-2.194-5.507-5.463
				c0-10.479,14.282-31.032,20.641-31.032c2.331,0,3.405,1.657,4.389,4.075c0.628,1.255,1.973,2.059,1.973,3.718
				c0,3.537-6.135,7.879-8.331,13.298C88.102,66.664,87.835,66.843,87.521,66.843z"/>
		</g>
	</g>
	<g opacity="0.1">
		<g>
			<g>
				<defs>
					<path id="SVGID_5_" d="M87.521,66.843c-1.209,0-3-3.404-3-4.97c0.358-2.642,4.209-6.583,4.254-6.987
						c0-0.135-0.044-0.223-0.179-0.223c-2.598,0-13.703,15.18-13.703,21.225c0,1.074,1.165,1.478,2.688,1.478
						c2.058,0,4.747-0.671,6.447-1.299c0.27-0.133,0.628-0.223,0.942-0.223c0.625,0,1.386,0.582,1.386,1.209
						c0,0.269-0.176,0.537-0.537,0.761c-2.417,1.344-6.984,3.762-10.701,3.762c-3.986,0-5.507-2.194-5.507-5.463
						c0-10.479,14.282-31.032,20.641-31.032c2.331,0,3.405,1.657,4.389,4.075c0.628,1.255,1.973,2.059,1.973,3.718
						c0,3.537-6.135,7.879-8.331,13.298C88.102,66.664,87.835,66.843,87.521,66.843z"/>
				</defs>
				<clipPath id="SVGID_6_">
					<use xlink:href="#SVGID_5_"  overflow="visible"/>
				</clipPath>
				<path clip-path="url(#SVGID_6_)" fill="#FFFFFF" d="M69.61,45.081v36.493V45.081z"/>
				<rect x="69.61" y="45.081" clip-path="url(#SVGID_6_)" fill="#FFFFFF" width="0.104" height="36.493"/>
				<rect x="69.714" y="45.081" clip-path="url(#SVGID_6_)" fill="#FDFDFD" width="0.106" height="36.493"/>
				<rect x="69.82" y="45.081" clip-path="url(#SVGID_6_)" fill="#FCFCFC" width="0.106" height="36.493"/>
				<rect x="69.927" y="45.081" clip-path="url(#SVGID_6_)" fill="#FAFAFB" width="0.104" height="36.493"/>
				<rect x="70.031" y="45.081" clip-path="url(#SVGID_6_)" fill="#F9F9F9" width="0.106" height="36.493"/>
				<rect x="70.137" y="45.081" clip-path="url(#SVGID_6_)" fill="#F8F8F8" width="0.106" height="36.493"/>
				<rect x="70.244" y="45.081" clip-path="url(#SVGID_6_)" fill="#F7F7F7" width="0.106" height="36.493"/>
				<rect x="70.35" y="45.081" clip-path="url(#SVGID_6_)" fill="#F6F6F6" width="0.104" height="36.493"/>
				<rect x="70.454" y="45.081" clip-path="url(#SVGID_6_)" fill="#F5F5F6" width="0.109" height="36.493"/>
				<rect x="70.563" y="45.081" clip-path="url(#SVGID_6_)" fill="#F4F4F5" width="0.106" height="36.493"/>
				<rect x="70.669" y="45.081" clip-path="url(#SVGID_6_)" fill="#F3F3F4" width="0.106" height="36.493"/>
				<rect x="70.775" y="45.081" clip-path="url(#SVGID_6_)" fill="#F2F3F3" width="0.106" height="36.493"/>
				<rect x="70.882" y="45.081" clip-path="url(#SVGID_6_)" fill="#F1F2F2" width="0.104" height="36.493"/>
				<rect x="70.986" y="45.081" clip-path="url(#SVGID_6_)" fill="#F0F1F1" width="0.106" height="36.493"/>
				<rect x="71.092" y="45.081" clip-path="url(#SVGID_6_)" fill="#F0F0F1" width="0.106" height="36.493"/>
				<rect x="71.199" y="45.081" clip-path="url(#SVGID_6_)" fill="#EFEFF0" width="0.104" height="36.493"/>
				<rect x="71.302" y="45.081" clip-path="url(#SVGID_6_)" fill="#EEEEEF" width="0.106" height="36.493"/>
				<rect x="71.409" y="45.081" clip-path="url(#SVGID_6_)" fill="#EDEDEE" width="0.106" height="36.493"/>
				<rect x="71.515" y="45.081" clip-path="url(#SVGID_6_)" fill="#ECEDED" width="0.106" height="36.493"/>
				<rect x="71.622" y="45.081" clip-path="url(#SVGID_6_)" fill="#EBECED" width="0.104" height="36.493"/>
				<rect x="71.726" y="45.081" clip-path="url(#SVGID_6_)" fill="#EBEBEC" width="0.106" height="36.493"/>
				<rect x="71.832" y="45.081" clip-path="url(#SVGID_6_)" fill="#EAEAEB" width="0.106" height="36.493"/>
				<rect x="71.938" y="45.081" clip-path="url(#SVGID_6_)" fill="#E9E9EA" width="0.104" height="36.493"/>
				<rect x="72.042" y="45.081" clip-path="url(#SVGID_6_)" fill="#E8E9E9" width="0.112" height="36.493"/>
				<rect x="72.154" y="45.081" clip-path="url(#SVGID_6_)" fill="#E7E8E9" width="0.101" height="36.493"/>
				<rect x="72.255" y="45.081" clip-path="url(#SVGID_6_)" fill="#E6E7E8" width="0.109" height="36.493"/>
				<rect x="72.364" y="45.081" clip-path="url(#SVGID_6_)" fill="#E5E6E7" width="0.106" height="36.493"/>
				<rect x="72.47" y="45.081" clip-path="url(#SVGID_6_)" fill="#E4E5E6" width="0.104" height="36.493"/>
				<rect x="72.574" y="45.081" clip-path="url(#SVGID_6_)" fill="#E4E4E5" width="0.106" height="36.493"/>
				<rect x="72.681" y="45.081" clip-path="url(#SVGID_6_)" fill="#E3E3E4" width="0.106" height="36.493"/>
				<rect x="72.787" y="45.081" clip-path="url(#SVGID_6_)" fill="#E2E3E4" width="0.106" height="36.493"/>
				<rect x="72.894" y="45.081" clip-path="url(#SVGID_6_)" fill="#E1E2E3" width="0.104" height="36.493"/>
				<rect x="72.997" y="45.081" clip-path="url(#SVGID_6_)" fill="#E0E1E2" width="0.106" height="36.493"/>
				<rect x="73.104" y="45.081" clip-path="url(#SVGID_6_)" fill="#DFE0E1" width="0.106" height="36.493"/>
				<rect x="73.21" y="45.081" clip-path="url(#SVGID_6_)" fill="#DFDFE0" width="0.104" height="36.493"/>
				<rect x="73.314" y="45.081" clip-path="url(#SVGID_6_)" fill="#DEDEE0" width="0.106" height="36.493"/>
				<rect x="73.42" y="45.081" clip-path="url(#SVGID_6_)" fill="#DDDEDF" width="0.106" height="36.493"/>
				<rect x="73.527" y="45.081" clip-path="url(#SVGID_6_)" fill="#DCDDDE" width="0.106" height="36.493"/>
				<rect x="73.633" y="45.081" clip-path="url(#SVGID_6_)" fill="#DBDCDD" width="0.104" height="36.493"/>
				<rect x="73.737" y="45.081" clip-path="url(#SVGID_6_)" fill="#DADBDC" width="0.106" height="36.493"/>
				<rect x="73.843" y="45.081" clip-path="url(#SVGID_6_)" fill="#D9DADC" width="0.109" height="36.493"/>
				<rect x="73.952" y="45.081" clip-path="url(#SVGID_6_)" fill="#D9DADB" width="0.104" height="36.493"/>
				<rect x="74.056" y="45.081" clip-path="url(#SVGID_6_)" fill="#D8D9DA" width="0.109" height="36.493"/>
				<rect x="74.165" y="45.081" clip-path="url(#SVGID_6_)" fill="#D7D8D9" width="0.104" height="36.493"/>
				<rect x="74.269" y="45.081" clip-path="url(#SVGID_6_)" fill="#D6D7D8" width="0.106" height="36.493"/>
				<rect x="74.375" y="45.081" clip-path="url(#SVGID_6_)" fill="#D5D6D8" width="0.106" height="36.493"/>
				<rect x="74.482" y="45.081" clip-path="url(#SVGID_6_)" fill="#D4D5D7" width="0.104" height="36.493"/>
				<rect x="74.585" y="45.081" clip-path="url(#SVGID_6_)" fill="#D4D5D6" width="0.106" height="36.493"/>
				<rect x="74.692" y="45.081" clip-path="url(#SVGID_6_)" fill="#D3D4D5" width="0.106" height="36.493"/>
				<rect x="74.798" y="45.081" clip-path="url(#SVGID_6_)" fill="#D2D3D4" width="0.106" height="36.493"/>
				<rect x="74.905" y="45.081" clip-path="url(#SVGID_6_)" fill="#D1D2D4" width="0.104" height="36.493"/>
				<rect x="75.009" y="45.081" clip-path="url(#SVGID_6_)" fill="#D0D1D3" width="0.106" height="36.493"/>
				<rect x="75.115" y="45.081" clip-path="url(#SVGID_6_)" fill="#CFD0D2" width="0.106" height="36.493"/>
				<rect x="75.222" y="45.081" clip-path="url(#SVGID_6_)" fill="#CFD0D1" width="0.106" height="36.493"/>
				<rect x="75.328" y="45.081" clip-path="url(#SVGID_6_)" fill="#CECFD0" width="0.104" height="36.493"/>
				<rect x="75.432" y="45.081" clip-path="url(#SVGID_6_)" fill="#CDCED0" width="0.106" height="36.493"/>
				<rect x="75.538" y="45.081" clip-path="url(#SVGID_6_)" fill="#CCCDCF" width="0.106" height="36.493"/>
				<rect x="75.645" y="45.081" clip-path="url(#SVGID_6_)" fill="#CBCCCE" width="0.109" height="36.493"/>
				<rect x="75.753" y="45.081" clip-path="url(#SVGID_6_)" fill="#CACBCD" width="0.102" height="36.493"/>
				<rect x="75.855" y="45.081" clip-path="url(#SVGID_6_)" fill="#C9CBCC" width="0.109" height="36.493"/>
				<rect x="75.964" y="45.081" clip-path="url(#SVGID_6_)" fill="#C9CACC" width="0.106" height="36.493"/>
				<rect x="76.07" y="45.081" clip-path="url(#SVGID_6_)" fill="#C8C9CB" width="0.106" height="36.493"/>
				<rect x="76.177" y="45.081" clip-path="url(#SVGID_6_)" fill="#C7C8CA" width="0.104" height="36.493"/>
				<rect x="76.28" y="45.081" clip-path="url(#SVGID_6_)" fill="#C6C7C9" width="0.106" height="36.493"/>
				<rect x="76.387" y="45.081" clip-path="url(#SVGID_6_)" fill="#C5C6C8" width="0.106" height="36.493"/>
				<rect x="76.493" y="45.081" clip-path="url(#SVGID_6_)" fill="#C4C6C8" width="0.104" height="36.493"/>
				<rect x="76.597" y="45.081" clip-path="url(#SVGID_6_)" fill="#C4C5C7" width="0.106" height="36.493"/>
				<rect x="76.704" y="45.081" clip-path="url(#SVGID_6_)" fill="#C3C4C6" width="0.106" height="36.493"/>
				<rect x="76.81" y="45.081" clip-path="url(#SVGID_6_)" fill="#C2C3C5" width="0.106" height="36.493"/>
				<rect x="76.916" y="45.081" clip-path="url(#SVGID_6_)" fill="#C1C2C4" width="0.104" height="36.493"/>
				<rect x="77.02" y="45.081" clip-path="url(#SVGID_6_)" fill="#C0C1C4" width="0.106" height="36.493"/>
				<rect x="77.126" y="45.081" clip-path="url(#SVGID_6_)" fill="#BFC1C3" width="0.106" height="36.493"/>
				<rect x="77.233" y="45.081" clip-path="url(#SVGID_6_)" fill="#BEC0C2" width="0.106" height="36.493"/>
				<rect x="77.339" y="45.081" clip-path="url(#SVGID_6_)" fill="#BEBFC1" width="0.104" height="36.493"/>
				<rect x="77.443" y="45.081" clip-path="url(#SVGID_6_)" fill="#BDBEC0" width="0.109" height="36.493"/>
				<rect x="77.552" y="45.081" clip-path="url(#SVGID_6_)" fill="#BCBDBF" width="0.106" height="36.493"/>
				<rect x="77.659" y="45.081" clip-path="url(#SVGID_6_)" fill="#BBBCBF" width="0.106" height="36.493"/>
				<rect x="77.765" y="45.081" clip-path="url(#SVGID_6_)" fill="#BABCBE" width="0.104" height="36.493"/>
				<rect x="77.869" y="45.081" clip-path="url(#SVGID_6_)" fill="#B9BBBD" width="0.106" height="36.493"/>
				<rect x="77.975" y="45.081" clip-path="url(#SVGID_6_)" fill="#B9BABC" width="0.106" height="36.493"/>
				<rect x="78.082" y="45.081" clip-path="url(#SVGID_6_)" fill="#B8B9BB" width="0.106" height="36.493"/>
				<rect x="78.188" y="45.081" clip-path="url(#SVGID_6_)" fill="#B7B8BB" width="0.104" height="36.493"/>
				<rect x="78.292" y="45.081" clip-path="url(#SVGID_6_)" fill="#B6B7BA" width="0.106" height="36.493"/>
				<rect x="78.398" y="45.081" clip-path="url(#SVGID_6_)" fill="#B5B7B9" width="0.106" height="36.493"/>
				<rect x="78.504" y="45.081" clip-path="url(#SVGID_6_)" fill="#B4B6B8" width="0.106" height="36.493"/>
				<rect x="78.611" y="45.081" clip-path="url(#SVGID_6_)" fill="#B4B5B7" width="0.104" height="36.493"/>
				<rect x="78.715" y="45.081" clip-path="url(#SVGID_6_)" fill="#B3B4B6" width="0.106" height="36.493"/>
				<rect x="78.821" y="45.081" clip-path="url(#SVGID_6_)" fill="#B2B3B6" width="0.106" height="36.493"/>
				<rect x="78.928" y="45.081" clip-path="url(#SVGID_6_)" fill="#B1B3B5" width="0.104" height="36.493"/>
				<rect x="79.031" y="45.081" clip-path="url(#SVGID_6_)" fill="#B0B2B4" width="0.106" height="36.493"/>
				<rect x="79.138" y="45.081" clip-path="url(#SVGID_6_)" fill="#AFB1B3" width="0.106" height="36.493"/>
				<rect x="79.244" y="45.081" clip-path="url(#SVGID_6_)" fill="#AFB0B2" width="0.109" height="36.493"/>
				<rect x="79.353" y="45.081" clip-path="url(#SVGID_6_)" fill="#AEAFB2" width="0.106" height="36.493"/>
				<rect x="79.459" y="45.081" clip-path="url(#SVGID_6_)" fill="#ADAFB1" width="0.104" height="36.493"/>
				<rect x="79.563" y="45.081" clip-path="url(#SVGID_6_)" fill="#ACAEB0" width="0.106" height="36.493"/>
				<rect x="79.67" y="45.081" clip-path="url(#SVGID_6_)" fill="#ABADAF" width="0.106" height="36.493"/>
				<rect x="79.776" y="45.081" clip-path="url(#SVGID_6_)" fill="#ABACAE" width="0.106" height="36.493"/>
				<rect x="79.883" y="45.081" clip-path="url(#SVGID_6_)" fill="#AAABAE" width="0.104" height="36.493"/>
				<rect x="79.986" y="45.081" clip-path="url(#SVGID_6_)" fill="#A9AAAD" width="0.106" height="36.493"/>
				<rect x="80.093" y="45.081" clip-path="url(#SVGID_6_)" fill="#A8AAAC" width="0.106" height="36.493"/>
				<rect x="80.199" y="45.081" clip-path="url(#SVGID_6_)" fill="#A7A9AB" width="0.104" height="36.493"/>
				<rect x="80.303" y="45.081" clip-path="url(#SVGID_6_)" fill="#A7A8AB" width="0.106" height="36.493"/>
				<rect x="80.41" y="45.081" clip-path="url(#SVGID_6_)" fill="#A6A7AA" width="0.106" height="36.493"/>
				<rect x="80.516" y="45.081" clip-path="url(#SVGID_6_)" fill="#A5A6A9" width="0.106" height="36.493"/>
				<rect x="80.623" y="45.081" clip-path="url(#SVGID_6_)" fill="#A4A6A8" width="0.104" height="36.493"/>
				<rect x="80.726" y="45.081" clip-path="url(#SVGID_6_)" fill="#A3A5A7" width="0.106" height="36.493"/>
				<rect x="80.833" y="45.081" clip-path="url(#SVGID_6_)" fill="#A3A4A7" width="0.109" height="36.493"/>
				<rect x="80.941" y="45.081" clip-path="url(#SVGID_6_)" fill="#A2A3A6" width="0.102" height="36.493"/>
				<rect x="81.043" y="45.081" clip-path="url(#SVGID_6_)" fill="#A1A2A5" width="0.111" height="36.493"/>
				<rect x="81.154" y="45.081" clip-path="url(#SVGID_6_)" fill="#A0A2A4" width="0.104" height="36.493"/>
				<rect x="81.258" y="45.081" clip-path="url(#SVGID_6_)" fill="#9FA1A3" width="0.106" height="36.493"/>
				<rect x="81.365" y="45.081" clip-path="url(#SVGID_6_)" fill="#9FA0A3" width="0.106" height="36.493"/>
				<rect x="81.471" y="45.081" clip-path="url(#SVGID_6_)" fill="#9E9FA2" width="0.104" height="36.493"/>
				<rect x="81.575" y="45.081" clip-path="url(#SVGID_6_)" fill="#9D9FA1" width="0.106" height="36.493"/>
				<rect x="81.681" y="45.081" clip-path="url(#SVGID_6_)" fill="#9C9EA0" width="0.106" height="36.493"/>
				<rect x="81.788" y="45.081" clip-path="url(#SVGID_6_)" fill="#9B9D9F" width="0.106" height="36.493"/>
				<rect x="81.894" y="45.081" clip-path="url(#SVGID_6_)" fill="#9B9C9F" width="0.104" height="36.493"/>
				<rect x="81.998" y="45.081" clip-path="url(#SVGID_6_)" fill="#9A9B9E" width="0.106" height="36.493"/>
				<rect x="82.104" y="45.081" clip-path="url(#SVGID_6_)" fill="#999B9D" width="0.106" height="36.493"/>
				<rect x="82.211" y="45.081" clip-path="url(#SVGID_6_)" fill="#989A9C" width="0.104" height="36.493"/>
				<rect x="82.314" y="45.081" clip-path="url(#SVGID_6_)" fill="#98999C" width="0.106" height="36.493"/>
				<rect x="82.421" y="45.081" clip-path="url(#SVGID_6_)" fill="#97989B" width="0.106" height="36.493"/>
				<rect x="82.527" y="45.081" clip-path="url(#SVGID_6_)" fill="#96989A" width="0.106" height="36.493"/>
				<rect x="82.634" y="45.081" clip-path="url(#SVGID_6_)" fill="#959799" width="0.109" height="36.493"/>
				<rect x="82.743" y="45.081" clip-path="url(#SVGID_6_)" fill="#959699" width="0.102" height="36.493"/>
				<rect x="82.844" y="45.081" clip-path="url(#SVGID_6_)" fill="#949598" width="0.109" height="36.493"/>
				<rect x="82.953" y="45.081" clip-path="url(#SVGID_6_)" fill="#939597" width="0.106" height="36.493"/>
				<rect x="83.06" y="45.081" clip-path="url(#SVGID_6_)" fill="#929496" width="0.106" height="36.493"/>
				<rect x="83.166" y="45.081" clip-path="url(#SVGID_6_)" fill="#929396" width="0.104" height="36.493"/>
				<rect x="83.27" y="45.081" clip-path="url(#SVGID_6_)" fill="#919295" width="0.106" height="36.493"/>
				<rect x="83.376" y="45.081" clip-path="url(#SVGID_6_)" fill="#909294" width="0.106" height="36.493"/>
				<rect x="83.482" y="45.081" clip-path="url(#SVGID_6_)" fill="#8F9193" width="0.104" height="36.493"/>
				<rect x="83.586" y="45.081" clip-path="url(#SVGID_6_)" fill="#8F9093" width="0.106" height="36.493"/>
				<rect x="83.693" y="45.081" clip-path="url(#SVGID_6_)" fill="#8E8F92" width="0.106" height="36.493"/>
				<rect x="83.799" y="45.081" clip-path="url(#SVGID_6_)" fill="#8D8F91" width="0.106" height="36.493"/>
				<rect x="83.906" y="45.081" clip-path="url(#SVGID_6_)" fill="#8C8E90" width="0.104" height="36.493"/>
				<rect x="84.009" y="45.081" clip-path="url(#SVGID_6_)" fill="#8C8D90" width="0.106" height="36.493"/>
				<rect x="84.116" y="45.081" clip-path="url(#SVGID_6_)" fill="#8B8C8F" width="0.106" height="36.493"/>
				<rect x="84.222" y="45.081" clip-path="url(#SVGID_6_)" fill="#8A8C8E" width="0.104" height="36.493"/>
				<rect x="84.326" y="45.081" clip-path="url(#SVGID_6_)" fill="#898B8D" width="0.106" height="36.493"/>
				<rect x="84.432" y="45.081" clip-path="url(#SVGID_6_)" fill="#898A8D" width="0.109" height="36.493"/>
				<rect x="84.542" y="45.081" clip-path="url(#SVGID_6_)" fill="#88898C" width="0.104" height="36.493"/>
				<rect x="84.645" y="45.081" clip-path="url(#SVGID_6_)" fill="#87898B" width="0.109" height="36.493"/>
				<rect x="84.754" y="45.081" clip-path="url(#SVGID_6_)" fill="#86888A" width="0.104" height="36.493"/>
				<rect x="84.858" y="45.081" clip-path="url(#SVGID_6_)" fill="#86878A" width="0.106" height="36.493"/>
				<rect x="84.964" y="45.081" clip-path="url(#SVGID_6_)" fill="#858689" width="0.106" height="36.493"/>
				<rect x="85.071" y="45.081" clip-path="url(#SVGID_6_)" fill="#848688" width="0.106" height="36.493"/>
				<rect x="85.177" y="45.081" clip-path="url(#SVGID_6_)" fill="#838587" width="0.104" height="36.493"/>
				<rect x="85.281" y="45.081" clip-path="url(#SVGID_6_)" fill="#838487" width="0.106" height="36.493"/>
				<rect x="85.387" y="45.081" clip-path="url(#SVGID_6_)" fill="#828386" width="0.106" height="36.493"/>
				<rect x="85.494" y="45.081" clip-path="url(#SVGID_6_)" fill="#818385" width="0.104" height="36.493"/>
				<rect x="85.598" y="45.081" clip-path="url(#SVGID_6_)" fill="#818284" width="0.106" height="36.493"/>
				<rect x="85.704" y="45.081" clip-path="url(#SVGID_6_)" fill="#808184" width="0.106" height="36.493"/>
				<rect x="85.811" y="45.081" clip-path="url(#SVGID_6_)" fill="#7F8083" width="0.106" height="36.493"/>
				<rect x="85.917" y="45.081" clip-path="url(#SVGID_6_)" fill="#7E8082" width="0.104" height="36.493"/>
				<rect x="86.021" y="45.081" clip-path="url(#SVGID_6_)" fill="#7E7F81" width="0.106" height="36.493"/>
				<rect x="86.127" y="45.081" clip-path="url(#SVGID_6_)" fill="#7D7E81" width="0.106" height="36.493"/>
				<rect x="86.233" y="45.081" clip-path="url(#SVGID_6_)" fill="#7C7D80" width="0.109" height="36.493"/>
				<rect x="86.342" y="45.081" clip-path="url(#SVGID_6_)" fill="#7B7D7F" width="0.106" height="36.493"/>
				<rect x="86.449" y="45.081" clip-path="url(#SVGID_6_)" fill="#7B7C7E" width="0.104" height="36.493"/>
				<rect x="86.553" y="45.081" clip-path="url(#SVGID_6_)" fill="#7A7B7E" width="0.106" height="36.493"/>
				<rect x="86.659" y="45.081" clip-path="url(#SVGID_6_)" fill="#797A7D" width="0.106" height="36.493"/>
				<rect x="86.766" y="45.081" clip-path="url(#SVGID_6_)" fill="#797A7C" width="0.104" height="36.493"/>
				<rect x="86.87" y="45.081" clip-path="url(#SVGID_6_)" fill="#78797B" width="0.106" height="36.493"/>
				<rect x="86.976" y="45.081" clip-path="url(#SVGID_6_)" fill="#77787B" width="0.106" height="36.493"/>
				<rect x="87.082" y="45.081" clip-path="url(#SVGID_6_)" fill="#76787A" width="0.106" height="36.493"/>
				<rect x="87.188" y="45.081" clip-path="url(#SVGID_6_)" fill="#767779" width="0.104" height="36.493"/>
				<rect x="87.292" y="45.081" clip-path="url(#SVGID_6_)" fill="#757678" width="0.106" height="36.493"/>
				<rect x="87.399" y="45.081" clip-path="url(#SVGID_6_)" fill="#747578" width="0.106" height="36.493"/>
				<rect x="87.505" y="45.081" clip-path="url(#SVGID_6_)" fill="#737577" width="0.104" height="36.493"/>
				<rect x="87.609" y="45.081" clip-path="url(#SVGID_6_)" fill="#737476" width="0.106" height="36.493"/>
				<rect x="87.715" y="45.081" clip-path="url(#SVGID_6_)" fill="#727375" width="0.106" height="36.493"/>
				<rect x="87.822" y="45.081" clip-path="url(#SVGID_6_)" fill="#717275" width="0.106" height="36.493"/>
				<rect x="87.928" y="45.081" clip-path="url(#SVGID_6_)" fill="#707174" width="0.104" height="36.493"/>
				<rect x="88.032" y="45.081" clip-path="url(#SVGID_6_)" fill="#707173" width="0.109" height="36.493"/>
				<rect x="88.141" y="45.081" clip-path="url(#SVGID_6_)" fill="#6F7072" width="0.106" height="36.493"/>
				<rect x="88.248" y="45.081" clip-path="url(#SVGID_6_)" fill="#6E6F71" width="0.106" height="36.493"/>
				<rect x="88.354" y="45.081" clip-path="url(#SVGID_6_)" fill="#6D6E71" width="0.106" height="36.493"/>
				<rect x="88.46" y="45.081" clip-path="url(#SVGID_6_)" fill="#6D6E70" width="0.104" height="36.493"/>
				<rect x="88.564" y="45.081" clip-path="url(#SVGID_6_)" fill="#6C6D6F" width="0.106" height="36.493"/>
				<rect x="88.67" y="45.081" clip-path="url(#SVGID_6_)" fill="#6B6C6E" width="0.106" height="36.493"/>
				<rect x="88.777" y="45.081" clip-path="url(#SVGID_6_)" fill="#6A6B6D" width="0.104" height="36.493"/>
				<rect x="88.881" y="45.081" clip-path="url(#SVGID_6_)" fill="#696A6D" width="0.106" height="36.493"/>
				<rect x="88.987" y="45.081" clip-path="url(#SVGID_6_)" fill="#696A6C" width="0.106" height="36.493"/>
				<rect x="89.094" y="45.081" clip-path="url(#SVGID_6_)" fill="#68696B" width="0.106" height="36.493"/>
				<rect x="89.2" y="45.081" clip-path="url(#SVGID_6_)" fill="#67686A" width="0.104" height="36.493"/>
				<rect x="89.304" y="45.081" clip-path="url(#SVGID_6_)" fill="#666769" width="0.106" height="36.493"/>
				<rect x="89.41" y="45.081" clip-path="url(#SVGID_6_)" fill="#666669" width="0.106" height="36.493"/>
				<rect x="89.517" y="45.081" clip-path="url(#SVGID_6_)" fill="#656668" width="0.104" height="36.493"/>
				<rect x="89.621" y="45.081" clip-path="url(#SVGID_6_)" fill="#646567" width="0.111" height="36.493"/>
				<rect x="89.732" y="45.081" clip-path="url(#SVGID_6_)" fill="#636466" width="0.102" height="36.493"/>
				<rect x="89.833" y="45.081" clip-path="url(#SVGID_6_)" fill="#626365" width="0.109" height="36.493"/>
				<rect x="89.942" y="45.081" clip-path="url(#SVGID_6_)" fill="#626264" width="0.106" height="36.493"/>
				<rect x="90.049" y="45.081" clip-path="url(#SVGID_6_)" fill="#616264" width="0.104" height="36.493"/>
				<rect x="90.152" y="45.081" clip-path="url(#SVGID_6_)" fill="#606163" width="0.106" height="36.493"/>
				<rect x="90.259" y="45.081" clip-path="url(#SVGID_6_)" fill="#5F6062" width="0.106" height="36.493"/>
				<rect x="90.365" y="45.081" clip-path="url(#SVGID_6_)" fill="#5E5F61" width="0.106" height="36.493"/>
				<rect x="90.472" y="45.081" clip-path="url(#SVGID_6_)" fill="#5E5E60" width="0.104" height="36.493"/>
				<rect x="90.576" y="45.081" clip-path="url(#SVGID_6_)" fill="#5D5D60" width="0.106" height="36.493"/>
				<rect x="90.682" y="45.081" clip-path="url(#SVGID_6_)" fill="#5C5D5F" width="0.106" height="36.493"/>
				<rect x="90.789" y="45.081" clip-path="url(#SVGID_6_)" fill="#5B5C5E" width="0.104" height="36.493"/>
				<rect x="90.892" y="45.081" clip-path="url(#SVGID_6_)" fill="#5A5B5D" width="0.106" height="36.493"/>
				<rect x="90.999" y="45.081" clip-path="url(#SVGID_6_)" fill="#5A5A5C" width="0.106" height="36.493"/>
				<rect x="91.105" y="45.081" clip-path="url(#SVGID_6_)" fill="#59595B" width="0.106" height="36.493"/>
				<rect x="91.211" y="45.081" clip-path="url(#SVGID_6_)" fill="#58585A" width="0.104" height="36.493"/>
				<rect x="91.315" y="45.081" clip-path="url(#SVGID_6_)" fill="#575759" width="0.106" height="36.493"/>
				<rect x="91.421" y="45.081" clip-path="url(#SVGID_6_)" fill="#565658" width="0.109" height="36.493"/>
				<rect x="91.531" y="45.081" clip-path="url(#SVGID_6_)" fill="#555658" width="0.101" height="36.493"/>
				<rect x="91.632" y="45.081" clip-path="url(#SVGID_6_)" fill="#545557" width="0.112" height="36.493"/>
				<rect x="91.744" y="45.081" clip-path="url(#SVGID_6_)" fill="#535456" width="0.104" height="36.493"/>
				<rect x="91.847" y="45.081" clip-path="url(#SVGID_6_)" fill="#535355" width="0.106" height="36.493"/>
				<rect x="91.954" y="45.081" clip-path="url(#SVGID_6_)" fill="#525254" width="0.106" height="36.493"/>
				<rect x="92.06" y="45.081" clip-path="url(#SVGID_6_)" fill="#515153" width="0.104" height="36.493"/>
				<rect x="92.164" y="45.081" clip-path="url(#SVGID_6_)" fill="#505052" width="0.106" height="36.493"/>
				<rect x="92.27" y="45.081" clip-path="url(#SVGID_6_)" fill="#4F4F51" width="0.106" height="36.493"/>
				<rect x="92.376" y="45.081" clip-path="url(#SVGID_6_)" fill="#4E4E50" width="0.106" height="36.493"/>
				<rect x="92.483" y="45.081" clip-path="url(#SVGID_6_)" fill="#4D4D4F" width="0.104" height="36.493"/>
				<rect x="92.587" y="45.081" clip-path="url(#SVGID_6_)" fill="#4C4C4E" width="0.106" height="36.493"/>
				<rect x="92.693" y="45.081" clip-path="url(#SVGID_6_)" fill="#4C4C4D" width="0.106" height="36.493"/>
				<rect x="92.8" y="45.081" clip-path="url(#SVGID_6_)" fill="#4B4B4C" width="0.104" height="36.493"/>
				<rect x="92.904" y="45.081" clip-path="url(#SVGID_6_)" fill="#4A4A4B" width="0.106" height="36.493"/>
				<rect x="93.01" y="45.081" clip-path="url(#SVGID_6_)" fill="#49494B" width="0.106" height="36.493"/>
				<rect x="93.116" y="45.081" clip-path="url(#SVGID_6_)" fill="#48484A" width="0.106" height="36.493"/>
				<rect x="93.223" y="45.081" clip-path="url(#SVGID_6_)" fill="#474749" width="0.109" height="36.493"/>
				<rect x="93.332" y="45.081" clip-path="url(#SVGID_6_)" fill="#464648" width="0.104" height="36.493"/>
				<rect x="93.436" y="45.081" clip-path="url(#SVGID_6_)" fill="#454547" width="0.106" height="36.493"/>
				<rect x="93.542" y="45.081" clip-path="url(#SVGID_6_)" fill="#444446" width="0.106" height="36.493"/>
				<rect x="93.648" y="45.081" clip-path="url(#SVGID_6_)" fill="#444345" width="0.106" height="36.493"/>
				<rect x="93.755" y="45.081" clip-path="url(#SVGID_6_)" fill="#434244" width="0.104" height="36.493"/>
				<rect x="93.859" y="45.081" clip-path="url(#SVGID_6_)" fill="#424143" width="0.106" height="36.493"/>
				<rect x="93.965" y="45.081" clip-path="url(#SVGID_6_)" fill="#404042" width="0.106" height="36.493"/>
				<rect x="94.071" y="45.081" clip-path="url(#SVGID_6_)" fill="#3E3E3F" width="0.104" height="36.493"/>
				<rect x="94.175" y="45.081" clip-path="url(#SVGID_6_)" fill="#3C3C3D" width="0.106" height="36.493"/>
				<rect x="94.282" y="45.081" clip-path="url(#SVGID_6_)" fill="#3A3A3B" width="0.106" height="36.493"/>
				<rect x="94.388" y="45.081" clip-path="url(#SVGID_6_)" fill="#383839" width="0.106" height="36.493"/>
				<rect x="94.495" y="45.081" clip-path="url(#SVGID_6_)" fill="#363637" width="0.104" height="36.493"/>
				<rect x="94.598" y="45.081" clip-path="url(#SVGID_6_)" fill="#343334" width="0.106" height="36.493"/>
				<rect x="94.705" y="45.081" clip-path="url(#SVGID_6_)" fill="#313132" width="0.106" height="36.493"/>
				<rect x="94.811" y="45.081" clip-path="url(#SVGID_6_)" fill="#2F2F30" width="0.104" height="36.493"/>
				<rect x="94.915" y="45.081" clip-path="url(#SVGID_6_)" fill="#2D2D2E" width="0.106" height="36.493"/>
				<rect x="95.021" y="45.081" clip-path="url(#SVGID_6_)" fill="#2B2B2C" width="0.109" height="36.493"/>
				<rect x="95.13" y="45.081" clip-path="url(#SVGID_6_)" fill="#29292A" width="0.106" height="36.493"/>
				<rect x="95.237" y="45.081" clip-path="url(#SVGID_6_)" fill="#272727" width="0.106" height="36.493"/>
				<rect x="95.343" y="45.081" clip-path="url(#SVGID_6_)" fill="#252525" width="0.104" height="36.493"/>
				<rect x="95.447" y="45.081" clip-path="url(#SVGID_6_)" fill="#232323" width="0.106" height="36.493"/>
				<rect x="95.553" y="45.081" clip-path="url(#SVGID_6_)" fill="#212121" width="0.106" height="36.493"/>
				<rect x="95.66" y="45.081" clip-path="url(#SVGID_6_)" fill="#1F1F1F" width="0.106" height="36.493"/>
				<rect x="95.766" y="45.081" clip-path="url(#SVGID_6_)" fill="#1D1D1D" width="0.104" height="36.493"/>
				<rect x="95.87" y="45.081" clip-path="url(#SVGID_6_)" fill="#1B1B1B" width="0.106" height="36.493"/>
				<rect x="95.977" y="45.081" clip-path="url(#SVGID_6_)" fill="#191819" width="0.106" height="36.493"/>
				<rect x="96.083" y="45.081" clip-path="url(#SVGID_6_)" fill="#161616" width="0.104" height="36.493"/>
				<rect x="96.187" y="45.081" clip-path="url(#SVGID_6_)" fill="#131314" width="0.106" height="36.493"/>
				<rect x="96.293" y="45.081" clip-path="url(#SVGID_6_)" fill="#101010" width="0.106" height="36.493"/>
				<rect x="96.399" y="45.081" clip-path="url(#SVGID_6_)" fill="#09090A" width="0.106" height="36.493"/>
				<rect x="96.506" y="45.081" clip-path="url(#SVGID_6_)" width="0.104" height="36.493"/>
				<path clip-path="url(#SVGID_6_)" d="M96.61,81.574V45.081V81.574z"/>
			</g>
		</g>
	</g>
	<g>
		<path fill="#9A8A3A" d="M132.906,109.297c-1.074,0-2.73-2.371-2.73-3.447c0-0.447,0.133-0.807,0.355-1.208
			c0.537-0.897,3.047-5.465,3.764-6.629c0.088-0.135,0.135-0.269,0.135-0.358c0-0.135-0.091-0.179-0.226-0.179
			c-2.64,0-8.329,5.104-8.329,8.777c0,3.581,4.524,7.971,4.524,13.031c0,3.761-2.956,5.328-6.406,5.328
			c-4.835,0-10.701-3.091-10.701-7.478c0-0.717,0.537-2.105,1.433-2.105c0.223,0,0.446,0.09,0.716,0.403
			c1.345,1.478,4.298,4.433,7.254,4.433c0.716,0,1.791-0.089,1.791-1.074c0-2.463-4.568-9.225-4.568-14.553
			c0-5.105,7.794-15.584,15.136-15.584c1.389,0,3.045,0.402,3.582,2.418c1.479,0.851,3.003,3.403,3.003,5.285
			c0,0.67-0.226,1.297-0.405,1.655c-0.358,0.581-3.983,6.226-7.433,10.703C133.487,109.119,133.173,109.297,132.906,109.297z"/>
	</g>
	<g>
		<path fill="#FFFFFF" d="M131.974,107.432c-1.077,0-2.733-2.373-2.733-3.447c0-0.449,0.135-0.807,0.358-1.209
			c0.537-0.896,3.047-5.463,3.761-6.629c0.091-0.133,0.135-0.269,0.135-0.357c0-0.135-0.088-0.18-0.223-0.18
			c-2.643,0-8.332,5.105-8.332,8.777c0,3.582,4.524,7.971,4.524,13.031c0,3.761-2.954,5.328-6.403,5.328
			c-4.835,0-10.703-3.09-10.703-7.477c0-0.717,0.54-2.105,1.433-2.105c0.226,0,0.449,0.089,0.716,0.402
			c1.344,1.477,4.3,4.434,7.254,4.434c0.719,0,1.793-0.09,1.793-1.074c0-2.464-4.568-9.225-4.568-14.555
			c0-5.104,7.791-15.583,15.136-15.583c1.389,0,3.045,0.403,3.582,2.419c1.477,0.852,3,3.402,3,5.284
			c0,0.671-0.224,1.298-0.402,1.655c-0.358,0.583-3.986,6.225-7.433,10.703C132.555,107.252,132.241,107.432,131.974,107.432z"/>
	</g>
	<g opacity="0.1">
		<linearGradient id="SVGID_7_" gradientUnits="userSpaceOnUse" x1="112.3584" y1="104.7676" x2="140.7046" y2="104.7676">
			<stop  offset="0" style="stop-color:#FFFFFF"/>
			<stop  offset="1" style="stop-color:#000000"/>
		</linearGradient>
		<path fill="url(#SVGID_7_)" d="M131.974,107.432c-1.077,0-2.733-2.373-2.733-3.447c0-0.449,0.135-0.807,0.358-1.209
			c0.537-0.896,3.047-5.463,3.761-6.629c0.091-0.133,0.135-0.269,0.135-0.357c0-0.135-0.088-0.18-0.223-0.18
			c-2.643,0-8.332,5.105-8.332,8.777c0,3.582,4.524,7.971,4.524,13.031c0,3.761-2.954,5.328-6.403,5.328
			c-4.835,0-10.703-3.09-10.703-7.477c0-0.717,0.54-2.105,1.433-2.105c0.226,0,0.449,0.089,0.716,0.402
			c1.344,1.477,4.3,4.434,7.254,4.434c0.719,0,1.793-0.09,1.793-1.074c0-2.464-4.568-9.225-4.568-14.555
			c0-5.104,7.791-15.583,15.136-15.583c1.389,0,3.045,0.403,3.582,2.419c1.477,0.852,3,3.402,3,5.284
			c0,0.671-0.224,1.298-0.402,1.655c-0.358,0.583-3.986,6.225-7.433,10.703C132.555,107.252,132.241,107.432,131.974,107.432z"/>
	</g>
	<g>
		<g>
			<path fill="#2C3769" d="M174.882,66.925c-1.074,0-2.729-2.373-2.729-3.448c0-0.448,0.132-0.806,0.355-1.209
				c0.537-0.896,3.047-5.463,3.763-6.627c0.089-0.134,0.136-0.269,0.136-0.358c0-0.134-0.092-0.179-0.224-0.179
				c-2.643,0-8.331,5.105-8.331,8.776c0,3.584,4.523,7.972,4.523,13.031c0,3.762-2.956,5.33-6.402,5.33
				c-4.838,0-10.703-3.09-10.703-7.479c0-0.716,0.537-2.105,1.433-2.105c0.223,0,0.446,0.09,0.716,0.404
				c1.345,1.478,4.298,4.433,7.254,4.433c0.717,0,1.791-0.089,1.791-1.076c0-2.462-4.567-9.224-4.567-14.552
				c0-5.105,7.794-15.583,15.136-15.583c1.389,0,3.047,0.403,3.584,2.417c1.477,0.851,3,3.404,3,5.284
				c0,0.672-0.226,1.299-0.404,1.657c-0.358,0.583-3.984,6.225-7.434,10.702C175.464,66.746,175.153,66.925,174.882,66.925z"/>
		</g>
	</g>
	<g>
		<path fill="#FFFFFF" d="M173.951,65.06c-1.077,0-2.732-2.375-2.732-3.449c0-0.446,0.135-0.806,0.358-1.208
			c0.537-0.896,3.047-5.464,3.763-6.627c0.089-0.135,0.135-0.27,0.135-0.358c0-0.135-0.091-0.179-0.226-0.179
			c-2.642,0-8.328,5.104-8.328,8.776c0,3.583,4.521,7.97,4.521,13.031c0,3.762-2.953,5.328-6.402,5.328
			c-4.835,0-10.7-3.09-10.7-7.479c0-0.716,0.537-2.105,1.43-2.105c0.226,0,0.449,0.091,0.719,0.404
			c1.342,1.478,4.298,4.434,7.254,4.434c0.717,0,1.791-0.091,1.791-1.076c0-2.463-4.567-9.225-4.567-14.553
			c0-5.105,7.791-15.583,15.136-15.583c1.389,0,3.044,0.402,3.581,2.417c1.478,0.85,3.001,3.404,3.001,5.284
			c0,0.671-0.224,1.299-0.402,1.657c-0.358,0.581-3.986,6.224-7.434,10.702C174.533,64.881,174.218,65.06,173.951,65.06z"/>
	</g>
	<g opacity="0.1">
		<linearGradient id="SVGID_8_" gradientUnits="userSpaceOnUse" x1="154.3384" y1="62.3955" x2="182.6821" y2="62.3955">
			<stop  offset="0" style="stop-color:#FFFFFF"/>
			<stop  offset="1" style="stop-color:#000000"/>
		</linearGradient>
		<path fill="url(#SVGID_8_)" d="M173.951,65.06c-1.077,0-2.732-2.375-2.732-3.449c0-0.446,0.135-0.806,0.358-1.208
			c0.537-0.896,3.047-5.464,3.763-6.627c0.089-0.135,0.135-0.27,0.135-0.358c0-0.135-0.091-0.179-0.226-0.179
			c-2.642,0-8.328,5.104-8.328,8.776c0,3.583,4.521,7.97,4.521,13.031c0,3.762-2.953,5.328-6.402,5.328
			c-4.835,0-10.7-3.09-10.7-7.479c0-0.716,0.537-2.105,1.43-2.105c0.226,0,0.449,0.091,0.719,0.404
			c1.342,1.478,4.298,4.434,7.254,4.434c0.717,0,1.791-0.091,1.791-1.076c0-2.463-4.567-9.225-4.567-14.553
			c0-5.105,7.791-15.583,15.136-15.583c1.389,0,3.044,0.402,3.581,2.417c1.478,0.85,3.001,3.404,3.001,5.284
			c0,0.671-0.224,1.299-0.402,1.657c-0.358,0.581-3.986,6.224-7.434,10.702C174.533,64.881,174.218,65.06,173.951,65.06z"/>
	</g>
</g>
<text transform="matrix(1 0 0 1 17.0161 191.9478)"><tspan x="0" y="0" stroke="#000100" stroke-width="0.25" stroke-miterlimit="10" font-family="'Gabriola'" font-size="54">{ b</tspan><tspan x="45.642" y="0" stroke="#000100" stroke-width="0.25" stroke-miterlimit="10" font-family="'Gabriola'" font-size="54">r</tspan><tspan x="60.908" y="0" stroke="#000100" stroke-width="0.25" stroke-miterlimit="10" font-family="'Gabriola'" font-size="54">asil: </tspan><tspan x="135.488" y="0" fill="#304196" stroke="#31418A" stroke-width="0.25" stroke-miterlimit="10" font-family="'Gabriola'" font-size="54">20</tspan><tspan x="174.735" y="0" fill="#304196" stroke="#31418A" stroke-width="0.25" stroke-miterlimit="10" font-family="'Gabriola'" font-size="54">1</tspan><tspan x="186.824" y="0" fill="#304196" stroke="#31418A" stroke-width="0.25" stroke-miterlimit="10" font-family="'Gabriola'" font-size="54">5</tspan><tspan x="205.256" y="0" stroke="#000100" stroke-width="0.25" stroke-miterlimit="10" font-family="'Gabriola'" font-size="54">; }</tspan></text>
</svg>
